<svg width="270" height="44" viewBox="0 0 270 44" fill="none" xmlns="http://www.w3.org/2000/svg">
<rect x="0.25" y="0.25" width="269.5" height="43.5" rx="19.75" fill="#F6F6F6"/>
<rect x="0.25" y="0.25" width="269.5" height="43.5" rx="19.75" stroke="#D2D2D2" stroke-width="0.5"/>
<ellipse cx="32.5" cy="22" rx="8.5" ry="9" fill="#61FF56"/>
<path d="M72.7193 27H69.3733V16.878H72.6633C75.6873 16.878 77.7313 18.922 77.7313 21.946C77.7313 24.956 75.7153 27 72.7193 27ZM72.5653 18.138H70.7453V25.726H72.6213C74.8753 25.726 76.3033 24.27 76.3033 21.946C76.3033 19.594 74.8753 18.138 72.5653 18.138ZM82.2068 27.168C80.1908 27.168 78.8048 25.712 78.8048 23.584C78.8048 21.442 80.1628 19.958 82.1508 19.958C84.0968 19.958 85.3708 21.302 85.3708 23.332V23.822L80.0788 23.836C80.1768 25.278 80.9328 26.076 82.2348 26.076C83.2568 26.076 83.9288 25.656 84.1528 24.872H85.3848C85.0488 26.342 83.9008 27.168 82.2068 27.168ZM82.1508 21.064C81.0028 21.064 80.2748 21.75 80.1068 22.954H84.0548C84.0548 21.82 83.3128 21.064 82.1508 21.064ZM88.1567 27H86.8407V20.154H88.0167L88.1427 21.05C88.4927 20.406 89.2207 19.958 90.1867 19.958C91.2507 19.958 92.0067 20.49 92.3567 21.344C92.6787 20.49 93.5047 19.958 94.5687 19.958C96.1367 19.958 97.0887 20.938 97.0887 22.52V27H95.8007V22.842C95.8007 21.764 95.1987 21.148 94.2747 21.148C93.2807 21.148 92.6227 21.848 92.6227 22.94V27H91.3207V22.828C91.3207 21.75 90.7327 21.162 89.8087 21.162C88.8147 21.162 88.1567 21.848 88.1567 22.94V27ZM98.4649 23.57C98.4649 21.456 99.9769 19.972 102.035 19.972C104.079 19.972 105.591 21.456 105.591 23.57C105.591 25.684 104.079 27.168 102.035 27.168C99.9769 27.168 98.4649 25.684 98.4649 23.57ZM99.7949 23.57C99.7949 24.998 100.705 25.992 102.035 25.992C103.351 25.992 104.275 24.998 104.275 23.57C104.275 22.142 103.351 21.148 102.035 21.148C100.705 21.148 99.7949 22.142 99.7949 23.57ZM106.488 25.012H107.748C107.748 25.712 108.28 26.132 109.148 26.132C110.072 26.132 110.604 25.754 110.604 25.124C110.604 24.662 110.38 24.382 109.666 24.2L108.462 23.92C107.244 23.626 106.67 23.024 106.67 22.016C106.67 20.756 107.734 19.958 109.246 19.958C110.744 19.958 111.724 20.798 111.752 22.1H110.492C110.464 21.414 110.002 20.98 109.204 20.98C108.378 20.98 107.916 21.344 107.916 21.974C107.916 22.436 108.252 22.744 108.924 22.912L110.128 23.206C111.29 23.486 111.864 24.018 111.864 25.04C111.864 26.342 110.744 27.168 109.12 27.168C107.51 27.168 106.488 26.314 106.488 25.012ZM119.153 27.168C117.683 27.168 116.815 26.342 116.815 25.096C116.815 23.836 117.753 23.052 119.363 22.926L121.519 22.758V22.562C121.519 21.414 120.833 21.008 119.909 21.008C118.803 21.008 118.173 21.498 118.173 22.324H117.025C117.025 20.896 118.201 19.958 119.965 19.958C121.659 19.958 122.807 20.854 122.807 22.702V27H121.687L121.547 25.894C121.197 26.678 120.259 27.168 119.153 27.168ZM119.531 26.146C120.777 26.146 121.533 25.334 121.533 24.046V23.682L119.783 23.822C118.621 23.934 118.145 24.382 118.145 25.054C118.145 25.782 118.677 26.146 119.531 26.146ZM126.274 27L123.516 20.154H124.916L126.414 23.976C126.652 24.62 126.848 25.194 126.96 25.614C127.072 25.166 127.296 24.578 127.534 23.976L129.06 20.154H130.432L127.576 27H126.274ZM133.167 27.168C131.697 27.168 130.829 26.342 130.829 25.096C130.829 23.836 131.767 23.052 133.377 22.926L135.533 22.758V22.562C135.533 21.414 134.847 21.008 133.923 21.008C132.817 21.008 132.187 21.498 132.187 22.324H131.039C131.039 20.896 132.215 19.958 133.979 19.958C135.673 19.958 136.821 20.854 136.821 22.702V27H135.701L135.561 25.894C135.211 26.678 134.273 27.168 133.167 27.168ZM133.545 26.146C134.791 26.146 135.547 25.334 135.547 24.046V23.682L133.797 23.822C132.635 23.934 132.159 24.382 132.159 25.054C132.159 25.782 132.691 26.146 133.545 26.146ZM139.287 18.53C138.811 18.53 138.419 18.138 138.419 17.662C138.419 17.172 138.811 16.794 139.287 16.794C139.763 16.794 140.155 17.172 140.155 17.662C140.155 18.138 139.763 18.53 139.287 18.53ZM138.643 27V20.154H139.959V27H138.643ZM143.214 27H141.898V16.696H143.214V27ZM147.153 27.168C145.683 27.168 144.815 26.342 144.815 25.096C144.815 23.836 145.753 23.052 147.363 22.926L149.519 22.758V22.562C149.519 21.414 148.833 21.008 147.909 21.008C146.803 21.008 146.173 21.498 146.173 22.324H145.025C145.025 20.896 146.201 19.958 147.965 19.958C149.659 19.958 150.807 20.854 150.807 22.702V27H149.687L149.547 25.894C149.197 26.678 148.259 27.168 147.153 27.168ZM147.531 26.146C148.777 26.146 149.533 25.334 149.533 24.046V23.682L147.783 23.822C146.621 23.934 146.145 24.382 146.145 25.054C146.145 25.782 146.677 26.146 147.531 26.146ZM153.82 27H152.63V16.696H153.946V21.33C154.394 20.434 155.318 19.958 156.438 19.958C158.398 19.958 159.574 21.498 159.574 23.612C159.574 25.684 158.342 27.168 156.354 27.168C155.276 27.168 154.366 26.692 153.918 25.754L153.82 27ZM153.96 23.556C153.96 24.984 154.772 25.978 156.116 25.978C157.46 25.978 158.258 24.97 158.258 23.556C158.258 22.156 157.46 21.148 156.116 21.148C154.772 21.148 153.96 22.156 153.96 23.556ZM162.368 27H161.052V16.696H162.368V27ZM167.26 27.168C165.244 27.168 163.858 25.712 163.858 23.584C163.858 21.442 165.216 19.958 167.204 19.958C169.15 19.958 170.424 21.302 170.424 23.332V23.822L165.132 23.836C165.23 25.278 165.986 26.076 167.288 26.076C168.31 26.076 168.982 25.656 169.206 24.872H170.438C170.102 26.342 168.954 27.168 167.26 27.168ZM167.204 21.064C166.056 21.064 165.328 21.75 165.16 22.954H169.108C169.108 21.82 168.366 21.064 167.204 21.064ZM175.274 23.57C175.274 21.456 176.786 19.972 178.844 19.972C180.888 19.972 182.4 21.456 182.4 23.57C182.4 25.684 180.888 27.168 178.844 27.168C176.786 27.168 175.274 25.684 175.274 23.57ZM176.604 23.57C176.604 24.998 177.514 25.992 178.844 25.992C180.16 25.992 181.084 24.998 181.084 23.57C181.084 22.142 180.16 21.148 178.844 21.148C177.514 21.148 176.604 22.142 176.604 23.57ZM185.172 27H183.856V20.154H185.046L185.186 21.204C185.62 20.42 186.488 19.958 187.454 19.958C189.26 19.958 190.086 21.064 190.086 22.814V27H188.77V23.108C188.77 21.722 188.126 21.162 187.118 21.162C185.886 21.162 185.172 22.044 185.172 23.374V27ZM199.657 20.098V21.302H199.069C197.823 21.302 197.053 22.058 197.053 23.374V27H195.737V20.168H196.969L197.053 21.204C197.333 20.49 198.019 20.014 198.957 20.014C199.195 20.014 199.391 20.042 199.657 20.098ZM203.599 27.168C201.583 27.168 200.197 25.712 200.197 23.584C200.197 21.442 201.555 19.958 203.543 19.958C205.489 19.958 206.763 21.302 206.763 23.332V23.822L201.471 23.836C201.569 25.278 202.325 26.076 203.627 26.076C204.649 26.076 205.321 25.656 205.545 24.872H206.777C206.441 26.342 205.293 27.168 203.599 27.168ZM203.543 21.064C202.395 21.064 201.667 21.75 201.499 22.954H205.447C205.447 21.82 204.705 21.064 203.543 21.064ZM207.785 23.528C207.785 21.428 209.017 19.958 210.977 19.958C212.055 19.958 212.993 20.448 213.441 21.386L213.553 20.154H214.729V30.066H213.427V25.88C212.965 26.72 212.055 27.182 210.963 27.182C208.947 27.182 207.785 25.614 207.785 23.528ZM209.115 23.584C209.115 24.984 209.899 25.992 211.243 25.992C212.587 25.992 213.413 24.984 213.413 23.584C213.413 22.156 212.587 21.162 211.243 21.162C209.899 21.162 209.115 22.17 209.115 23.584ZM221.36 20.154H222.662V27H221.486L221.346 25.964C220.954 26.678 220.044 27.168 219.036 27.168C217.44 27.168 216.544 26.09 216.544 24.41V20.154H217.86V23.976C217.86 25.446 218.49 26.006 219.498 26.006C220.702 26.006 221.36 25.236 221.36 23.766V20.154ZM227.388 27.168C225.372 27.168 223.986 25.712 223.986 23.584C223.986 21.442 225.344 19.958 227.332 19.958C229.278 19.958 230.552 21.302 230.552 23.332V23.822L225.26 23.836C225.358 25.278 226.114 26.076 227.416 26.076C228.438 26.076 229.11 25.656 229.334 24.872H230.566C230.23 26.342 229.082 27.168 227.388 27.168ZM227.332 21.064C226.184 21.064 225.456 21.75 225.288 22.954H229.236C229.236 21.82 228.494 21.064 227.332 21.064ZM231.462 25.012H232.722C232.722 25.712 233.254 26.132 234.122 26.132C235.046 26.132 235.578 25.754 235.578 25.124C235.578 24.662 235.354 24.382 234.64 24.2L233.436 23.92C232.218 23.626 231.644 23.024 231.644 22.016C231.644 20.756 232.708 19.958 234.22 19.958C235.718 19.958 236.698 20.798 236.726 22.1H235.466C235.438 21.414 234.976 20.98 234.178 20.98C233.352 20.98 232.89 21.344 232.89 21.974C232.89 22.436 233.226 22.744 233.898 22.912L235.102 23.206C236.264 23.486 236.838 24.018 236.838 25.04C236.838 26.342 235.718 27.168 234.094 27.168C232.484 27.168 231.462 26.314 231.462 25.012ZM240.23 27H238.914V21.26H237.57V20.154H238.914V18.012H240.23V20.154H241.574V21.26H240.23V27Z" fill="#141414" fill-opacity="0.65"/>
</svg>
