<svg width="412" height="330" viewBox="0 0 412 330" fill="none" xmlns="http://www.w3.org/2000/svg">
<path fill-rule="evenodd" clip-rule="evenodd" d="M20.75 0.333986C17.3881 0.336113 14.0779 1.16167 11.1088 2.73851C8.13962 4.31534 5.60189 6.59545 3.71742 9.37951C1.83295 12.1636 0.659087 15.3669 0.298459 18.7094C-0.0621696 22.0518 0.40141 25.4318 1.64867 28.5537L41.3333 127.807V288.501C41.3333 299.419 45.6705 309.89 53.3908 317.61C61.111 325.33 71.5819 329.667 82.5 329.667H350.083C361.001 329.667 371.472 325.33 379.193 317.61C386.913 309.89 391.25 299.419 391.25 288.501V125.872L411.422 24.9517C412.018 21.9666 411.945 18.8864 411.208 15.9329C410.471 12.9794 409.088 10.2262 407.159 7.87157C405.229 5.51698 402.802 3.61963 400.051 2.31623C397.3 1.01283 394.294 0.335824 391.25 0.333986H308.917C304.16 0.336858 299.551 1.98708 295.874 5.00407C292.196 8.02106 289.677 12.2186 288.745 16.883L281.747 51.8952L266.289 13.2809C264.761 9.45817 262.123 6.18118 258.714 3.87325C255.306 1.56532 251.283 0.332475 247.167 0.333986H20.75ZM206 226.751C200.541 226.751 195.306 228.919 191.445 232.779C187.585 236.64 185.417 241.875 185.417 247.334C185.417 252.793 187.585 258.029 191.445 261.889C195.306 265.749 200.541 267.917 206 267.917H226.583C232.042 267.917 237.278 265.749 241.138 261.889C244.998 258.029 247.167 252.793 247.167 247.334C247.167 241.875 244.998 236.64 241.138 232.779C237.278 228.919 232.042 226.751 226.583 226.751H206Z" fill="white"/>
</svg>
