<svg width="291" height="105" viewBox="0 0 291 105" fill="none" xmlns="http://www.w3.org/2000/svg">
<rect x="0.712891" y="0.177734" width="290" height="104" rx="20" transform="rotate(-0.0362017 0.712891 0.177734)" fill="#F6F6F6"/>
<path d="M84.4234 72.6918L80.6564 72.7121L80.5938 61.0759L84.4802 61.055C85.6203 61.0488 86.6007 61.2765 87.4214 61.738C88.242 62.1957 88.8725 62.8571 89.3127 63.7222C89.7568 64.5835 89.982 65.6183 89.9885 66.8266C89.9951 68.0387 89.7791 69.0815 89.3406 69.9551C88.9059 70.8287 88.2731 71.5025 87.4423 71.9767C86.6115 72.4471 85.6052 72.6855 84.4234 72.6918ZM82.4038 71.1685L84.3186 71.1583C85.2049 71.1535 85.9407 70.9829 86.5261 70.6464C87.1114 70.3061 87.5481 69.817 87.8364 69.1791C88.1246 68.5374 88.2662 67.7563 88.2613 66.8359C88.2564 65.923 88.1064 65.1492 87.8113 64.5144C87.52 63.8796 87.0875 63.3989 86.5138 63.0725C85.94 62.746 85.2289 62.5851 84.3805 62.5896L82.3578 62.6005L82.4038 71.1685ZM95.829 72.8066C94.9692 72.8112 94.2277 72.6315 93.6045 72.2674C92.9851 71.8996 92.505 71.3813 92.1643 70.7127C91.8273 70.0402 91.6564 69.2514 91.6516 68.3461C91.6468 67.4521 91.8092 66.6634 92.1388 65.9798C92.4723 65.2962 92.9391 64.7614 93.5393 64.3756C94.1433 63.9898 94.8506 63.7947 95.6612 63.7903C96.1536 63.7877 96.6313 63.8666 97.0943 64.027C97.5573 64.1874 97.9735 64.4408 98.3428 64.7873C98.712 65.1338 99.0042 65.5849 99.2194 66.1406C99.4345 66.6925 99.5441 67.3642 99.5484 68.1559L99.5516 68.7581L92.6142 68.7954L92.6074 67.5227L97.88 67.4944C97.8776 67.0474 97.7846 66.6521 97.6009 66.3084C97.4172 65.9609 97.1601 65.6876 96.8295 65.4886C96.5026 65.2896 96.1195 65.1913 95.6801 65.1937C95.2029 65.1962 94.7868 65.3159 94.432 65.5527C94.081 65.7856 93.8099 66.0901 93.6188 66.4661C93.4314 66.8384 93.3388 67.2423 93.3412 67.6779L93.3465 68.6722C93.3497 69.2555 93.4546 69.7512 93.6613 70.1591C93.8719 70.5671 94.1633 70.8781 94.5357 71.092C94.908 71.3021 95.3423 71.4058 95.8385 71.4031C96.1605 71.4014 96.4538 71.3544 96.7184 71.262C96.9831 71.1659 97.2115 71.0245 97.4037 70.8379C97.5959 70.6513 97.7424 70.4213 97.8432 70.148L99.4526 70.4292C99.3264 70.9033 99.0976 71.3193 98.7662 71.6772C98.4385 72.0312 98.0252 72.3081 97.5263 72.5077C97.0311 72.7036 96.4654 72.8032 95.829 72.8066ZM103.094 60.9549L103.156 72.5911L101.457 72.6002L101.395 60.964L103.094 60.9549ZM105.442 72.5788L105.395 63.8517L107.093 63.8425L107.14 72.5697L105.442 72.5788ZM106.245 62.5005C105.95 62.5021 105.696 62.4049 105.482 62.2091C105.273 62.0095 105.168 61.7714 105.166 61.4949C105.165 61.2146 105.267 60.9754 105.475 60.7773C105.686 60.5754 105.939 60.4737 106.234 60.4721C106.53 60.4705 106.782 60.5695 106.992 60.7692C107.205 60.965 107.312 61.2031 107.314 61.4834C107.315 61.7599 107.21 61.9991 106.999 62.201C106.792 62.399 106.541 62.4989 106.245 62.5005ZM116.845 63.7901L113.727 72.5343L111.909 72.544L108.691 63.8339L110.515 63.8241L112.762 70.5281L112.853 70.5276L115.021 63.7999L116.845 63.7901ZM121.954 72.6662C121.094 72.6708 120.352 72.4911 119.729 72.127C119.11 71.7591 118.63 71.2408 118.289 70.5722C117.952 69.8998 117.781 69.1109 117.776 68.2056C117.771 67.3117 117.934 66.5229 118.263 65.8393C118.597 65.1557 119.064 64.621 119.664 64.2352C120.268 63.8493 120.975 63.6543 121.786 63.6499C122.278 63.6472 122.756 63.7261 123.219 63.8865C123.682 64.0469 124.098 64.3004 124.467 64.6469C124.837 64.9934 125.129 65.4444 125.344 66.0001C125.559 66.552 125.669 67.2238 125.673 68.0154L125.676 68.6177L118.739 68.655L118.732 67.3823L124.005 67.3539C124.002 66.907 123.909 66.5116 123.726 66.1679C123.542 65.8204 123.285 65.5472 122.954 65.3482C122.627 65.1492 122.244 65.0509 121.805 65.0532C121.327 65.0558 120.911 65.1755 120.557 65.4122C120.206 65.6452 119.935 65.9497 119.743 66.3257C119.556 66.6979 119.463 67.1018 119.466 67.5374L119.471 68.5317C119.474 69.1151 119.579 69.6107 119.786 70.0187C119.996 70.4267 120.288 70.7376 120.66 70.9515C121.033 71.1616 121.467 71.2654 121.963 71.2627C122.285 71.261 122.578 71.2139 122.843 71.1216C123.108 71.0255 123.336 70.8841 123.528 70.6974C123.72 70.5108 123.867 70.2808 123.968 70.0076L125.577 70.2887C125.451 70.7629 125.222 71.1789 124.891 71.5367C124.563 71.8908 124.15 72.1676 123.651 72.3673C123.156 72.5631 122.59 72.6627 121.954 72.6662ZM127.582 72.4598L127.535 63.7326L129.177 63.7238L129.184 65.1101L129.275 65.1096C129.432 64.6391 129.71 64.2683 130.11 63.9972C130.514 63.7223 130.972 63.5835 131.483 63.5807C131.589 63.5801 131.714 63.5833 131.858 63.5901C132.006 63.5968 132.121 63.6057 132.205 63.6166L132.214 65.2416C132.145 65.223 132.024 65.2028 131.85 65.181C131.675 65.1555 131.501 65.1431 131.327 65.1441C130.925 65.1462 130.568 65.2334 130.254 65.4055C129.945 65.5739 129.7 65.8081 129.519 66.1084C129.339 66.4048 129.25 66.7424 129.252 67.1212L129.281 72.4506L127.582 72.4598ZM137.172 72.5843C136.312 72.589 135.571 72.4092 134.948 72.0452C134.328 71.6773 133.848 71.159 133.507 70.4904C133.17 69.8179 133 69.0291 132.995 68.1238C132.99 67.2299 133.152 66.4411 133.482 65.7575C133.815 65.0739 134.282 64.5392 134.882 64.1534C135.486 63.7675 136.194 63.5724 137.004 63.5681C137.497 63.5654 137.974 63.6443 138.437 63.8047C138.9 63.9651 139.317 64.2185 139.686 64.565C140.055 64.9115 140.347 65.3626 140.563 65.9183C140.778 66.4702 140.887 67.1419 140.892 67.9336L140.895 68.5359L133.957 68.5732L133.951 67.3005L139.223 67.2721C139.221 66.8251 139.128 66.4298 138.944 66.0861C138.76 65.7386 138.503 65.4653 138.173 65.2664C137.846 65.0674 137.463 64.969 137.023 64.9714C136.546 64.974 136.13 65.0936 135.775 65.3304C135.424 65.5633 135.153 65.8678 134.962 66.2439C134.775 66.6161 134.682 67.02 134.684 67.4556L134.69 68.4499C134.693 69.0332 134.798 69.5289 135.004 69.9369C135.215 70.3448 135.506 70.6558 135.879 70.8697C136.251 71.0798 136.685 71.1835 137.182 71.1809C137.504 71.1791 137.797 71.1321 138.062 71.0398C138.326 70.9436 138.555 70.8023 138.747 70.6156C138.939 70.429 139.086 70.199 139.186 69.9258L140.796 70.2069C140.67 70.681 140.441 71.0971 140.109 71.4549C139.782 71.8089 139.368 72.0858 138.869 72.2854C138.374 72.4813 137.809 72.5809 137.172 72.5843ZM146.068 72.5308C145.364 72.5346 144.734 72.3581 144.179 72.0012C143.628 71.6405 143.193 71.1258 142.875 70.4571C142.561 69.7845 142.401 68.9766 142.396 68.0335C142.391 67.0903 142.544 66.2826 142.855 65.6105C143.169 64.9384 143.602 64.4228 144.153 64.0637C144.705 63.7047 145.33 63.5233 146.031 63.5195C146.573 63.5166 147.009 63.6052 147.339 63.7852C147.674 63.9615 147.932 64.1684 148.116 64.4061C148.302 64.6437 148.448 64.8532 148.551 65.0344L148.653 65.0339L148.63 60.7101L150.329 60.7009L150.391 72.3371L148.732 72.3461L148.725 70.9881L148.583 70.9889C148.482 71.175 148.335 71.388 148.143 71.6276C147.955 71.8673 147.695 72.077 147.362 72.2568C147.03 72.4367 146.599 72.528 146.068 72.5308ZM146.436 71.08C146.924 71.0774 147.336 70.9463 147.672 70.687C148.012 70.4238 148.267 70.0606 148.439 69.5976C148.614 69.1345 148.701 68.5962 148.697 67.9825C148.694 67.3765 148.604 66.8467 148.427 66.3931C148.251 65.9395 147.993 65.5867 147.655 65.3347C147.316 65.0827 146.899 64.9581 146.403 64.9607C145.891 64.9635 145.466 65.0984 145.126 65.3653C144.787 65.6323 144.531 65.9954 144.359 66.4547C144.191 66.914 144.109 67.4314 144.112 68.0072C144.115 68.5905 144.205 69.1147 144.382 69.5796C144.559 70.0446 144.818 70.4125 145.161 70.6834C145.507 70.9505 145.932 71.0827 146.436 71.08ZM160.727 72.4577C159.909 72.4621 159.194 72.2784 158.582 71.9067C157.97 71.535 157.494 71.0129 157.153 70.3405C156.813 69.6681 156.64 68.8811 156.635 67.9796C156.63 67.0744 156.794 66.2818 157.128 65.602C157.461 64.9221 157.932 64.3931 158.54 64.0148C159.148 63.6365 159.861 63.4452 160.679 63.4408C161.497 63.4364 162.212 63.6201 162.824 63.9918C163.436 64.3635 163.912 64.8874 164.253 65.5637C164.593 66.2399 164.766 67.0306 164.771 67.9359C164.776 68.8374 164.612 69.6262 164.278 70.3022C163.945 70.9783 163.474 71.5054 162.866 71.8837C162.258 72.262 161.545 72.4533 160.727 72.4577ZM160.725 71.0316C161.256 71.0287 161.694 70.8862 162.041 70.604C162.388 70.3219 162.644 69.9474 162.808 69.4806C162.976 69.0138 163.058 68.5 163.055 67.9394C163.052 67.3826 162.964 66.8717 162.791 66.4067C162.622 65.938 162.363 65.5625 162.013 65.2802C161.663 64.998 161.222 64.8583 160.692 64.8612C160.158 64.8641 159.716 65.0085 159.365 65.2945C159.018 65.5804 158.76 65.9587 158.593 66.4293C158.428 66.8961 158.348 67.4079 158.351 67.9647C158.354 68.5253 158.44 69.0381 158.609 69.5031C158.782 69.9681 159.043 70.3398 159.393 70.6183C159.747 70.8967 160.191 71.0344 160.725 71.0316ZM168.362 67.0586L168.39 72.2404L166.691 72.2495L166.644 63.5224L168.274 63.5136L168.282 64.934L168.39 64.9334C168.588 64.4703 168.901 64.0974 169.327 63.8148C169.757 63.5321 170.3 63.3891 170.956 63.3855C171.55 63.3823 172.072 63.5045 172.52 63.7521C172.968 63.9959 173.317 64.3615 173.566 64.8488C173.815 65.3361 173.941 65.9396 173.945 66.6593L173.975 72.2103L172.276 72.2195L172.247 66.873C172.244 66.2404 172.076 65.747 171.745 65.3927C171.413 65.0346 170.96 64.8571 170.384 64.8602C169.99 64.8623 169.64 64.9495 169.334 65.1216C169.032 65.2936 168.793 65.5449 168.617 65.8754C168.444 66.2021 168.359 66.5965 168.362 67.0586ZM184.514 63.4263L184.522 64.7899L179.755 64.8155L179.747 63.4519L184.514 63.4263ZM181.014 61.3542L182.713 61.345L182.758 69.6006C182.759 69.9301 182.81 70.178 182.909 70.3441C183.009 70.5064 183.136 70.6175 183.292 70.6773C183.451 70.7332 183.624 70.7607 183.809 70.7597C183.946 70.759 184.065 70.7489 184.167 70.7294C184.269 70.7099 184.349 70.6943 184.406 70.6827L184.72 72.0844C184.622 72.1228 184.482 72.1614 184.3 72.2003C184.118 72.2429 183.891 72.2669 183.619 72.2721C183.172 72.2821 182.755 72.2048 182.367 72.0402C181.98 71.8756 181.666 71.6197 181.426 71.2725C181.185 70.9253 181.064 70.4885 181.061 69.962L181.014 61.3542ZM186.44 72.1433L186.393 63.4162L188.092 63.407L188.139 72.1342L186.44 72.1433ZM187.244 62.065C186.949 62.0666 186.694 61.9695 186.481 61.7736C186.272 61.574 186.166 61.3359 186.165 61.0594C186.163 60.7791 186.266 60.5399 186.474 60.3418C186.685 60.1399 186.938 60.0382 187.233 60.0366C187.529 60.035 187.781 60.134 187.991 60.3337C188.204 60.5295 188.311 60.7676 188.313 61.0479C188.314 61.3244 188.209 61.5636 187.998 61.7655C187.791 61.9636 187.54 62.0634 187.244 62.065ZM190.425 72.1219L190.378 63.3948L192.008 63.386L192.016 64.8064L192.124 64.8058C192.303 64.3238 192.599 63.9472 193.01 63.6761C193.421 63.4011 193.915 63.2621 194.491 63.259C195.074 63.2559 195.563 63.3896 195.959 63.6602C196.358 63.9308 196.654 64.3042 196.846 64.7805L196.936 64.78C197.142 64.3129 197.472 63.94 197.925 63.661C198.378 63.3783 198.919 63.2352 199.547 63.2318C200.339 63.2276 200.986 63.4722 201.489 63.9657C201.995 64.4592 202.251 65.2059 202.257 66.2059L202.288 72.0581L200.589 72.0673L200.559 66.3742C200.556 65.7833 200.392 65.3561 200.069 65.0927C199.745 64.8293 199.36 64.6988 198.913 64.7012C198.36 64.7041 197.931 64.8769 197.626 65.2195C197.321 65.5582 197.17 65.9927 197.173 66.523L197.203 72.0855L195.51 72.0946L195.479 66.2935C195.476 65.82 195.326 65.4402 195.029 65.1539C194.732 64.8676 194.347 64.7257 193.874 64.7283C193.552 64.73 193.255 64.8168 192.983 64.9887C192.715 65.1568 192.498 65.391 192.333 65.6911C192.172 65.9912 192.092 66.3382 192.095 66.7322L192.124 72.1128L190.425 72.1219ZM208.327 72.2018C207.468 72.2064 206.726 72.0267 206.103 71.6626C205.483 71.2947 205.003 70.7765 204.663 70.1078C204.326 69.4354 204.155 68.6465 204.15 67.7412C204.145 66.8473 204.308 66.0585 204.637 65.3749C204.971 64.6913 205.437 64.1566 206.038 63.7708C206.642 63.385 207.349 63.1899 208.16 63.1855C208.652 63.1829 209.13 63.2617 209.593 63.4221C210.056 63.5825 210.472 63.836 210.841 64.1825C211.21 64.529 211.503 64.9801 211.718 65.5357C211.933 66.0876 212.042 66.7594 212.047 67.551L212.05 68.1533L205.113 68.1906L205.106 66.9179L210.378 66.8896C210.376 66.4426 210.283 66.0473 210.099 65.7035C209.916 65.356 209.658 65.0828 209.328 64.8838C209.001 64.6848 208.618 64.5865 208.178 64.5888C207.701 64.5914 207.285 64.7111 206.93 64.9478C206.579 65.1808 206.308 65.4853 206.117 65.8613C205.93 66.2335 205.837 66.6374 205.84 67.073L205.845 68.0674C205.848 68.6507 205.953 69.1463 206.16 69.5543C206.37 69.9623 206.662 70.2732 207.034 70.4871C207.406 70.6973 207.841 70.801 208.337 70.7983C208.659 70.7966 208.952 70.7495 209.217 70.6572C209.481 70.5611 209.71 70.4197 209.902 70.2331C210.094 70.0464 210.241 69.8165 210.342 69.5432L211.951 69.8243C211.825 70.2985 211.596 70.7145 211.265 71.0723C210.937 71.4264 210.524 71.7032 210.025 71.9029C209.529 72.0987 208.964 72.1984 208.327 72.2018Z" fill="#222222" fill-opacity="0.6"/>
<path d="M87.0889 34.9176L87.0843 33.8267C87.0829 33.5047 87.1421 33.1655 87.2618 32.8089C87.3815 32.4523 87.5486 32.1107 87.7632 31.784C87.9777 31.4574 88.2303 31.1779 88.521 30.9456L89.3644 31.5443C89.1348 31.8824 88.9393 32.2355 88.778 32.6036C88.6167 32.9717 88.5369 33.3717 88.5387 33.8035L88.5434 34.9114L87.0889 34.9176ZM89.9866 34.9054L89.982 33.8145C89.9806 33.4925 90.0398 33.1532 90.1595 32.7967C90.2792 32.4401 90.4463 32.0985 90.6609 31.7718C90.8754 31.4451 91.128 31.1657 91.4187 30.9334L92.2621 31.5321C92.0325 31.8702 91.837 32.2233 91.6757 32.5914C91.5144 32.9595 91.4346 33.3595 91.4364 33.7913L91.4411 34.8992L89.9866 34.9054ZM203.186 30.7913L203.191 31.8822C203.192 32.2042 203.133 32.5435 203.013 32.9C202.897 33.2528 202.732 33.5925 202.518 33.9192C202.303 34.2458 202.051 34.5272 201.76 34.7633L200.916 34.1646C201.139 33.8379 201.33 33.4905 201.492 33.1224C201.657 32.7542 201.738 32.3486 201.736 31.9054L201.732 30.7975L203.186 30.7913ZM206.078 30.7791L206.083 31.87C206.084 32.192 206.025 32.5313 205.905 32.8878C205.789 33.2406 205.624 33.5803 205.41 33.907C205.195 34.2336 204.943 34.515 204.652 34.7511L203.808 34.1524C204.031 33.8257 204.222 33.4783 204.384 33.1102C204.549 32.742 204.63 32.3364 204.628 31.8932L204.624 30.7853L206.078 30.7791Z" fill="#222222" fill-opacity="0.6"/>
<path d="M97.6691 40.7764L97.6318 31.9299L99.6389 31.9214L99.6762 40.7679L97.6691 40.7764ZM94.235 37.3711L94.2265 35.364L103.073 35.3267L103.081 37.3338L94.235 37.3711ZM105.446 42.8402L105.439 41.1271L109.964 36.6528C110.397 36.212 110.758 35.8206 111.046 35.4784C111.335 35.1363 111.55 34.8051 111.694 34.4849C111.838 34.1647 111.909 33.8235 111.907 33.4613C111.905 33.0479 111.81 32.6946 111.621 32.4014C111.433 32.1039 111.174 31.8749 110.845 31.7143C110.516 31.5538 110.143 31.4744 109.725 31.4762C109.295 31.478 108.918 31.5691 108.595 31.7494C108.272 31.9255 108.022 32.1758 107.844 32.5004C107.671 32.825 107.585 33.2111 107.587 33.6585L105.33 33.668C105.327 32.8371 105.513 32.114 105.89 31.4987C106.267 30.8835 106.787 30.4062 107.45 30.0667C108.118 29.7272 108.884 29.5557 109.749 29.552C110.627 29.5483 111.399 29.7091 112.065 30.0345C112.731 30.3598 113.249 30.8072 113.618 31.3766C113.991 31.9461 114.179 32.5973 114.182 33.3302C114.184 33.8203 114.092 34.3022 113.907 34.776C113.721 35.2498 113.393 35.7754 112.923 36.3526C112.456 36.9299 111.801 37.6294 110.956 38.4511L108.71 40.7554L108.71 40.8449L114.412 40.8208L114.42 42.8023L105.446 42.8402ZM118.077 42.9275C117.689 42.9292 117.356 42.7942 117.078 42.5226C116.8 42.2511 116.662 41.9193 116.665 41.5272C116.659 41.1437 116.794 40.815 117.07 40.5411C117.346 40.2672 117.677 40.1295 118.065 40.1278C118.44 40.1263 118.767 40.2612 119.045 40.5328C119.327 40.8043 119.471 41.1319 119.477 41.5154C119.474 41.7753 119.407 42.0121 119.276 42.2257C119.149 42.4393 118.979 42.6105 118.767 42.7392C118.558 42.8637 118.328 42.9265 118.077 42.9275ZM126.105 42.932C125.185 42.9359 124.366 42.7817 123.649 42.4694C122.936 42.157 122.372 41.7205 121.956 41.1597C121.54 40.599 121.318 39.95 121.289 39.2129L123.693 39.2028C123.715 39.5564 123.834 39.8649 124.048 40.1282C124.262 40.3872 124.547 40.5884 124.901 40.7318C125.255 40.8752 125.652 40.946 126.091 40.9441C126.559 40.9421 126.975 40.8594 127.336 40.696C127.698 40.5282 127.98 40.2969 128.183 40.002C128.387 39.7072 128.485 39.368 128.479 38.9845C128.482 38.5881 128.378 38.2391 128.168 37.9375C127.958 37.6358 127.655 37.4006 127.258 37.2318C126.865 37.063 126.391 36.9798 125.837 36.9821L124.681 36.987L124.673 35.1589L125.83 35.154C126.286 35.1521 126.684 35.0715 127.024 34.9124C127.369 34.7533 127.638 34.5306 127.833 34.2442C128.028 33.9536 128.122 33.6187 128.116 33.2395C128.119 32.8687 128.035 32.5474 127.863 32.2753C127.696 31.9991 127.458 31.7849 127.151 31.6328C126.848 31.4806 126.491 31.4054 126.082 31.4071C125.682 31.4088 125.311 31.4828 124.971 31.6292C124.631 31.7755 124.357 31.9833 124.149 32.2527C123.941 32.5177 123.832 32.8336 123.821 33.2001L121.539 33.2097C121.553 32.4767 121.761 31.8323 122.164 31.2767C122.57 30.7167 123.114 30.2797 123.794 29.9658C124.475 29.6476 125.239 29.4867 126.087 29.4831C126.961 29.4794 127.72 29.6403 128.365 29.9657C129.014 30.2868 129.516 30.7215 129.872 31.2697C130.228 31.8179 130.408 32.4244 130.411 33.0892C130.418 33.8264 130.203 34.4452 129.766 34.9456C129.334 35.446 128.764 35.7744 128.057 35.9308L128.058 36.0331C128.979 36.157 129.686 36.495 130.178 37.0469C130.675 37.5945 130.923 38.2774 130.922 39.0956C130.925 39.8285 130.719 40.4857 130.304 41.067C129.893 41.644 129.324 42.0981 128.596 42.4293C127.873 42.7605 127.043 42.9281 126.105 42.932ZM133.259 42.7228L133.204 29.6321L135.575 29.622L135.601 35.6369L135.76 35.6362L140.842 29.5998L143.738 29.5876L138.7 35.4832L143.838 42.6782L140.987 42.6902L137.058 37.0945L135.614 38.8137L135.63 42.7128L133.259 42.7228Z" fill="#222222"/>
<path d="M159.745 36.7929C159.751 38.0353 159.528 39.1044 159.077 40.0002C158.626 40.8923 158.006 41.5805 157.216 42.0649C156.431 42.5455 155.536 42.7879 154.532 42.7922C153.524 42.7964 152.624 42.5616 151.83 42.0877C151.04 41.6099 150.416 40.9251 149.958 40.033C149.499 39.141 149.268 38.0757 149.262 36.8371C149.257 35.5947 149.48 34.5274 149.931 33.6354C150.382 32.7395 151 32.0513 151.786 31.5707C152.575 31.0863 153.474 30.842 154.482 30.8377C155.485 30.8335 156.382 31.0702 157.172 31.548C157.966 32.0219 158.592 32.7049 159.05 33.5969C159.508 34.4851 159.74 35.5504 159.745 36.7929ZM158.007 36.8002C158.003 35.8532 157.846 35.0565 157.536 34.4101C157.231 33.7599 156.812 33.2692 156.28 32.9381C155.752 32.6032 155.155 32.4372 154.488 32.44C153.818 32.4428 153.22 32.6139 152.695 32.9532C152.17 33.2888 151.755 33.783 151.451 34.4358C151.151 35.0848 151.003 35.8828 151.007 36.8297C151.011 37.7767 151.166 38.5753 151.471 39.2255C151.781 39.8719 152.2 40.3626 152.728 40.6975C153.256 41.0286 153.855 41.1927 154.525 41.1899C155.192 41.1871 155.788 41.0179 156.313 40.6824C156.842 40.343 157.256 39.8488 157.557 39.1998C157.861 38.547 158.011 37.7471 158.007 36.8002ZM161.822 42.6023L161.786 33.8751L163.428 33.8682L163.433 35.2545L163.524 35.2542C163.682 34.7838 163.96 34.4133 164.361 34.1427C164.765 33.8682 165.223 33.7299 165.734 33.7278C165.84 33.7273 165.965 33.7306 166.109 33.7376C166.257 33.7445 166.372 33.7535 166.456 33.7645L166.462 35.3895C166.394 35.3708 166.273 35.3505 166.099 35.3285C165.924 35.3028 165.75 35.2902 165.576 35.291C165.174 35.2927 164.817 35.3794 164.503 35.5512C164.193 35.7192 163.948 35.9531 163.767 36.2531C163.587 36.5494 163.497 36.8869 163.499 37.2657L163.521 42.5952L161.822 42.6023ZM170.918 42.7344C170.214 42.7374 169.584 42.5601 169.03 42.2026C168.479 41.8413 168.045 41.3261 167.728 40.6569C167.414 39.984 167.255 39.176 167.251 38.2328C167.248 37.2896 167.401 36.4821 167.713 35.8104C168.028 35.1386 168.462 34.6235 169.013 34.2651C169.565 33.9067 170.191 33.726 170.892 33.7231C171.433 33.7208 171.869 33.8099 172.2 33.9903C172.534 34.1669 172.792 34.3741 172.975 34.612C173.162 34.8499 173.306 35.0595 173.409 35.2409L173.512 35.2404L173.493 30.9166L175.192 30.9094L175.241 42.5457L173.582 42.5527L173.577 41.1948L173.435 41.1954C173.333 41.3814 173.186 41.5941 172.994 41.8336C172.806 42.073 172.545 42.2825 172.213 42.4619C171.88 42.6413 171.449 42.7322 170.918 42.7344ZM171.287 41.284C171.776 41.2819 172.188 41.1514 172.524 40.8924C172.864 40.6296 173.12 40.2668 173.292 39.8039C173.468 39.341 173.555 38.8028 173.552 38.1892C173.55 37.5831 173.461 37.0532 173.284 36.5994C173.108 36.1456 172.851 35.7925 172.513 35.5401C172.175 35.2877 171.758 35.1626 171.261 35.1647C170.75 35.1669 170.324 35.3012 169.985 35.5678C169.645 35.8344 169.389 36.1972 169.216 36.6563C169.048 37.1153 168.965 37.6327 168.967 38.2085C168.97 38.7918 169.059 39.3161 169.235 39.7812C169.412 40.2464 169.671 40.6146 170.013 40.8859C170.359 41.1534 170.783 41.2861 171.287 41.284ZM181.428 42.6957C180.568 42.6994 179.827 42.5188 179.204 42.154C178.585 41.7854 178.106 41.2666 177.766 40.5975C177.43 39.9247 177.26 39.1356 177.256 38.2303C177.252 37.3364 177.415 36.5478 177.746 35.8646C178.08 35.1814 178.548 34.6472 179.148 34.2621C179.753 33.877 180.46 33.6827 181.271 33.6793C181.763 33.6772 182.241 33.7566 182.704 33.9175C183.166 34.0785 183.582 34.3324 183.951 34.6793C184.32 35.0263 184.612 35.4777 184.826 36.0336C185.041 36.5857 185.15 37.2576 185.153 38.0493L185.155 38.6516L178.218 38.6808L178.213 37.4081L183.485 37.3859C183.483 36.9389 183.391 36.5435 183.208 36.1995C183.024 35.8518 182.767 35.5783 182.437 35.3789C182.11 35.1795 181.727 35.0808 181.288 35.0826C180.811 35.0846 180.395 35.2038 180.04 35.4402C179.688 35.6727 179.417 35.9769 179.225 36.3527C179.037 36.7247 178.944 37.1285 178.946 37.5641L178.95 38.5584C178.953 39.1418 179.057 39.6375 179.264 40.0458C179.474 40.454 179.765 40.7652 180.137 40.9796C180.509 41.1901 180.943 41.2944 181.439 41.2923C181.761 41.2909 182.055 41.2442 182.319 41.1522C182.584 41.0564 182.813 40.9153 183.005 40.7288C183.197 40.5424 183.344 40.3126 183.445 40.0395L185.055 40.3225C184.928 40.7965 184.698 41.2122 184.367 41.5697C184.039 41.9233 183.625 42.1997 183.126 42.3988C182.63 42.5941 182.064 42.693 181.428 42.6957ZM187.057 42.4958L187.02 33.7687L188.662 33.7617L188.668 35.1481L188.759 35.1477C188.916 34.6773 189.194 34.3068 189.595 34.0362C189.999 33.7618 190.457 33.6235 190.968 33.6213C191.074 33.6209 191.199 33.6241 191.343 33.6311C191.491 33.638 191.606 33.647 191.69 33.658L191.697 35.283C191.628 35.2644 191.507 35.244 191.333 35.2221C191.158 35.1963 190.984 35.1838 190.81 35.1845C190.408 35.1862 190.051 35.2729 189.737 35.4447C189.427 35.6127 189.182 35.8467 189.001 36.1467C188.821 36.4429 188.731 36.7804 188.733 37.1592L188.755 42.4887L187.057 42.4958ZM199.709 35.8458L198.17 36.125C198.105 35.9283 198.002 35.7413 197.861 35.5638C197.724 35.3864 197.538 35.2413 197.303 35.1287C197.067 35.016 196.773 34.9605 196.421 34.9619C195.94 34.964 195.539 35.0736 195.218 35.2909C194.897 35.5044 194.737 35.7797 194.739 36.1168C194.74 36.4084 194.849 36.6428 195.065 36.82C195.282 36.9971 195.631 37.1414 196.113 37.253L197.5 37.5654C198.304 37.7476 198.904 38.031 199.299 38.4157C199.695 38.8004 199.894 39.3015 199.897 39.9189C199.899 40.4416 199.749 40.9082 199.448 41.3186C199.151 41.7251 198.733 42.0451 198.196 42.2784C197.663 42.5117 197.044 42.6298 196.34 42.6328C195.363 42.6369 194.564 42.432 193.945 42.0179C193.326 41.6001 192.945 41.0051 192.801 40.233L194.442 39.976C194.546 40.4036 194.758 40.7266 195.077 40.9449C195.396 41.1595 195.811 41.2657 196.323 41.2636C196.88 41.2612 197.324 41.1438 197.657 40.9113C197.989 40.6751 198.154 40.3884 198.153 40.0513C198.152 39.7786 198.049 39.5498 197.843 39.3651C197.642 39.1803 197.332 39.0415 196.915 38.9485L195.437 38.6309C194.621 38.4487 194.018 38.1558 193.626 37.7522C193.238 37.3485 193.043 36.8361 193.04 36.2149C193.038 35.6997 193.18 35.2484 193.466 34.8608C193.752 34.4732 194.149 34.1704 194.656 33.9523C195.162 33.7305 195.743 33.6182 196.398 33.6154C197.342 33.6115 198.085 33.8129 198.628 34.2197C199.172 34.6227 199.532 35.1647 199.709 35.8458Z" fill="#FD4A09"/>
</svg>
