<svg width="304" height="148" viewBox="0 0 304 148" fill="none" xmlns="http://www.w3.org/2000/svg">
<rect x="2.07167" y="42.271" width="289.5" height="103.5" rx="19.75" transform="rotate(-7.67389 2.07167 42.271)" fill="#FCFCFC" stroke="#DDDDDD" stroke-width="0.5"/>
<path d="M121.794 56.3946L123.632 69.3559L121.284 69.6888L119.77 59.0123L119.694 59.023L116.937 61.3895L116.632 59.2377L119.56 56.7114L121.794 56.3946ZM127.666 68.926C127.282 68.9804 126.933 68.8921 126.621 68.6609C126.308 68.4298 126.127 68.1198 126.076 67.7311C126.018 67.3519 126.107 67.0079 126.343 66.699C126.579 66.3901 126.889 66.2084 127.272 66.154C127.644 66.1013 127.986 66.1906 128.298 66.4217C128.615 66.6522 128.802 66.9571 128.86 67.3362C128.893 67.5942 128.858 67.8379 128.758 68.0674C128.661 68.2963 128.516 68.489 128.323 68.6455C128.134 68.7972 127.914 68.8907 127.666 68.926ZM131.378 68.2575L131.138 66.5614L135.012 61.5122C135.381 61.0166 135.685 60.5797 135.924 60.2015C136.163 59.8233 136.331 59.4658 136.43 59.129C136.529 58.7922 136.552 58.4445 136.502 58.0859C136.444 57.6766 136.301 57.3396 136.074 57.0748C135.847 56.8058 135.559 56.6142 135.211 56.4999C134.864 56.3856 134.483 56.3578 134.07 56.4164C133.644 56.4769 133.283 56.6184 132.987 56.8411C132.691 57.0595 132.477 57.3417 132.346 57.6874C132.218 58.0326 132.186 58.4267 132.248 58.8697L130.014 59.1865C129.898 58.3638 129.984 57.622 130.273 56.9612C130.563 56.3004 131.013 55.7567 131.624 55.33C132.239 54.9028 132.975 54.6285 133.831 54.507C134.701 54.3838 135.487 54.4379 136.191 54.6695C136.896 54.901 137.469 55.2737 137.912 55.7877C138.36 56.301 138.635 56.9205 138.738 57.6462C138.806 58.1314 138.781 58.6213 138.662 59.116C138.543 59.6106 138.289 60.1759 137.902 60.8119C137.518 61.4473 136.964 62.2296 136.24 63.1587L134.328 65.7475L134.34 65.8361L139.986 65.0356L140.264 66.9975L131.378 68.2575Z" fill="#222222"/>
<path d="M150.711 65.5161L146.982 66.045L145.348 54.5238L149.196 53.9782C150.325 53.8182 151.327 53.9113 152.202 54.2578C153.077 54.6004 153.791 55.1706 154.344 55.9683C154.901 56.7617 155.264 57.7566 155.433 58.9529C155.604 60.1531 155.53 61.2155 155.214 62.1403C154.901 63.0646 154.365 63.8177 153.606 64.3998C152.846 64.9781 151.882 65.3502 150.711 65.5161ZM148.505 64.2796L150.4 64.0108C151.278 63.8863 151.984 63.6179 152.519 63.2054C153.053 62.7892 153.419 62.2456 153.619 61.5746C153.818 60.8998 153.852 60.1068 153.723 59.1954C153.595 58.2916 153.342 57.5451 152.964 56.956C152.589 56.3664 152.096 55.9485 151.483 55.7026C150.871 55.4566 150.144 55.3932 149.304 55.5123L147.302 55.7963L148.505 64.2796ZM160.821 64.2777C160.273 64.3554 159.764 64.3243 159.293 64.1845C158.821 64.041 158.428 63.7926 158.114 63.4392C157.804 63.0853 157.608 62.6253 157.528 62.059C157.459 61.5714 157.496 61.1568 157.639 60.8152C157.781 60.4736 157.999 60.1883 158.292 59.9593C158.585 59.7303 158.921 59.5411 159.302 59.3915C159.682 59.2419 160.073 59.1137 160.475 59.007C160.984 58.8736 161.397 58.7653 161.715 58.682C162.031 58.5951 162.256 58.4962 162.39 58.3854C162.523 58.2747 162.576 58.1181 162.547 57.9155L162.541 57.8762C162.472 57.3849 162.279 57.0239 161.963 56.7932C161.651 56.562 161.223 56.4849 160.679 56.5621C160.113 56.6424 159.685 56.8313 159.394 57.1288C159.107 57.4221 158.923 57.7294 158.842 58.0507L157.21 57.9148C157.323 57.3632 157.537 56.9006 157.851 56.527C158.169 56.1491 158.553 55.8535 159.005 55.6403C159.456 55.4233 159.943 55.2778 160.464 55.2039C160.809 55.1549 161.18 55.1443 161.578 55.1721C161.98 55.1955 162.364 55.2902 162.732 55.4561C163.104 55.6215 163.426 55.8875 163.7 56.2542C163.974 56.6172 164.155 57.1137 164.244 57.7437L165.058 63.4818L163.415 63.7147L163.248 62.5334L163.18 62.5429C163.102 62.7759 162.97 63.0128 162.782 63.2536C162.594 63.4945 162.339 63.7085 162.018 63.8957C161.696 64.0828 161.297 64.2102 160.821 64.2777ZM160.995 62.8757C161.46 62.8098 161.845 62.6615 162.149 62.431C162.456 62.1999 162.675 61.924 162.806 61.6032C162.94 61.2782 162.982 60.945 162.934 60.6038L162.776 59.4899C162.725 59.5584 162.616 59.6311 162.451 59.7081C162.289 59.7808 162.102 59.8513 161.89 59.9197C161.677 59.9843 161.47 60.0462 161.268 60.1054C161.065 60.1609 160.896 60.2079 160.76 60.2463C160.44 60.3339 160.151 60.4455 159.895 60.5813C159.643 60.7166 159.449 60.8875 159.314 61.0942C159.182 61.2965 159.137 61.5477 159.179 61.8477C159.238 62.264 159.437 62.5573 159.775 62.7274C160.112 62.8938 160.519 62.9433 160.995 62.8757ZM168.512 66.2975C168.26 66.3332 168.029 66.345 167.817 66.333C167.605 66.3247 167.445 66.3053 167.338 66.2746L167.547 64.8389C167.867 64.8778 168.145 64.8746 168.384 64.8294C168.622 64.7841 168.821 64.664 168.981 64.4692C169.145 64.2738 169.271 63.9748 169.359 63.572L169.486 62.9687L165.083 54.6637L166.883 54.4084L170.022 60.8038L170.112 60.791L171.35 53.7751L173.156 53.519L170.983 63.818C170.882 64.2914 170.726 64.7019 170.515 65.0493C170.305 65.4005 170.035 65.6799 169.704 65.8874C169.374 66.0949 168.977 66.2316 168.512 66.2975ZM181.511 54.4863L180.024 54.9725C179.933 54.7865 179.805 54.6152 179.642 54.4586C179.482 54.3015 179.277 54.1832 179.029 54.1036C178.78 54.0241 178.482 54.0091 178.133 54.0585C177.657 54.1261 177.274 54.2893 176.986 54.5483C176.697 54.8035 176.576 55.098 176.623 55.4318C176.664 55.7206 176.804 55.9379 177.043 56.0839C177.282 56.2298 177.647 56.3253 178.139 56.3703L179.557 56.4907C180.378 56.5617 181.011 56.7608 181.455 57.0881C181.899 57.4153 182.165 57.8846 182.251 58.4959C182.325 59.0134 182.24 59.496 181.997 59.9436C181.758 60.3869 181.388 60.7607 180.888 61.065C180.392 61.3687 179.795 61.57 179.097 61.669C178.13 61.8062 177.311 61.7118 176.641 61.386C175.971 61.0564 175.512 60.5189 175.265 59.7735L176.856 59.2954C177.017 59.7048 177.27 59.996 177.616 60.1688C177.962 60.3379 178.388 60.3866 178.894 60.3148C179.445 60.2366 179.87 60.0597 180.167 59.7842C180.464 59.5049 180.589 59.1983 180.542 58.8645C180.503 58.5945 180.37 58.382 180.141 58.2269C179.917 58.0713 179.591 57.9759 179.165 57.9406L177.657 57.8274C176.825 57.758 176.187 57.55 175.744 57.2035C175.305 56.8564 175.041 56.3754 174.954 55.7603C174.882 55.2503 174.961 54.7838 175.192 54.3608C175.422 53.9378 175.774 53.5839 176.246 53.2988C176.718 53.01 177.278 52.8197 177.927 52.7277C178.861 52.5952 179.625 52.6935 180.218 53.0225C180.812 53.3478 181.242 53.8357 181.511 54.4863Z" fill="#FD4A09"/>
<path d="M74.9607 101.652L73.1129 101.894L75.749 89.8118L77.7601 89.5476L83.4277 100.539L81.5799 100.782L77.0778 91.769L76.9876 91.7809L74.9607 101.652ZM74.6769 97.093L80.6709 96.3056L80.8633 97.7703L74.8694 98.5577L74.6769 97.093ZM90.1396 90.8553L88.1386 99.9205L86.3359 100.157L82.0557 91.9174L83.864 91.6798L86.9302 98.0506L87.0203 98.0387L88.3313 91.0929L90.1396 90.8553ZM96.3173 99.0237C95.4648 99.1357 94.7067 99.05 94.0429 98.7666C93.3824 98.479 92.8413 98.0247 92.4197 97.4039C92.0014 96.7788 91.7333 96.0175 91.6154 95.1199C91.4989 94.2336 91.5616 93.4307 91.8032 92.7113C92.0487 91.9913 92.4451 91.4025 92.9924 90.9447C93.5434 90.4865 94.2208 90.2046 95.0245 90.099C95.5127 90.0348 95.9966 90.0534 96.476 90.1547C96.9554 90.256 97.3999 90.4555 97.8096 90.7531C98.2193 91.0508 98.5655 91.4618 98.8484 91.9863C99.1307 92.507 99.3235 93.1598 99.4266 93.9447L99.505 94.5418L92.6266 95.4455L92.4608 94.1836L97.6887 93.4968C97.6304 93.0536 97.4887 92.673 97.2636 92.3549C97.0379 92.0331 96.7486 91.7941 96.3957 91.638C96.0466 91.4814 95.6542 91.4317 95.2186 91.4889C94.7454 91.5511 94.3475 91.7218 94.0251 92.001C93.7059 92.276 93.475 92.612 93.3323 93.009C93.1929 93.4017 93.1515 93.814 93.2083 94.2459L93.3378 95.2317C93.4138 95.8101 93.5798 96.2887 93.8359 96.6677C94.0958 97.0462 94.4238 97.3183 94.8199 97.484C95.2156 97.6459 95.6594 97.6946 96.1514 97.63C96.4707 97.588 96.7558 97.5047 97.0068 97.3801C97.2574 97.2516 97.4664 97.0828 97.6337 96.8736C97.8011 96.6645 97.9177 96.418 97.9836 96.1343L99.6156 96.2121C99.5496 96.6984 99.3745 97.1397 99.0904 97.5361C98.8095 97.9283 98.4341 98.2546 97.964 98.5151C97.4972 98.7712 96.9483 98.9408 96.3173 99.0237ZM101.876 98.1158L100.739 89.4629L102.367 89.249L102.548 90.6235L102.638 90.6117C102.734 90.1253 102.964 89.7226 103.327 89.4036C103.693 89.0804 104.13 88.8855 104.637 88.8189C104.742 88.8051 104.867 88.7926 105.01 88.7813C105.158 88.7696 105.274 88.764 105.358 88.7644L105.569 90.3755C105.499 90.3656 105.376 90.3608 105.201 90.3609C105.025 90.3573 104.85 90.3669 104.677 90.3896C104.279 90.4419 103.935 90.573 103.646 90.783C103.36 90.9887 103.146 91.2517 103.005 91.5721C102.863 91.8887 102.817 92.2348 102.866 92.6103L103.56 97.8945L101.876 98.1158ZM110.43 97.1868C109.882 97.2588 109.372 97.2226 108.903 97.078C108.432 96.9297 108.042 96.6772 107.732 96.3207C107.425 95.9636 107.234 95.5016 107.16 94.9345C107.096 94.4463 107.137 94.0321 107.283 93.6919C107.429 93.3518 107.65 93.0687 107.945 92.8428C108.24 92.6168 108.579 92.431 108.961 92.2853C109.343 92.1396 109.735 92.0154 110.138 91.9128C110.648 91.7847 111.063 91.6806 111.381 91.6006C111.698 91.5168 111.924 91.4203 112.059 91.3109C112.194 91.2015 112.248 91.0454 112.221 90.8426L112.216 90.8032C112.151 90.3112 111.962 89.9483 111.649 89.7144C111.339 89.48 110.912 89.3986 110.367 89.4701C109.8 89.5446 109.37 89.7291 109.076 90.0237C108.786 90.314 108.599 90.6194 108.515 90.9399L106.884 90.7873C107.003 90.2369 107.221 89.7765 107.539 89.4061C107.861 89.0315 108.248 88.7399 108.702 88.5313C109.156 88.3189 109.644 88.1784 110.166 88.1098C110.511 88.0644 110.883 88.0576 111.281 88.0894C111.681 88.117 112.065 88.2156 112.431 88.3852C112.801 88.5544 113.121 88.8237 113.391 89.1932C113.661 89.5589 113.837 90.0573 113.92 90.6882L114.675 96.4343L113.03 96.6504L112.874 95.4674L112.807 95.4763C112.727 95.7084 112.591 95.9439 112.401 96.1829C112.211 96.4218 111.954 96.6332 111.631 96.817C111.307 97.0009 110.907 97.1242 110.43 97.1868ZM110.618 95.7867C111.084 95.7255 111.47 95.5812 111.776 95.3538C112.086 95.1258 112.308 94.8522 112.442 94.5328C112.579 94.2091 112.625 93.8764 112.58 93.5347L112.434 92.4192C112.382 92.4872 112.273 92.5589 112.107 92.6341C111.944 92.7052 111.756 92.7738 111.544 92.8399C111.33 92.9024 111.122 92.9622 110.92 93.0193C110.716 93.0728 110.547 93.118 110.41 93.155C110.089 93.2393 109.799 93.348 109.542 93.4811C109.288 93.6138 109.092 93.7828 108.955 93.988C108.821 94.189 108.774 94.4397 108.813 94.7402C108.868 95.157 109.063 95.4523 109.4 95.6259C109.735 95.7958 110.141 95.8493 110.618 95.7867ZM120.996 99.088C120.309 99.1783 119.706 99.1659 119.186 99.0508C118.67 98.9351 118.237 98.7494 117.887 98.4937C117.536 98.238 117.26 97.9437 117.06 97.6109L118.429 96.8236C118.552 96.9755 118.711 97.1323 118.904 97.2942C119.101 97.4593 119.355 97.5883 119.665 97.6812C119.979 97.7737 120.369 97.7894 120.835 97.7282C121.473 97.6443 121.98 97.4191 122.356 97.0526C122.733 96.6899 122.877 96.1705 122.788 95.4945L122.564 93.7932L122.457 93.8073C122.38 94.0046 122.26 94.2286 122.098 94.4791C121.94 94.7291 121.707 94.9584 121.398 95.1671C121.089 95.3757 120.67 95.5149 120.14 95.5844C119.457 95.6742 118.82 95.5955 118.23 95.3483C117.643 95.0969 117.149 94.6786 116.747 94.0933C116.349 93.5038 116.089 92.749 115.968 91.8289C115.847 90.9087 115.899 90.0996 116.125 89.4014C116.354 88.7027 116.72 88.1427 117.222 87.7214C117.724 87.2964 118.322 87.0382 119.017 86.9469C119.554 86.8764 120 86.9095 120.354 87.0464C120.708 87.1795 120.992 87.3522 121.207 87.5647C121.426 87.7766 121.598 87.966 121.723 88.133L121.847 88.1167L121.663 86.714L123.313 86.4971L124.475 95.3416C124.573 96.0852 124.48 96.7182 124.198 97.2405C123.915 97.7629 123.494 98.1773 122.934 98.4839C122.378 98.79 121.732 98.9913 120.996 99.088ZM120.329 94.1385C120.813 94.0748 121.208 93.9084 121.512 93.6392C121.82 93.3657 122.033 93.0054 122.15 92.5583C122.27 92.107 122.291 91.5827 122.213 90.9856C122.136 90.4035 121.982 89.9022 121.751 89.4817C121.52 89.0612 121.221 88.749 120.855 88.5451C120.487 88.3374 120.058 88.2658 119.566 88.3304C119.059 88.3971 118.653 88.584 118.35 88.8913C118.046 89.1948 117.837 89.5814 117.723 90.051C117.613 90.5202 117.594 91.0308 117.666 91.5828C117.741 92.1499 117.893 92.6362 118.122 93.0416C118.351 93.4471 118.65 93.7478 119.02 93.9437C119.393 94.1392 119.829 94.2041 120.329 94.1385ZM130.461 94.538C129.609 94.65 128.851 94.5643 128.187 94.2809C127.526 93.9933 126.985 93.539 126.564 92.9182C126.146 92.2931 125.877 91.5318 125.759 90.6342C125.643 89.7479 125.706 88.945 125.947 88.2256C126.193 87.5057 126.589 86.9168 127.136 86.4591C127.688 86.0008 128.365 85.7189 129.169 85.6133C129.657 85.5491 130.141 85.5677 130.62 85.669C131.099 85.7703 131.544 85.9698 131.954 86.2675C132.363 86.5651 132.71 86.9762 132.992 87.5006C133.275 88.0213 133.468 88.6741 133.571 89.459L133.649 90.0562L126.771 90.9598L126.605 89.6979L131.833 89.0111C131.775 88.568 131.633 88.1873 131.408 87.8693C131.182 87.5474 130.893 87.3085 130.54 87.1523C130.191 86.9957 129.798 86.946 129.363 87.0033C128.889 87.0654 128.492 87.2361 128.169 87.5154C127.85 87.7903 127.619 88.1263 127.476 88.5233C127.337 88.916 127.296 89.3283 127.352 89.7602L127.482 90.746C127.558 91.3244 127.724 91.8031 127.98 92.182C128.24 92.5605 128.568 92.8326 128.964 92.9983C129.36 93.1603 129.804 93.2089 130.296 93.1443C130.615 93.1024 130.9 93.0191 131.151 92.8944C131.402 92.766 131.61 92.5971 131.778 92.388C131.945 92.1788 132.062 91.9323 132.128 91.6486L133.76 91.7264C133.694 92.2127 133.519 92.654 133.234 93.0505C132.954 93.4427 132.578 93.769 132.108 94.0294C131.641 94.2855 131.092 94.4551 130.461 94.538ZM143.48 92.822C142.781 92.9138 142.134 92.8173 141.539 92.5325C140.947 92.2435 140.451 91.7871 140.052 91.1633C139.657 90.5353 139.397 89.7537 139.274 88.8186C139.152 87.8834 139.202 87.063 139.427 86.3573C139.655 85.6511 140.02 85.0855 140.522 84.6604C141.024 84.2354 141.622 83.9772 142.317 83.8859C142.854 83.8154 143.298 83.8488 143.648 83.9861C144.002 84.1192 144.284 84.2922 144.496 84.5051C144.711 84.7176 144.881 84.9072 145.006 85.0742L145.107 85.0609L144.544 80.7738L146.229 80.5526L147.744 92.0898L146.099 92.3059L145.922 90.9595L145.782 90.978C145.704 91.1753 145.586 91.4049 145.425 91.6667C145.268 91.9279 145.036 92.1685 144.729 92.3885C144.422 92.6084 144.005 92.7529 143.48 92.822ZM143.663 91.3366C144.147 91.273 144.54 91.0915 144.84 90.7922C145.144 90.4887 145.353 90.0965 145.465 89.6156C145.581 89.1342 145.6 88.5893 145.52 87.9809C145.441 87.38 145.285 86.8656 145.053 86.4376C144.821 86.0096 144.522 85.6918 144.154 85.4841C143.787 85.2763 143.358 85.2048 142.866 85.2694C142.359 85.336 141.953 85.523 141.65 85.8303C141.346 86.1376 141.138 86.5298 141.025 87.0069C140.916 87.4836 140.899 88.0073 140.974 88.5782C141.05 89.1565 141.204 89.6653 141.438 90.1046C141.671 90.5438 141.975 90.8764 142.348 91.1024C142.725 91.3242 143.163 91.4022 143.663 91.3366ZM153.901 91.4586C153.048 91.5706 152.29 91.485 151.626 91.2016C150.966 90.9139 150.425 90.4597 150.003 89.8389C149.585 89.2138 149.317 88.4525 149.199 87.5549C149.082 86.6686 149.145 85.8657 149.387 85.1463C149.632 84.4263 150.028 83.8375 150.576 83.3797C151.127 82.9215 151.804 82.6395 152.608 82.534C153.096 82.4698 153.58 82.4884 154.059 82.5897C154.539 82.691 154.983 82.8905 155.393 83.1881C155.803 83.4858 156.149 83.8968 156.432 84.4213C156.714 84.942 156.907 85.5948 157.01 86.3797L157.088 86.9768L150.21 87.8805L150.044 86.6186L155.272 85.9318C155.214 85.4886 155.072 85.108 154.847 84.7899C154.621 84.4681 154.332 84.2291 153.979 84.073C153.63 83.9164 153.238 83.8667 152.802 83.9239C152.329 83.9861 151.931 84.1568 151.608 84.436C151.289 84.711 151.058 85.047 150.916 85.4439C150.776 85.8367 150.735 86.249 150.792 86.6809L150.921 87.6667C150.997 88.2451 151.163 88.7237 151.419 89.1027C151.679 89.4812 152.007 89.7533 152.403 89.919C152.799 90.0809 153.243 90.1296 153.735 90.065C154.054 90.023 154.339 89.9397 154.59 89.8151C154.841 89.6866 155.05 89.5178 155.217 89.3086C155.384 89.0994 155.501 88.853 155.567 88.5693L157.199 88.6471C157.133 89.1333 156.958 89.5747 156.674 89.9711C156.393 90.3633 156.017 90.6896 155.547 90.9501C155.08 91.2062 154.532 91.3758 153.901 91.4586ZM159.628 78.7922L161.143 90.3295L159.459 90.5508L157.943 79.0135L159.628 78.7922ZM163.409 90.0318L162.273 81.3789L163.957 81.1576L165.094 89.8105L163.409 90.0318ZM162.948 79.932C162.655 79.9705 162.391 79.9059 162.155 79.7382C161.922 79.5663 161.787 79.3433 161.751 79.0691C161.715 78.7912 161.787 78.541 161.968 78.3186C162.152 78.0919 162.391 77.9593 162.684 77.9209C162.977 77.8824 163.239 77.9491 163.472 78.121C163.708 78.2887 163.844 78.5114 163.881 78.7894C163.917 79.0635 163.843 79.3139 163.659 79.5406C163.478 79.763 163.241 79.8935 162.948 79.932ZM173.625 79.8874L171.624 88.9525L169.822 89.1894L165.541 80.9494L167.35 80.7118L170.416 87.0826L170.506 87.0708L171.817 80.125L173.625 79.8874ZM179.803 88.0557C178.951 88.1677 178.192 88.082 177.529 87.7986C176.868 87.511 176.327 87.0568 175.905 86.436C175.487 85.8109 175.219 85.0495 175.101 84.152C174.985 83.2656 175.047 82.4628 175.289 81.7433C175.534 81.0234 175.931 80.4346 176.478 79.9768C177.029 79.5185 177.707 79.2366 178.51 79.131C178.998 79.0669 179.482 79.0855 179.962 79.1868C180.441 79.2881 180.886 79.4875 181.295 79.7852C181.705 80.0829 182.051 80.4939 182.334 81.0183C182.616 81.539 182.809 82.1918 182.912 82.9768L182.991 83.5739L176.112 84.4776L175.947 83.2157L181.174 82.5289C181.116 82.0857 180.974 81.7051 180.749 81.387C180.524 81.0652 180.234 80.8262 179.881 80.6701C179.532 80.5135 179.14 80.4638 178.704 80.521C178.231 80.5832 177.833 80.7539 177.511 81.0331C177.192 81.3081 176.961 81.644 176.818 82.041C176.679 82.4337 176.637 82.846 176.694 83.2779L176.824 84.2638C176.9 84.8421 177.066 85.3208 177.322 85.6998C177.581 86.0782 177.91 86.3503 178.306 86.516C178.701 86.678 179.145 86.7267 179.637 86.662C179.956 86.6201 180.242 86.5368 180.493 86.4121C180.743 86.2837 180.952 86.1149 181.119 85.9057C181.287 85.6965 181.403 85.4501 181.469 85.1663L183.101 85.2442C183.035 85.7304 182.86 86.1718 182.576 86.5682C182.295 86.9604 181.92 87.2867 181.45 87.5471C180.983 87.8033 180.434 87.9728 179.803 88.0557ZM185.361 87.1478L184.225 78.4949L185.853 78.281L186.033 79.6556L186.123 79.6437C186.22 79.1573 186.45 78.7546 186.813 78.4357C187.179 78.1125 187.616 77.9176 188.123 77.851C188.228 77.8372 188.352 77.8246 188.496 77.8134C188.644 77.8017 188.759 77.796 188.843 77.7964L189.055 79.4076C188.985 79.3977 188.862 79.3928 188.686 79.393C188.51 79.3894 188.336 79.3989 188.163 79.4216C187.765 79.4739 187.421 79.6051 187.132 79.815C186.845 80.0207 186.632 80.2838 186.49 80.6041C186.349 80.9208 186.302 81.2668 186.352 81.6424L187.046 86.9265L185.361 87.1478ZM193.204 89.4183C192.952 89.4514 192.721 89.4608 192.509 89.4467C192.297 89.4363 192.138 89.4152 192.03 89.3834L192.255 87.95C192.574 87.9921 192.852 87.9918 193.091 87.9489C193.33 87.9061 193.531 87.7881 193.692 87.5949C193.858 87.4012 193.987 87.1035 194.079 86.7017L194.212 86.0997L189.895 77.75L191.697 77.5132L194.771 83.9403L194.861 83.9285L196.17 76.9256L197.979 76.688L195.701 86.9642C195.595 87.4366 195.435 87.8454 195.22 88.1907C195.007 88.5397 194.733 88.8163 194.401 89.0204C194.069 89.2245 193.67 89.3572 193.204 89.4183ZM207.799 75.3978L207.977 76.7498L203.25 77.3708L203.073 76.0188L207.799 75.3978ZM204.068 73.7791L205.752 73.5579L206.828 81.7432C206.87 82.0699 206.952 82.3095 207.071 82.4619C207.19 82.6106 207.33 82.7049 207.492 82.7447C207.657 82.7803 207.832 82.7861 208.016 82.7619C208.151 82.7441 208.268 82.7192 208.367 82.6871C208.466 82.655 208.543 82.6296 208.598 82.6109L209.085 83.9624C208.992 84.0128 208.858 84.0686 208.683 84.1299C208.508 84.1948 208.285 84.247 208.016 84.2863C207.573 84.352 207.15 84.3274 206.745 84.2125C206.34 84.0976 205.997 83.8829 205.715 83.5685C205.433 83.254 205.258 82.8358 205.189 82.3138L204.068 73.7791ZM210.799 83.806L209.662 75.153L211.347 74.9318L212.483 83.5847L210.799 83.806ZM210.338 73.7062C210.045 73.7447 209.78 73.6801 209.544 73.5124C209.312 73.3405 209.177 73.1175 209.141 72.8433C209.105 72.5654 209.177 72.3152 209.358 72.0928C209.542 71.8661 209.78 71.7335 210.073 71.695C210.366 71.6566 210.629 71.7233 210.862 71.8952C211.098 72.0628 211.234 72.2856 211.271 72.5635C211.307 72.8377 211.232 73.0881 211.048 73.3148C210.867 73.5372 210.631 73.6677 210.338 73.7062ZM214.75 83.287L213.613 74.6341L215.23 74.4216L215.415 75.83L215.522 75.8159C215.639 75.3153 215.885 74.9048 216.26 74.5843C216.633 74.2601 217.106 74.0606 217.677 73.9856C218.255 73.9096 218.757 73.9811 219.183 74.2002C219.613 74.4188 219.953 74.7524 220.203 75.2009L220.293 75.1891C220.439 74.7 220.719 74.2888 221.134 73.9554C221.548 73.6183 222.067 73.4088 222.69 73.3269C223.475 73.2238 224.148 73.3856 224.708 73.8125C225.272 74.2388 225.62 74.9478 225.75 75.9393L226.512 81.7417L224.828 81.963L224.086 76.3183C224.009 75.7324 223.794 75.329 223.44 75.108C223.086 74.8871 222.688 74.8057 222.245 74.8639C221.696 74.936 221.292 75.161 221.032 75.5389C220.772 75.9131 220.677 76.3631 220.746 76.8889L221.47 82.404L219.791 82.6246L219.036 76.8729C218.974 76.4034 218.778 76.0452 218.448 75.7983C218.117 75.5513 217.717 75.4587 217.248 75.5204C216.929 75.5623 216.645 75.6856 216.397 75.8901C216.152 76.0904 215.966 76.3497 215.84 76.6681C215.717 76.986 215.682 77.3403 215.733 77.7308L216.434 83.0657L214.75 83.287ZM232.522 81.1298C231.669 81.2418 230.911 81.1561 230.247 80.8727C229.587 80.5851 229.046 80.1308 228.624 79.51C228.206 78.8849 227.938 78.1236 227.82 77.226C227.704 76.3397 227.766 75.5368 228.008 74.8174C228.253 74.0975 228.65 73.5086 229.197 73.0509C229.748 72.5926 230.425 72.3107 231.229 72.2051C231.717 72.1409 232.201 72.1595 232.681 72.2608C233.16 72.3621 233.605 72.5616 234.014 72.8593C234.424 73.1569 234.77 73.568 235.053 74.0924C235.335 74.6131 235.528 75.2659 235.631 76.0508L235.71 76.648L228.831 77.5516L228.665 76.2897L233.893 75.6029C233.835 75.1598 233.693 74.7791 233.468 74.4611C233.243 74.1392 232.953 73.9003 232.6 73.7441C232.251 73.5875 231.859 73.5378 231.423 73.5951C230.95 73.6572 230.552 73.8279 230.23 74.1072C229.911 74.3821 229.68 74.7181 229.537 75.1151C229.398 75.5078 229.356 75.9201 229.413 76.352L229.542 77.3378C229.618 77.9162 229.784 78.3949 230.041 78.7738C230.3 79.1523 230.628 79.4244 231.025 79.5901C231.42 79.7521 231.864 79.8007 232.356 79.7361C232.675 79.6942 232.96 79.6109 233.211 79.4862C233.462 79.3578 233.671 79.1889 233.838 78.9798C234.006 78.7706 234.122 78.5241 234.188 78.2404L235.82 78.3182C235.754 78.8045 235.579 79.2458 235.295 79.6423C235.014 80.0345 234.639 80.3608 234.169 80.6212C233.702 80.8773 233.153 81.0469 232.522 81.1298Z" fill="#222222" fill-opacity="0.6"/>
</svg>
