<svg width="313" height="44" viewBox="0 0 313 44" fill="none" xmlns="http://www.w3.org/2000/svg">
<rect x="0.25" y="0.25" width="312.5" height="43.5" rx="19.75" fill="#F6F6F6"/>
<rect x="0.25" y="0.25" width="312.5" height="43.5" rx="19.75" stroke="#D2D2D2" stroke-width="0.5"/>
<ellipse cx="32.5" cy="22" rx="8.5" ry="9" fill="#61FF56"/>
<path d="M64.064 27H60.718V16.878H64.008C67.032 16.878 69.076 18.922 69.076 21.946C69.076 24.956 67.06 27 64.064 27ZM63.91 18.138H62.09V25.726H63.966C66.22 25.726 67.648 24.27 67.648 21.946C67.648 19.594 66.22 18.138 63.91 18.138ZM73.5515 27.168C71.5355 27.168 70.1495 25.712 70.1495 23.584C70.1495 21.442 71.5075 19.958 73.4955 19.958C75.4415 19.958 76.7155 21.302 76.7155 23.332V23.822L71.4235 23.836C71.5215 25.278 72.2775 26.076 73.5795 26.076C74.6015 26.076 75.2735 25.656 75.4975 24.872H76.7295C76.3935 26.342 75.2455 27.168 73.5515 27.168ZM73.4955 21.064C72.3475 21.064 71.6195 21.75 71.4515 22.954H75.3995C75.3995 21.82 74.6575 21.064 73.4955 21.064ZM79.5294 27H78.2134V16.696H79.5294V27ZM82.1106 18.53C81.6346 18.53 81.2426 18.138 81.2426 17.662C81.2426 17.172 81.6346 16.794 82.1106 16.794C82.5866 16.794 82.9786 17.172 82.9786 17.662C82.9786 18.138 82.5866 18.53 82.1106 18.53ZM81.4666 27V20.154H82.7826V27H81.4666ZM86.6112 27L83.8532 20.154H85.2532L86.7512 23.976C86.9892 24.62 87.1852 25.194 87.2972 25.614C87.4092 25.166 87.6332 24.578 87.8712 23.976L89.3972 20.154H90.7692L87.9132 27H86.6112ZM94.4558 27.168C92.4398 27.168 91.0538 25.712 91.0538 23.584C91.0538 21.442 92.4118 19.958 94.3998 19.958C96.3458 19.958 97.6198 21.302 97.6198 23.332V23.822L92.3278 23.836C92.4258 25.278 93.1818 26.076 94.4838 26.076C95.5058 26.076 96.1778 25.656 96.4018 24.872H97.6338C97.2978 26.342 96.1498 27.168 94.4558 27.168ZM94.3998 21.064C93.2518 21.064 92.5238 21.75 92.3558 22.954H96.3038C96.3038 21.82 95.5618 21.064 94.3998 21.064ZM103.01 20.098V21.302H102.422C101.176 21.302 100.406 22.058 100.406 23.374V27H99.0897V20.168H100.322L100.406 21.204C100.686 20.49 101.372 20.014 102.31 20.014C102.548 20.014 102.744 20.042 103.01 20.098ZM108.072 30.066V20.154H109.262L109.36 21.386C109.822 20.448 110.746 19.958 111.838 19.958C113.798 19.958 115.016 21.428 115.016 23.528C115.016 25.614 113.868 27.182 111.838 27.182C110.746 27.182 109.836 26.72 109.388 25.88V30.066H108.072ZM109.402 23.584C109.402 24.984 110.214 25.992 111.558 25.992C112.902 25.992 113.7 24.984 113.7 23.584C113.7 22.17 112.902 21.162 111.558 21.162C110.214 21.162 109.402 22.156 109.402 23.584ZM118.469 27.168C116.999 27.168 116.131 26.342 116.131 25.096C116.131 23.836 117.069 23.052 118.679 22.926L120.835 22.758V22.562C120.835 21.414 120.149 21.008 119.225 21.008C118.119 21.008 117.489 21.498 117.489 22.324H116.341C116.341 20.896 117.517 19.958 119.281 19.958C120.975 19.958 122.123 20.854 122.123 22.702V27H121.003L120.863 25.894C120.513 26.678 119.575 27.168 118.469 27.168ZM118.847 26.146C120.093 26.146 120.849 25.334 120.849 24.046V23.682L119.099 23.822C117.937 23.934 117.461 24.382 117.461 25.054C117.461 25.782 117.993 26.146 118.847 26.146ZM123.497 23.584C123.497 21.442 124.855 19.958 126.857 19.958C128.579 19.958 129.783 20.938 130.021 22.464H128.705C128.481 21.596 127.781 21.134 126.899 21.134C125.653 21.134 124.799 22.086 124.799 23.57C124.799 25.04 125.597 25.992 126.843 25.992C127.781 25.992 128.481 25.502 128.719 24.69H130.035C129.769 26.174 128.495 27.168 126.843 27.168C124.827 27.168 123.497 25.74 123.497 23.584ZM132.768 27H131.452V16.696H132.768V23.374L135.806 20.154H137.458L134.84 22.884L137.444 27H135.932L133.93 23.836L132.768 25.054V27ZM140.371 27.168C138.901 27.168 138.033 26.342 138.033 25.096C138.033 23.836 138.971 23.052 140.581 22.926L142.737 22.758V22.562C142.737 21.414 142.051 21.008 141.127 21.008C140.021 21.008 139.391 21.498 139.391 22.324H138.243C138.243 20.896 139.419 19.958 141.183 19.958C142.877 19.958 144.025 20.854 144.025 22.702V27H142.905L142.765 25.894C142.415 26.678 141.477 27.168 140.371 27.168ZM140.749 26.146C141.995 26.146 142.751 25.334 142.751 24.046V23.682L141.001 23.822C139.839 23.934 139.363 24.382 139.363 25.054C139.363 25.782 139.895 26.146 140.749 26.146ZM145.414 23.402C145.414 21.47 146.66 19.958 148.648 19.958C149.754 19.958 150.608 20.462 151.042 21.316L151.14 20.154H152.316V26.72C152.316 28.876 150.986 30.248 148.886 30.248C147.024 30.248 145.75 29.198 145.498 27.462H146.814C146.982 28.47 147.738 29.058 148.886 29.058C150.174 29.058 151.014 28.218 151.014 26.916V25.544C150.566 26.342 149.67 26.818 148.592 26.818C146.646 26.818 145.414 25.32 145.414 23.402ZM146.73 23.374C146.73 24.662 147.528 25.67 148.816 25.67C150.146 25.67 150.958 24.718 150.958 23.374C150.958 22.058 150.174 21.106 148.83 21.106C147.514 21.106 146.73 22.114 146.73 23.374ZM157.169 27.168C155.153 27.168 153.767 25.712 153.767 23.584C153.767 21.442 155.125 19.958 157.113 19.958C159.059 19.958 160.333 21.302 160.333 23.332V23.822L155.041 23.836C155.139 25.278 155.895 26.076 157.197 26.076C158.219 26.076 158.891 25.656 159.115 24.872H160.347C160.011 26.342 158.863 27.168 157.169 27.168ZM157.113 21.064C155.965 21.064 155.237 21.75 155.069 22.954H159.017C159.017 21.82 158.275 21.064 157.113 21.064ZM161.243 25.012H162.503C162.503 25.712 163.035 26.132 163.903 26.132C164.827 26.132 165.359 25.754 165.359 25.124C165.359 24.662 165.135 24.382 164.421 24.2L163.217 23.92C161.999 23.626 161.425 23.024 161.425 22.016C161.425 20.756 162.489 19.958 164.001 19.958C165.499 19.958 166.479 20.798 166.507 22.1H165.247C165.219 21.414 164.757 20.98 163.959 20.98C163.133 20.98 162.671 21.344 162.671 21.974C162.671 22.436 163.007 22.744 163.679 22.912L164.883 23.206C166.045 23.486 166.619 24.018 166.619 25.04C166.619 26.342 165.499 27.168 163.875 27.168C162.265 27.168 161.243 26.314 161.243 25.012ZM173.838 27H172.522V21.26H171.178V20.154H172.522V18.012H173.838V20.154H175.182V21.26H173.838V27ZM177.679 26.986H176.363V16.696H177.679V21.204C178.113 20.462 178.939 19.958 180.003 19.958C181.753 19.958 182.593 21.064 182.593 22.814V27H181.277V23.108C181.277 21.722 180.619 21.162 179.639 21.162C178.365 21.162 177.679 22.086 177.679 23.262V26.986ZM186.418 27.168C184.948 27.168 184.08 26.342 184.08 25.096C184.08 23.836 185.018 23.052 186.628 22.926L188.784 22.758V22.562C188.784 21.414 188.098 21.008 187.174 21.008C186.068 21.008 185.438 21.498 185.438 22.324H184.29C184.29 20.896 185.466 19.958 187.23 19.958C188.924 19.958 190.072 20.854 190.072 22.702V27H188.952L188.812 25.894C188.462 26.678 187.524 27.168 186.418 27.168ZM186.796 26.146C188.042 26.146 188.798 25.334 188.798 24.046V23.682L187.048 23.822C185.886 23.934 185.41 24.382 185.41 25.054C185.41 25.782 185.942 26.146 186.796 26.146ZM193.717 27H192.401V21.26H191.057V20.154H192.401V18.012H193.717V20.154H195.061V21.26H193.717V27ZM201.386 27H200.07V20.154H201.246L201.372 21.05C201.722 20.406 202.45 19.958 203.416 19.958C204.48 19.958 205.236 20.49 205.586 21.344C205.908 20.49 206.734 19.958 207.798 19.958C209.366 19.958 210.318 20.938 210.318 22.52V27H209.03V22.842C209.03 21.764 208.428 21.148 207.504 21.148C206.51 21.148 205.852 21.848 205.852 22.94V27H204.55V22.828C204.55 21.75 203.962 21.162 203.038 21.162C202.044 21.162 201.386 21.848 201.386 22.94V27ZM214.144 27.168C212.674 27.168 211.806 26.342 211.806 25.096C211.806 23.836 212.744 23.052 214.354 22.926L216.51 22.758V22.562C216.51 21.414 215.824 21.008 214.9 21.008C213.794 21.008 213.164 21.498 213.164 22.324H212.016C212.016 20.896 213.192 19.958 214.956 19.958C216.65 19.958 217.798 20.854 217.798 22.702V27H216.678L216.538 25.894C216.188 26.678 215.25 27.168 214.144 27.168ZM214.522 26.146C215.768 26.146 216.524 25.334 216.524 24.046V23.682L214.774 23.822C213.612 23.934 213.136 24.382 213.136 25.054C213.136 25.782 213.668 26.146 214.522 26.146ZM221.444 27H220.128V21.26H218.784V20.154H220.128V18.012H221.444V20.154H222.788V21.26H221.444V27ZM226.024 27H224.708V21.26H223.364V20.154H224.708V18.012H226.024V20.154H227.368V21.26H226.024V27ZM231.434 27.168C229.418 27.168 228.032 25.712 228.032 23.584C228.032 21.442 229.39 19.958 231.378 19.958C233.324 19.958 234.598 21.302 234.598 23.332V23.822L229.306 23.836C229.404 25.278 230.16 26.076 231.462 26.076C232.484 26.076 233.156 25.656 233.38 24.872H234.612C234.276 26.342 233.128 27.168 231.434 27.168ZM231.378 21.064C230.23 21.064 229.502 21.75 229.334 22.954H233.282C233.282 21.82 232.54 21.064 231.378 21.064ZM239.988 20.098V21.302H239.4C238.154 21.302 237.384 22.058 237.384 23.374V27H236.068V20.168H237.3L237.384 21.204C237.664 20.49 238.35 20.014 239.288 20.014C239.526 20.014 239.722 20.042 239.988 20.098ZM244.603 23.57C244.603 21.456 246.115 19.972 248.173 19.972C250.217 19.972 251.729 21.456 251.729 23.57C251.729 25.684 250.217 27.168 248.173 27.168C246.115 27.168 244.603 25.684 244.603 23.57ZM245.933 23.57C245.933 24.998 246.843 25.992 248.173 25.992C249.489 25.992 250.413 24.998 250.413 23.57C250.413 22.142 249.489 21.148 248.173 21.148C246.843 21.148 245.933 22.142 245.933 23.57ZM254.501 27H253.185V20.154H254.375L254.515 21.204C254.949 20.42 255.817 19.958 256.783 19.958C258.589 19.958 259.415 21.064 259.415 22.814V27H258.099V23.108C258.099 21.722 257.455 21.162 256.447 21.162C255.215 21.162 254.501 22.044 254.501 23.374V27ZM266.998 27H265.682V21.26H264.338V20.154H265.682V18.012H266.998V20.154H268.342V21.26H266.998V27ZM270.167 18.53C269.691 18.53 269.299 18.138 269.299 17.662C269.299 17.172 269.691 16.794 270.167 16.794C270.643 16.794 271.035 17.172 271.035 17.662C271.035 18.138 270.643 18.53 270.167 18.53ZM269.523 27V20.154H270.839V27H269.523ZM274.066 27H272.75V20.154H273.926L274.052 21.05C274.402 20.406 275.13 19.958 276.096 19.958C277.16 19.958 277.916 20.49 278.266 21.344C278.588 20.49 279.414 19.958 280.478 19.958C282.046 19.958 282.998 20.938 282.998 22.52V27H281.71V22.842C281.71 21.764 281.108 21.148 280.184 21.148C279.19 21.148 278.532 21.848 278.532 22.94V27H277.23V22.828C277.23 21.75 276.642 21.162 275.718 21.162C274.724 21.162 274.066 21.848 274.066 22.94V27ZM287.776 27.168C285.76 27.168 284.374 25.712 284.374 23.584C284.374 21.442 285.732 19.958 287.72 19.958C289.666 19.958 290.94 21.302 290.94 23.332V23.822L285.648 23.836C285.746 25.278 286.502 26.076 287.804 26.076C288.826 26.076 289.498 25.656 289.722 24.872H290.954C290.618 26.342 289.47 27.168 287.776 27.168ZM287.72 21.064C286.572 21.064 285.844 21.75 285.676 22.954H289.624C289.624 21.82 288.882 21.064 287.72 21.064Z" fill="#141414" fill-opacity="0.65"/>
</svg>
