<svg width="693" height="307" viewBox="0 0 693 307" fill="none" xmlns="http://www.w3.org/2000/svg">
<rect width="693" height="307" rx="20" fill="#EEEEEE" fill-opacity="0.5"/>
<path fill-rule="evenodd" clip-rule="evenodd" d="M270.958 91.4492C263.087 91.4492 255.539 94.5759 249.973 100.141C244.408 105.707 241.281 113.255 241.281 121.126V218.251C241.281 226.122 244.408 233.671 249.973 239.236C255.539 244.802 263.087 247.928 270.958 247.928H422.042C429.913 247.928 437.461 244.802 443.027 239.236C448.592 233.671 451.719 226.122 451.719 218.251V121.126C451.719 113.255 448.592 105.707 443.027 100.141C437.461 94.5759 429.913 91.4492 422.042 91.4492H270.958ZM395.062 156.199C391.485 156.199 388.054 157.62 385.524 160.15C382.994 162.68 381.573 166.111 381.573 169.689C381.573 173.266 382.994 176.698 385.524 179.227C388.054 181.757 391.485 183.178 395.062 183.178C398.64 183.178 402.071 181.757 404.601 179.227C407.131 176.698 408.552 173.266 408.552 169.689C408.552 166.111 407.131 162.68 404.601 160.15C402.071 157.62 398.64 156.199 395.062 156.199Z" fill="#C4C4C4"/>
<path d="M394.901 57.1204C398.096 56.2689 401.444 56.163 404.687 56.8108C407.929 57.4586 410.98 58.8428 413.602 60.8566C416.225 62.8703 418.35 65.4598 419.814 68.4252C421.277 71.3905 422.039 74.6524 422.042 77.9591H314.125L394.901 57.1204Z" fill="#C4C4C4"/>
</svg>
