<svg width="326" height="228" viewBox="0 0 326 228" fill="none" xmlns="http://www.w3.org/2000/svg">
<rect width="326" height="228" rx="20" fill="#EEEEEE" fill-opacity="0.5"/>
<path fill-rule="evenodd" clip-rule="evenodd" d="M120.417 51.0215C115.98 51.0215 111.725 52.784 108.587 55.9213C105.45 59.0587 103.688 63.3138 103.688 67.7507V122.501C103.688 126.938 105.45 131.193 108.587 134.33C111.725 137.467 115.98 139.23 120.417 139.23H205.583C210.02 139.23 214.275 137.467 217.413 134.33C220.55 131.193 222.312 126.938 222.312 122.501V67.7507C222.312 63.3138 220.55 59.0587 217.413 55.9213C214.275 52.784 210.02 51.0215 205.583 51.0215H120.417ZM190.375 87.5215C188.358 87.5215 186.424 88.3226 184.998 89.7487C183.572 91.1748 182.771 93.1089 182.771 95.1257C182.771 97.1424 183.572 99.0766 184.998 100.503C186.424 101.929 188.358 102.73 190.375 102.73C192.392 102.73 194.326 101.929 195.752 100.503C197.178 99.0766 197.979 97.1424 197.979 95.1257C197.979 93.1089 197.178 91.1748 195.752 89.7487C194.326 88.3226 192.392 87.5215 190.375 87.5215Z" fill="#C4C4C4"/>
<path d="M190.284 31.67C192.085 31.1901 193.972 31.1304 195.8 31.4955C197.628 31.8607 199.348 32.641 200.826 33.7761C202.305 34.9113 203.502 36.371 204.327 38.0426C205.152 39.7142 205.582 41.5529 205.583 43.417H144.75L190.284 31.67Z" fill="#C4C4C4"/>
<path d="M93.3082 162.818H95.3913L97.8821 167.322H97.9815L100.472 162.818H102.555L98.8516 169.202V173H97.0121V169.202L93.3082 162.818ZM105.691 173.149C104.945 173.149 104.299 172.985 103.752 172.657C103.205 172.329 102.781 171.87 102.48 171.28C102.181 170.69 102.032 170 102.032 169.212C102.032 168.423 102.181 167.732 102.48 167.138C102.781 166.545 103.205 166.085 103.752 165.756C104.299 165.428 104.945 165.264 105.691 165.264C106.437 165.264 107.083 165.428 107.63 165.756C108.177 166.085 108.6 166.545 108.898 167.138C109.2 167.732 109.35 168.423 109.35 169.212C109.35 170 109.2 170.69 108.898 171.28C108.6 171.87 108.177 172.329 107.63 172.657C107.083 172.985 106.437 173.149 105.691 173.149ZM105.701 171.707C106.106 171.707 106.444 171.596 106.715 171.374C106.987 171.149 107.189 170.847 107.322 170.469C107.458 170.092 107.526 169.671 107.526 169.207C107.526 168.739 107.458 168.317 107.322 167.939C107.189 167.558 106.987 167.254 106.715 167.029C106.444 166.804 106.106 166.691 105.701 166.691C105.287 166.691 104.942 166.804 104.667 167.029C104.395 167.254 104.191 167.558 104.056 167.939C103.923 168.317 103.857 168.739 103.857 169.207C103.857 169.671 103.923 170.092 104.056 170.469C104.191 170.847 104.395 171.149 104.667 171.374C104.942 171.596 105.287 171.707 105.701 171.707ZM115.745 169.788V165.364H117.545V173H115.8V171.643H115.72C115.548 172.07 115.264 172.42 114.87 172.692C114.479 172.964 113.997 173.099 113.423 173.099C112.923 173.099 112.48 172.988 112.096 172.766C111.715 172.541 111.416 172.214 111.201 171.787C110.986 171.356 110.878 170.836 110.878 170.226V165.364H112.678V169.947C112.678 170.431 112.81 170.816 113.075 171.101C113.34 171.386 113.688 171.528 114.119 171.528C114.384 171.528 114.641 171.464 114.89 171.335C115.138 171.205 115.342 171.013 115.501 170.758C115.664 170.499 115.745 170.176 115.745 169.788ZM119.395 173V165.364H121.14V166.636H121.22C121.359 166.196 121.598 165.856 121.936 165.617C122.277 165.375 122.667 165.254 123.104 165.254C123.204 165.254 123.315 165.259 123.437 165.269C123.563 165.276 123.668 165.287 123.751 165.304V166.96C123.674 166.933 123.553 166.91 123.388 166.89C123.225 166.867 123.068 166.855 122.915 166.855C122.587 166.855 122.292 166.926 122.03 167.069C121.772 167.208 121.568 167.402 121.419 167.651C121.27 167.899 121.195 168.186 121.195 168.511V173H119.395ZM130.641 173L127.768 162.818H129.751L131.586 170.3H131.68L133.639 162.818H135.444L137.407 170.305H137.497L139.331 162.818H141.315L138.442 173H136.622L134.584 165.856H134.504L132.461 173H130.641ZM143.933 173.154C143.449 173.154 143.013 173.068 142.625 172.896C142.241 172.72 141.936 172.461 141.71 172.12C141.488 171.779 141.377 171.358 141.377 170.857C141.377 170.426 141.457 170.07 141.616 169.788C141.775 169.507 141.992 169.281 142.267 169.112C142.542 168.943 142.852 168.816 143.197 168.729C143.545 168.64 143.905 168.575 144.276 168.536C144.723 168.489 145.086 168.448 145.365 168.411C145.643 168.371 145.845 168.312 145.971 168.232C146.1 168.149 146.165 168.022 146.165 167.849V167.82C146.165 167.445 146.054 167.155 145.832 166.95C145.61 166.744 145.29 166.641 144.872 166.641C144.432 166.641 144.082 166.737 143.823 166.93C143.568 167.122 143.396 167.349 143.306 167.611L141.626 167.372C141.758 166.908 141.977 166.52 142.282 166.209C142.587 165.894 142.96 165.659 143.401 165.503C143.842 165.344 144.329 165.264 144.862 165.264C145.23 165.264 145.597 165.307 145.961 165.393C146.326 165.48 146.659 165.622 146.96 165.821C147.262 166.017 147.504 166.283 147.686 166.621C147.872 166.96 147.965 167.382 147.965 167.889V173H146.235V171.951H146.175C146.066 172.163 145.911 172.362 145.713 172.548C145.517 172.73 145.27 172.877 144.972 172.99C144.677 173.099 144.33 173.154 143.933 173.154ZM144.4 171.832C144.761 171.832 145.075 171.76 145.34 171.618C145.605 171.472 145.809 171.28 145.951 171.041C146.097 170.803 146.17 170.542 146.17 170.261V169.361C146.114 169.407 146.017 169.45 145.882 169.49C145.749 169.53 145.6 169.565 145.434 169.594C145.268 169.624 145.104 169.651 144.942 169.674C144.78 169.697 144.639 169.717 144.519 169.734C144.251 169.77 144.011 169.83 143.798 169.913C143.586 169.996 143.419 170.112 143.296 170.261C143.174 170.406 143.112 170.595 143.112 170.827C143.112 171.159 143.233 171.409 143.475 171.578C143.717 171.747 144.026 171.832 144.4 171.832ZM151.574 162.818V173H149.774V162.818H151.574ZM155.224 162.818V173H153.425V162.818H155.224ZM160.456 173.149C159.69 173.149 159.029 172.99 158.472 172.672C157.919 172.35 157.493 171.896 157.194 171.31C156.896 170.72 156.747 170.025 156.747 169.227C156.747 168.441 156.896 167.752 157.194 167.158C157.496 166.562 157.917 166.098 158.457 165.766C158.997 165.432 159.632 165.264 160.361 165.264C160.832 165.264 161.276 165.34 161.694 165.493C162.115 165.642 162.486 165.874 162.807 166.189C163.132 166.504 163.387 166.905 163.573 167.392C163.759 167.876 163.851 168.453 163.851 169.122V169.674H157.592V168.461H162.126C162.123 168.116 162.048 167.81 161.903 167.541C161.757 167.269 161.553 167.056 161.291 166.9C161.032 166.744 160.731 166.666 160.386 166.666C160.018 166.666 159.695 166.756 159.417 166.935C159.138 167.11 158.921 167.342 158.765 167.631C158.613 167.916 158.535 168.229 158.532 168.57V169.629C158.532 170.073 158.613 170.455 158.775 170.773C158.938 171.088 159.165 171.33 159.456 171.499C159.748 171.664 160.09 171.747 160.481 171.747C160.742 171.747 160.979 171.711 161.192 171.638C161.404 171.562 161.588 171.451 161.743 171.305C161.899 171.159 162.017 170.978 162.096 170.763L163.777 170.952C163.671 171.396 163.469 171.784 163.17 172.115C162.875 172.443 162.497 172.698 162.037 172.881C161.576 173.06 161.049 173.149 160.456 173.149ZM169.187 165.364V166.756H164.797V165.364H169.187ZM165.881 163.534H167.681V170.703C167.681 170.945 167.717 171.131 167.79 171.26C167.866 171.386 167.966 171.472 168.088 171.518C168.211 171.565 168.347 171.588 168.496 171.588C168.609 171.588 168.712 171.58 168.804 171.563C168.9 171.547 168.973 171.532 169.023 171.518L169.326 172.925C169.23 172.959 169.093 172.995 168.914 173.035C168.738 173.075 168.523 173.098 168.267 173.104C167.817 173.118 167.411 173.05 167.049 172.901C166.688 172.748 166.401 172.513 166.189 172.195C165.98 171.876 165.878 171.479 165.881 171.001V163.534ZM174.165 173V165.364H175.965V173H174.165ZM175.07 164.28C174.785 164.28 174.539 164.185 174.334 163.996C174.128 163.804 174.026 163.574 174.026 163.305C174.026 163.034 174.128 162.803 174.334 162.614C174.539 162.422 174.785 162.326 175.07 162.326C175.358 162.326 175.603 162.422 175.806 162.614C176.011 162.803 176.114 163.034 176.114 163.305C176.114 163.574 176.011 163.804 175.806 163.996C175.603 164.185 175.358 164.28 175.07 164.28ZM183.851 167.382L182.21 167.561C182.164 167.395 182.083 167.24 181.967 167.094C181.854 166.948 181.701 166.83 181.509 166.741C181.317 166.651 181.082 166.607 180.803 166.607C180.429 166.607 180.114 166.688 179.859 166.85C179.607 167.013 179.482 167.223 179.486 167.482C179.482 167.704 179.564 167.884 179.729 168.023C179.898 168.163 180.177 168.277 180.565 168.366L181.867 168.645C182.59 168.801 183.127 169.048 183.478 169.386C183.833 169.724 184.012 170.166 184.015 170.713C184.012 171.194 183.871 171.618 183.592 171.986C183.317 172.35 182.934 172.635 182.444 172.841C181.953 173.046 181.39 173.149 180.754 173.149C179.819 173.149 179.067 172.954 178.496 172.562C177.926 172.168 177.587 171.62 177.477 170.917L179.232 170.748C179.312 171.093 179.481 171.353 179.739 171.528C179.998 171.704 180.334 171.792 180.749 171.792C181.176 171.792 181.519 171.704 181.778 171.528C182.04 171.353 182.17 171.136 182.17 170.877C182.17 170.658 182.086 170.478 181.917 170.335C181.751 170.193 181.493 170.083 181.141 170.007L179.839 169.734C179.106 169.581 178.564 169.324 178.213 168.963C177.862 168.598 177.688 168.138 177.691 167.581C177.688 167.11 177.815 166.703 178.074 166.358C178.336 166.01 178.699 165.741 179.163 165.553C179.63 165.36 180.169 165.264 180.778 165.264C181.673 165.264 182.378 165.455 182.891 165.836C183.408 166.217 183.728 166.732 183.851 167.382ZM189.051 173V162.818H195.673V164.364H190.896V167.129H195.33V168.675H190.896V171.454H195.713V173H189.051ZM197.475 173V165.364H199.196V166.661H199.285C199.444 166.224 199.708 165.882 200.076 165.637C200.444 165.388 200.883 165.264 201.393 165.264C201.91 165.264 202.346 165.39 202.701 165.642C203.059 165.891 203.31 166.23 203.456 166.661H203.536C203.705 166.237 203.99 165.899 204.391 165.647C204.795 165.392 205.274 165.264 205.828 165.264C206.53 165.264 207.104 165.486 207.548 165.93C207.992 166.375 208.214 167.022 208.214 167.874V173H206.409V168.153C206.409 167.679 206.283 167.332 206.032 167.114C205.78 166.892 205.471 166.781 205.107 166.781C204.673 166.781 204.333 166.916 204.088 167.188C203.846 167.457 203.725 167.806 203.725 168.237V173H201.96V168.078C201.96 167.684 201.841 167.369 201.602 167.134C201.367 166.898 201.058 166.781 200.677 166.781C200.419 166.781 200.183 166.847 199.971 166.979C199.759 167.109 199.59 167.293 199.464 167.531C199.338 167.767 199.275 168.042 199.275 168.357V173H197.475ZM210.04 175.864V165.364H211.81V166.626H211.914C212.007 166.441 212.138 166.244 212.307 166.035C212.476 165.823 212.705 165.642 212.993 165.493C213.281 165.34 213.649 165.264 214.097 165.264C214.687 165.264 215.219 165.415 215.693 165.717C216.17 166.015 216.548 166.457 216.826 167.044C217.108 167.627 217.249 168.343 217.249 169.192C217.249 170.03 217.111 170.743 216.836 171.33C216.561 171.916 216.186 172.364 215.713 172.672C215.239 172.98 214.702 173.134 214.102 173.134C213.664 173.134 213.301 173.061 213.013 172.915C212.725 172.77 212.493 172.594 212.317 172.388C212.145 172.18 212.01 171.982 211.914 171.797H211.84V175.864H210.04ZM211.805 169.182C211.805 169.676 211.874 170.108 212.014 170.479C212.156 170.851 212.36 171.141 212.625 171.349C212.894 171.555 213.218 171.658 213.6 171.658C213.997 171.658 214.33 171.552 214.599 171.339C214.867 171.124 215.07 170.831 215.205 170.46C215.345 170.085 215.414 169.659 215.414 169.182C215.414 168.708 215.346 168.287 215.21 167.919C215.075 167.551 214.872 167.263 214.604 167.054C214.335 166.845 214.001 166.741 213.6 166.741C213.215 166.741 212.889 166.842 212.62 167.044C212.352 167.246 212.148 167.53 212.009 167.894C211.873 168.259 211.805 168.688 211.805 169.182ZM222.603 165.364V166.756H218.213V165.364H222.603ZM219.297 163.534H221.097V170.703C221.097 170.945 221.133 171.131 221.206 171.26C221.282 171.386 221.382 171.472 221.504 171.518C221.627 171.565 221.763 171.588 221.912 171.588C222.025 171.588 222.128 171.58 222.22 171.563C222.316 171.547 222.389 171.532 222.439 171.518L222.742 172.925C222.646 172.959 222.509 172.995 222.33 173.035C222.154 173.075 221.939 173.098 221.683 173.104C221.233 173.118 220.827 173.05 220.465 172.901C220.104 172.748 219.817 172.513 219.605 172.195C219.396 171.876 219.294 171.479 219.297 171.001V163.534ZM225.227 175.864C224.982 175.864 224.755 175.844 224.546 175.804C224.34 175.768 224.176 175.724 224.054 175.675L224.471 174.273C224.733 174.349 224.967 174.385 225.172 174.382C225.378 174.379 225.558 174.314 225.714 174.188C225.873 174.066 226.007 173.86 226.117 173.572L226.271 173.159L223.502 165.364H225.411L227.171 171.131H227.25L229.015 165.364H230.929L227.872 173.925C227.729 174.329 227.54 174.675 227.305 174.964C227.07 175.255 226.781 175.478 226.44 175.63C226.102 175.786 225.698 175.864 225.227 175.864Z" fill="#222222"/>
<path d="M29.6719 187.493C29.6188 187.022 29.4001 186.658 29.0156 186.399C28.6312 186.137 28.1473 186.006 27.5639 186.006C27.1463 186.006 26.785 186.073 26.4801 186.205C26.1752 186.335 25.9382 186.513 25.7692 186.742C25.6035 186.968 25.5206 187.224 25.5206 187.513C25.5206 187.755 25.5769 187.964 25.6896 188.139C25.8056 188.315 25.9564 188.462 26.142 188.582C26.331 188.698 26.5331 188.795 26.7486 188.875C26.964 188.951 27.1712 189.014 27.37 189.064L28.3643 189.322C28.6892 189.402 29.0223 189.51 29.3636 189.646C29.705 189.781 30.0215 189.96 30.3132 190.183C30.6049 190.405 30.8402 190.68 31.0192 191.008C31.2015 191.336 31.2926 191.729 31.2926 192.186C31.2926 192.763 31.1435 193.275 30.8452 193.722C30.5502 194.17 30.121 194.523 29.5575 194.781C28.9974 195.04 28.3196 195.169 27.5241 195.169C26.7618 195.169 26.1023 195.048 25.5455 194.806C24.9886 194.564 24.5528 194.221 24.2379 193.777C23.9231 193.33 23.7491 192.799 23.7159 192.186H25.2571C25.2869 192.554 25.4063 192.861 25.6151 193.106C25.8272 193.348 26.0973 193.528 26.4254 193.648C26.7569 193.764 27.1198 193.822 27.5142 193.822C27.9484 193.822 28.3345 193.754 28.6726 193.618C29.014 193.479 29.2824 193.286 29.478 193.041C29.6735 192.793 29.7713 192.503 29.7713 192.171C29.7713 191.87 29.6851 191.623 29.5128 191.43C29.3438 191.238 29.1134 191.079 28.8217 190.953C28.5334 190.827 28.2069 190.716 27.8423 190.62L26.6392 190.292C25.8239 190.07 25.1776 189.743 24.7003 189.312C24.2263 188.882 23.9893 188.312 23.9893 187.602C23.9893 187.016 24.1484 186.504 24.4666 186.066C24.7848 185.629 25.2157 185.289 25.7592 185.047C26.3028 184.802 26.916 184.679 27.5987 184.679C28.2881 184.679 28.8963 184.8 29.4233 185.042C29.9536 185.284 30.3712 185.617 30.6761 186.041C30.9811 186.462 31.1402 186.946 31.1534 187.493H29.6719ZM36.5737 187.364V188.557H32.4025V187.364H36.5737ZM33.5211 185.534H35.0076V192.758C35.0076 193.046 35.0507 193.263 35.1369 193.409C35.2231 193.552 35.3341 193.649 35.47 193.702C35.6092 193.752 35.76 193.777 35.9224 193.777C36.0417 193.777 36.1461 193.769 36.2356 193.752C36.3251 193.736 36.3947 193.722 36.4444 193.712L36.7129 194.94C36.6267 194.973 36.5041 195.007 36.345 195.04C36.1859 195.076 35.987 195.096 35.7484 195.099C35.3573 195.106 34.9927 195.036 34.6547 194.891C34.3166 194.745 34.0431 194.519 33.8343 194.214C33.6255 193.91 33.5211 193.527 33.5211 193.066V185.534ZM40.4403 195.169C39.9564 195.169 39.5189 195.08 39.1278 194.901C38.7367 194.718 38.4268 194.455 38.1982 194.11C37.9728 193.765 37.8601 193.343 37.8601 192.842C37.8601 192.411 37.9429 192.057 38.1087 191.778C38.2744 191.5 38.4981 191.28 38.7798 191.117C39.0616 190.955 39.3764 190.832 39.7244 190.749C40.0724 190.666 40.4271 190.603 40.7884 190.56C41.2457 190.507 41.617 190.464 41.902 190.431C42.187 190.395 42.3942 190.337 42.5234 190.257C42.6527 190.178 42.7173 190.048 42.7173 189.869V189.835C42.7173 189.4 42.5947 189.064 42.3494 188.825C42.1075 188.587 41.7462 188.467 41.2656 188.467C40.7652 188.467 40.3707 188.578 40.0824 188.8C39.7973 189.019 39.6001 189.263 39.4908 189.531L38.0938 189.213C38.2595 188.749 38.5014 188.375 38.8196 188.089C39.1411 187.801 39.5107 187.592 39.9283 187.463C40.3459 187.33 40.785 187.264 41.2457 187.264C41.5507 187.264 41.8738 187.301 42.2152 187.374C42.5599 187.443 42.8814 187.572 43.1797 187.761C43.4813 187.95 43.7282 188.22 43.9205 188.572C44.1127 188.92 44.2088 189.372 44.2088 189.929V195H42.7571V193.956H42.6974C42.6013 194.148 42.4571 194.337 42.2649 194.523C42.0727 194.708 41.8258 194.862 41.5241 194.985C41.2225 195.108 40.8613 195.169 40.4403 195.169ZM40.7635 193.976C41.1745 193.976 41.5258 193.895 41.8175 193.732C42.1125 193.57 42.3362 193.358 42.4886 193.096C42.6444 192.831 42.7223 192.547 42.7223 192.246V191.261C42.6693 191.314 42.5665 191.364 42.4141 191.411C42.2649 191.454 42.0942 191.492 41.902 191.525C41.7098 191.555 41.5225 191.583 41.3402 191.609C41.1579 191.633 41.0054 191.652 40.8828 191.669C40.5945 191.705 40.331 191.767 40.0923 191.853C39.857 191.939 39.6681 192.063 39.5256 192.226C39.3864 192.385 39.3168 192.597 39.3168 192.862C39.3168 193.23 39.4527 193.509 39.7244 193.697C39.9962 193.883 40.3426 193.976 40.7635 193.976ZM46.1887 195V187.364H47.6255V188.577H47.7051C47.8443 188.166 48.0895 187.843 48.4409 187.607C48.7955 187.369 49.1966 187.249 49.644 187.249C49.7368 187.249 49.8462 187.253 49.9721 187.259C50.1014 187.266 50.2025 187.274 50.2754 187.284V188.706C50.2157 188.689 50.1097 188.671 49.9572 188.651C49.8047 188.628 49.6523 188.616 49.4998 188.616C49.1485 188.616 48.8353 188.691 48.5602 188.84C48.2884 188.986 48.073 189.19 47.9139 189.452C47.7548 189.71 47.6752 190.005 47.6752 190.337V195H46.1887ZM55.5776 187.364V188.557H51.4064V187.364H55.5776ZM52.525 185.534H54.0115V192.758C54.0115 193.046 54.0546 193.263 54.1408 193.409C54.227 193.552 54.338 193.649 54.4739 193.702C54.6131 193.752 54.7639 193.777 54.9263 193.777C55.0456 193.777 55.15 193.769 55.2395 193.752C55.329 193.736 55.3986 193.722 55.4483 193.712L55.7168 194.94C55.6306 194.973 55.508 195.007 55.3489 195.04C55.1898 195.076 54.9909 195.096 54.7523 195.099C54.3612 195.106 53.9966 195.036 53.6586 194.891C53.3205 194.745 53.0471 194.519 52.8382 194.214C52.6294 193.91 52.525 193.527 52.525 193.066V185.534ZM61.0463 195V184.818H62.5328V188.602H62.6223C62.7085 188.442 62.8328 188.259 62.9952 188.05C63.1576 187.841 63.383 187.659 63.6713 187.503C63.9597 187.344 64.3409 187.264 64.8148 187.264C65.4313 187.264 65.9815 187.42 66.4654 187.732C66.9493 188.043 67.3288 188.492 67.6039 189.079C67.8823 189.665 68.0215 190.371 68.0215 191.197C68.0215 192.022 67.8839 192.73 67.6088 193.32C67.3337 193.906 66.9559 194.359 66.4753 194.677C65.9947 194.992 65.4462 195.149 64.8297 195.149C64.3657 195.149 63.9862 195.071 63.6912 194.915C63.3996 194.76 63.1709 194.577 63.0051 194.369C62.8394 194.16 62.7118 193.974 62.6223 193.812H62.498V195H61.0463ZM62.503 191.182C62.503 191.719 62.5809 192.189 62.7367 192.594C62.8925 192.998 63.1178 193.315 63.4128 193.543C63.7078 193.769 64.0691 193.881 64.4966 193.881C64.9408 193.881 65.312 193.764 65.6103 193.528C65.9086 193.29 66.1339 192.967 66.2864 192.559C66.4422 192.151 66.5201 191.692 66.5201 191.182C66.5201 190.678 66.4438 190.226 66.2914 189.825C66.1422 189.424 65.9168 189.107 65.6152 188.875C65.3169 188.643 64.9441 188.527 64.4966 188.527C64.0658 188.527 63.7012 188.638 63.4029 188.86C63.1079 189.082 62.8842 189.392 62.7317 189.79C62.5792 190.187 62.503 190.652 62.503 191.182ZM70.3706 197.864C70.1485 197.864 69.9463 197.845 69.764 197.809C69.5817 197.776 69.4458 197.739 69.3564 197.7L69.7143 196.482C69.9861 196.554 70.228 196.586 70.4402 196.576C70.6523 196.566 70.8395 196.487 71.002 196.337C71.1677 196.188 71.3135 195.945 71.4395 195.607L71.6234 195.099L68.8294 187.364H70.4203L72.3542 193.29H72.4338L74.3677 187.364H75.9636L72.8166 196.019C72.6708 196.417 72.4851 196.753 72.2598 197.028C72.0344 197.307 71.7659 197.516 71.4544 197.655C71.1428 197.794 70.7815 197.864 70.3706 197.864ZM83.288 195.169C82.8041 195.169 82.3666 195.08 81.9755 194.901C81.5844 194.718 81.2745 194.455 81.0458 194.11C80.8204 193.765 80.7077 193.343 80.7077 192.842C80.7077 192.411 80.7906 192.057 80.9563 191.778C81.122 191.5 81.3458 191.28 81.6275 191.117C81.9092 190.955 82.2241 190.832 82.5721 190.749C82.9201 190.666 83.2747 190.603 83.636 190.56C84.0934 190.507 84.4646 190.464 84.7496 190.431C85.0347 190.395 85.2418 190.337 85.3711 190.257C85.5004 190.178 85.565 190.048 85.565 189.869V189.835C85.565 189.4 85.4424 189.064 85.1971 188.825C84.9551 188.587 84.5939 188.467 84.1133 188.467C83.6128 188.467 83.2184 188.578 82.93 188.8C82.645 189.019 82.4478 189.263 82.3384 189.531L80.9414 189.213C81.1071 188.749 81.3491 188.375 81.6673 188.089C81.9888 187.801 82.3583 187.592 82.7759 187.463C83.1935 187.33 83.6327 187.264 84.0934 187.264C84.3983 187.264 84.7215 187.301 85.0629 187.374C85.4076 187.443 85.729 187.572 86.0273 187.761C86.329 187.95 86.5759 188.22 86.7681 188.572C86.9603 188.92 87.0565 189.372 87.0565 189.929V195H85.6048V193.956H85.5451C85.449 194.148 85.3048 194.337 85.1126 194.523C84.9203 194.708 84.6734 194.862 84.3718 194.985C84.0702 195.108 83.7089 195.169 83.288 195.169ZM83.6112 193.976C84.0221 193.976 84.3735 193.895 84.6651 193.732C84.9601 193.57 85.1838 193.358 85.3363 193.096C85.4921 192.831 85.57 192.547 85.57 192.246V191.261C85.5169 191.314 85.4142 191.364 85.2617 191.411C85.1126 191.454 84.9419 191.492 84.7496 191.525C84.5574 191.555 84.3701 191.583 84.1879 191.609C84.0056 191.633 83.8531 191.652 83.7305 191.669C83.4421 191.705 83.1786 191.767 82.94 191.853C82.7047 191.939 82.5157 192.063 82.3732 192.226C82.234 192.385 82.1644 192.597 82.1644 192.862C82.1644 193.23 82.3003 193.509 82.5721 193.697C82.8439 193.883 83.1902 193.976 83.6112 193.976ZM91.8951 195.149C91.2786 195.149 90.7284 194.992 90.2445 194.677C89.7639 194.359 89.3861 193.906 89.111 193.32C88.8392 192.73 88.7033 192.022 88.7033 191.197C88.7033 190.371 88.8408 189.665 89.1159 189.079C89.3944 188.492 89.7755 188.043 90.2594 187.732C90.7433 187.42 91.2918 187.264 91.905 187.264C92.379 187.264 92.7601 187.344 93.0485 187.503C93.3401 187.659 93.5655 187.841 93.7246 188.05C93.887 188.259 94.013 188.442 94.1025 188.602H94.1919V184.818H95.6784V195H94.2267V193.812H94.1025C94.013 193.974 93.8837 194.16 93.7147 194.369C93.5489 194.577 93.3203 194.76 93.0286 194.915C92.7369 195.071 92.3591 195.149 91.8951 195.149ZM92.2232 193.881C92.6507 193.881 93.012 193.769 93.307 193.543C93.6053 193.315 93.8307 192.998 93.9831 192.594C94.1389 192.189 94.2168 191.719 94.2168 191.182C94.2168 190.652 94.1406 190.187 93.9881 189.79C93.8356 189.392 93.6119 189.082 93.3169 188.86C93.022 188.638 92.6574 188.527 92.2232 188.527C91.7757 188.527 91.4029 188.643 91.1046 188.875C90.8063 189.107 90.5809 189.424 90.4284 189.825C90.2793 190.226 90.2047 190.678 90.2047 191.182C90.2047 191.692 90.281 192.151 90.4334 192.559C90.5859 192.967 90.8113 193.29 91.1096 193.528C91.4112 193.764 91.7824 193.881 92.2232 193.881ZM100.659 195.149C100.042 195.149 99.4921 194.992 99.0082 194.677C98.5276 194.359 98.1497 193.906 97.8746 193.32C97.6029 192.73 97.467 192.022 97.467 191.197C97.467 190.371 97.6045 189.665 97.8796 189.079C98.158 188.492 98.5392 188.043 99.0231 187.732C99.507 187.42 100.056 187.264 100.669 187.264C101.143 187.264 101.524 187.344 101.812 187.503C102.104 187.659 102.329 187.841 102.488 188.05C102.651 188.259 102.777 188.442 102.866 188.602H102.956V184.818H104.442V195H102.99V193.812H102.866C102.777 193.974 102.647 194.16 102.478 194.369C102.313 194.577 102.084 194.76 101.792 194.915C101.501 195.071 101.123 195.149 100.659 195.149ZM100.987 193.881C101.414 193.881 101.776 193.769 102.071 193.543C102.369 193.315 102.594 192.998 102.747 192.594C102.903 192.189 102.98 191.719 102.98 191.182C102.98 190.652 102.904 190.187 102.752 189.79C102.599 189.392 102.376 189.082 102.081 188.86C101.786 188.638 101.421 188.527 100.987 188.527C100.539 188.527 100.167 188.643 99.8683 188.875C99.57 189.107 99.3446 189.424 99.1921 189.825C99.043 190.226 98.9684 190.678 98.9684 191.182C98.9684 191.692 99.0446 192.151 99.1971 192.559C99.3496 192.967 99.5749 193.29 99.8732 193.528C100.175 193.764 100.546 193.881 100.987 193.881ZM106.564 195V187.364H108.05V195H106.564ZM107.314 186.185C107.056 186.185 106.834 186.099 106.648 185.927C106.466 185.751 106.375 185.542 106.375 185.3C106.375 185.055 106.466 184.846 106.648 184.674C106.834 184.498 107.056 184.411 107.314 184.411C107.573 184.411 107.793 184.498 107.976 184.674C108.161 184.846 108.254 185.055 108.254 185.3C108.254 185.542 108.161 185.751 107.976 185.927C107.793 186.099 107.573 186.185 107.314 186.185ZM111.537 190.466V195H110.05V187.364H111.477V188.607H111.571C111.747 188.202 112.022 187.877 112.397 187.632C112.775 187.387 113.25 187.264 113.824 187.264C114.344 187.264 114.8 187.374 115.191 187.592C115.582 187.808 115.885 188.129 116.1 188.557C116.316 188.984 116.424 189.513 116.424 190.143V195H114.937V190.322C114.937 189.768 114.793 189.336 114.505 189.024C114.216 188.709 113.82 188.552 113.316 188.552C112.972 188.552 112.665 188.626 112.397 188.776C112.132 188.925 111.921 189.143 111.765 189.432C111.613 189.717 111.537 190.062 111.537 190.466ZM121.619 198.023C121.012 198.023 120.49 197.943 120.053 197.784C119.619 197.625 119.264 197.415 118.989 197.153C118.714 196.891 118.508 196.604 118.373 196.293L119.65 195.766C119.74 195.911 119.859 196.066 120.008 196.228C120.161 196.394 120.366 196.535 120.625 196.651C120.886 196.767 121.223 196.825 121.634 196.825C122.197 196.825 122.663 196.687 123.031 196.412C123.399 196.14 123.583 195.706 123.583 195.109V193.608H123.488C123.399 193.77 123.27 193.951 123.1 194.15C122.935 194.349 122.706 194.521 122.414 194.667C122.123 194.813 121.743 194.886 121.276 194.886C120.673 194.886 120.129 194.745 119.645 194.463C119.165 194.178 118.783 193.759 118.502 193.205C118.223 192.648 118.084 191.964 118.084 191.152C118.084 190.34 118.222 189.644 118.497 189.064C118.775 188.484 119.156 188.04 119.64 187.732C120.124 187.42 120.673 187.264 121.286 187.264C121.76 187.264 122.143 187.344 122.434 187.503C122.726 187.659 122.953 187.841 123.115 188.05C123.281 188.259 123.409 188.442 123.498 188.602H123.608V187.364H125.064V195.169C125.064 195.825 124.912 196.364 124.607 196.785C124.302 197.206 123.889 197.517 123.369 197.719C122.852 197.922 122.269 198.023 121.619 198.023ZM121.604 193.653C122.032 193.653 122.393 193.553 122.688 193.354C122.986 193.152 123.212 192.864 123.364 192.489C123.52 192.112 123.598 191.659 123.598 191.132C123.598 190.618 123.521 190.166 123.369 189.775C123.217 189.384 122.993 189.079 122.698 188.86C122.403 188.638 122.038 188.527 121.604 188.527C121.157 188.527 120.784 188.643 120.485 188.875C120.187 189.104 119.962 189.415 119.809 189.81C119.66 190.204 119.586 190.645 119.586 191.132C119.586 191.633 119.662 192.072 119.814 192.45C119.967 192.827 120.192 193.122 120.49 193.335C120.792 193.547 121.163 193.653 121.604 193.653ZM136.485 189.228L135.138 189.467C135.082 189.294 134.992 189.13 134.869 188.974C134.75 188.819 134.588 188.691 134.382 188.592C134.177 188.492 133.92 188.442 133.612 188.442C133.191 188.442 132.839 188.537 132.558 188.726C132.276 188.911 132.135 189.152 132.135 189.447C132.135 189.702 132.23 189.907 132.419 190.063C132.607 190.219 132.912 190.347 133.333 190.446L134.546 190.724C135.249 190.887 135.773 191.137 136.117 191.475C136.462 191.813 136.634 192.252 136.634 192.793C136.634 193.25 136.502 193.658 136.237 194.016C135.975 194.37 135.609 194.649 135.138 194.851C134.671 195.053 134.129 195.154 133.512 195.154C132.657 195.154 131.959 194.972 131.419 194.607C130.879 194.239 130.548 193.717 130.425 193.041L131.862 192.822C131.951 193.197 132.135 193.48 132.414 193.673C132.692 193.862 133.055 193.956 133.502 193.956C133.99 193.956 134.379 193.855 134.671 193.653C134.962 193.447 135.108 193.197 135.108 192.902C135.108 192.663 135.019 192.463 134.84 192.3C134.664 192.138 134.394 192.015 134.029 191.933L132.737 191.649C132.024 191.487 131.497 191.228 131.156 190.874C130.818 190.519 130.649 190.07 130.649 189.526C130.649 189.076 130.775 188.681 131.026 188.343C131.278 188.005 131.626 187.741 132.07 187.553C132.515 187.36 133.023 187.264 133.597 187.264C134.422 187.264 135.072 187.443 135.546 187.801C136.02 188.156 136.333 188.631 136.485 189.228ZM141.485 195.154C140.77 195.154 140.145 194.99 139.611 194.662C139.078 194.334 138.663 193.875 138.368 193.285C138.073 192.695 137.926 192.005 137.926 191.217C137.926 190.424 138.073 189.732 138.368 189.138C138.663 188.545 139.078 188.085 139.611 187.756C140.145 187.428 140.77 187.264 141.485 187.264C142.201 187.264 142.826 187.428 143.36 187.756C143.893 188.085 144.308 188.545 144.603 189.138C144.898 189.732 145.045 190.424 145.045 191.217C145.045 192.005 144.898 192.695 144.603 193.285C144.308 193.875 143.893 194.334 143.36 194.662C142.826 194.99 142.201 195.154 141.485 195.154ZM141.49 193.906C141.954 193.906 142.339 193.784 142.644 193.538C142.949 193.293 143.174 192.967 143.32 192.559C143.469 192.151 143.544 191.702 143.544 191.212C143.544 190.724 143.469 190.277 143.32 189.869C143.174 189.458 142.949 189.129 142.644 188.88C142.339 188.631 141.954 188.507 141.49 188.507C141.023 188.507 140.635 188.631 140.327 188.88C140.022 189.129 139.795 189.458 139.646 189.869C139.5 190.277 139.427 190.724 139.427 191.212C139.427 191.702 139.5 192.151 139.646 192.559C139.795 192.967 140.022 193.293 140.327 193.538C140.635 193.784 141.023 193.906 141.49 193.906ZM146.704 195V187.364H148.131V188.607H148.226C148.385 188.186 148.645 187.857 149.006 187.622C149.367 187.384 149.8 187.264 150.304 187.264C150.814 187.264 151.242 187.384 151.586 187.622C151.934 187.861 152.191 188.189 152.357 188.607H152.437C152.619 188.199 152.909 187.874 153.307 187.632C153.704 187.387 154.178 187.264 154.729 187.264C155.421 187.264 155.986 187.481 156.424 187.915C156.865 188.35 157.085 189.004 157.085 189.879V195H155.599V190.018C155.599 189.501 155.458 189.127 155.176 188.895C154.894 188.663 154.558 188.547 154.167 188.547C153.683 188.547 153.307 188.696 153.038 188.994C152.77 189.289 152.635 189.669 152.635 190.133V195H151.154V189.924C151.154 189.51 151.025 189.177 150.766 188.925C150.508 188.673 150.171 188.547 149.757 188.547C149.475 188.547 149.215 188.621 148.976 188.771C148.741 188.916 148.55 189.12 148.405 189.382C148.262 189.644 148.191 189.947 148.191 190.292V195H146.704ZM162.369 195.154C161.616 195.154 160.968 194.993 160.425 194.672C159.884 194.347 159.467 193.891 159.172 193.305C158.88 192.715 158.734 192.024 158.734 191.232C158.734 190.449 158.88 189.76 159.172 189.163C159.467 188.567 159.878 188.101 160.405 187.766C160.935 187.432 161.555 187.264 162.264 187.264C162.695 187.264 163.113 187.335 163.517 187.478C163.921 187.621 164.284 187.844 164.606 188.149C164.927 188.454 165.181 188.85 165.366 189.337C165.552 189.821 165.645 190.41 165.645 191.102V191.629H159.575V190.516H164.188C164.188 190.125 164.109 189.778 163.95 189.477C163.79 189.172 163.567 188.931 163.278 188.756C162.993 188.58 162.659 188.492 162.274 188.492C161.857 188.492 161.492 188.595 161.18 188.8C160.872 189.003 160.634 189.268 160.464 189.596C160.299 189.921 160.216 190.274 160.216 190.655V191.525C160.216 192.035 160.305 192.469 160.484 192.827C160.667 193.185 160.92 193.459 161.245 193.648C161.57 193.833 161.949 193.926 162.384 193.926C162.665 193.926 162.922 193.886 163.154 193.807C163.386 193.724 163.587 193.601 163.756 193.439C163.925 193.277 164.054 193.076 164.143 192.837L165.55 193.091C165.438 193.505 165.236 193.868 164.944 194.18C164.656 194.488 164.293 194.728 163.855 194.901C163.421 195.07 162.925 195.154 162.369 195.154ZM174.634 187.364V188.557H170.318V187.364H174.634ZM171.501 195V186.479C171.501 186.001 171.606 185.605 171.815 185.29C172.023 184.972 172.3 184.735 172.645 184.58C172.99 184.42 173.364 184.341 173.768 184.341C174.067 184.341 174.322 184.366 174.534 184.415C174.746 184.462 174.904 184.505 175.006 184.545L174.658 185.748C174.589 185.728 174.499 185.705 174.39 185.678C174.281 185.648 174.148 185.634 173.992 185.634C173.631 185.634 173.372 185.723 173.217 185.902C173.064 186.081 172.988 186.339 172.988 186.678V195H171.501ZM181.005 191.833V187.364H182.496V195H181.034V193.678H180.955C180.779 194.085 180.498 194.425 180.11 194.697C179.725 194.965 179.246 195.099 178.673 195.099C178.182 195.099 177.748 194.992 177.37 194.776C176.996 194.558 176.701 194.234 176.485 193.807C176.273 193.379 176.167 192.851 176.167 192.221V187.364H177.654V192.042C177.654 192.562 177.798 192.977 178.086 193.285C178.375 193.593 178.749 193.747 179.21 193.747C179.488 193.747 179.765 193.678 180.04 193.538C180.319 193.399 180.549 193.189 180.731 192.907C180.917 192.625 181.008 192.267 181.005 191.833ZM185.98 190.466V195H184.493V187.364H185.92V188.607H186.015C186.19 188.202 186.465 187.877 186.84 187.632C187.218 187.387 187.693 187.264 188.267 187.264C188.787 187.264 189.243 187.374 189.634 187.592C190.025 187.808 190.328 188.129 190.544 188.557C190.759 188.984 190.867 189.513 190.867 190.143V195H189.381V190.322C189.381 189.768 189.236 189.336 188.948 189.024C188.66 188.709 188.264 188.552 187.76 188.552C187.415 188.552 187.108 188.626 186.84 188.776C186.575 188.925 186.364 189.143 186.209 189.432C186.056 189.717 185.98 190.062 185.98 190.466ZM195.719 195.149C195.103 195.149 194.553 194.992 194.069 194.677C193.588 194.359 193.21 193.906 192.935 193.32C192.663 192.73 192.528 192.022 192.528 191.197C192.528 190.371 192.665 189.665 192.94 189.079C193.219 188.492 193.6 188.043 194.084 187.732C194.568 187.42 195.116 187.264 195.729 187.264C196.203 187.264 196.584 187.344 196.873 187.503C197.164 187.659 197.39 187.841 197.549 188.05C197.711 188.259 197.837 188.442 197.927 188.602H198.016V184.818H199.503V195H198.051V193.812H197.927C197.837 193.974 197.708 194.16 197.539 194.369C197.373 194.577 197.144 194.76 196.853 194.915C196.561 195.071 196.183 195.149 195.719 195.149ZM196.047 193.881C196.475 193.881 196.836 193.769 197.131 193.543C197.43 193.315 197.655 192.998 197.807 192.594C197.963 192.189 198.041 191.719 198.041 191.182C198.041 190.652 197.965 190.187 197.812 189.79C197.66 189.392 197.436 189.082 197.141 188.86C196.846 188.638 196.482 188.527 196.047 188.527C195.6 188.527 195.227 188.643 194.929 188.875C194.631 189.107 194.405 189.424 194.253 189.825C194.104 190.226 194.029 190.678 194.029 191.182C194.029 191.692 194.105 192.151 194.258 192.559C194.41 192.967 194.635 193.29 194.934 193.528C195.235 193.764 195.607 193.881 196.047 193.881ZM207.347 189.228L205.999 189.467C205.943 189.294 205.853 189.13 205.731 188.974C205.612 188.819 205.449 188.691 205.244 188.592C205.038 188.492 204.781 188.442 204.473 188.442C204.052 188.442 203.701 188.537 203.419 188.726C203.137 188.911 202.996 189.152 202.996 189.447C202.996 189.702 203.091 189.907 203.28 190.063C203.469 190.219 203.774 190.347 204.195 190.446L205.408 190.724C206.11 190.887 206.634 191.137 206.979 191.475C207.323 191.813 207.496 192.252 207.496 192.793C207.496 193.25 207.363 193.658 207.098 194.016C206.836 194.37 206.47 194.649 205.999 194.851C205.532 195.053 204.99 195.154 204.374 195.154C203.518 195.154 202.821 194.972 202.281 194.607C201.74 194.239 201.409 193.717 201.286 193.041L202.723 192.822C202.813 193.197 202.996 193.48 203.275 193.673C203.553 193.862 203.916 193.956 204.364 193.956C204.851 193.956 205.24 193.855 205.532 193.653C205.824 193.447 205.969 193.197 205.969 192.902C205.969 192.663 205.88 192.463 205.701 192.3C205.525 192.138 205.255 192.015 204.891 191.933L203.598 191.649C202.885 191.487 202.358 191.228 202.017 190.874C201.679 190.519 201.51 190.07 201.51 189.526C201.51 189.076 201.636 188.681 201.888 188.343C202.14 188.005 202.488 187.741 202.932 187.553C203.376 187.36 203.885 187.264 204.458 187.264C205.283 187.264 205.933 187.443 206.407 187.801C206.881 188.156 207.194 188.631 207.347 189.228ZM216.4 187.364V188.557H212.229V187.364H216.4ZM213.347 185.534H214.834V192.758C214.834 193.046 214.877 193.263 214.963 193.409C215.049 193.552 215.16 193.649 215.296 193.702C215.435 193.752 215.586 193.777 215.749 193.777C215.868 193.777 215.972 193.769 216.062 193.752C216.151 193.736 216.221 193.722 216.271 193.712L216.539 194.94C216.453 194.973 216.33 195.007 216.171 195.04C216.012 195.076 215.813 195.096 215.575 195.099C215.183 195.106 214.819 195.036 214.481 194.891C214.143 194.745 213.869 194.519 213.661 194.214C213.452 193.91 213.347 193.527 213.347 193.066V185.534ZM221.179 195.154C220.463 195.154 219.838 194.99 219.305 194.662C218.771 194.334 218.357 193.875 218.062 193.285C217.767 192.695 217.619 192.005 217.619 191.217C217.619 190.424 217.767 189.732 218.062 189.138C218.357 188.545 218.771 188.085 219.305 187.756C219.838 187.428 220.463 187.264 221.179 187.264C221.895 187.264 222.519 187.428 223.053 187.756C223.587 188.085 224.001 188.545 224.296 189.138C224.591 189.732 224.738 190.424 224.738 191.217C224.738 192.005 224.591 192.695 224.296 193.285C224.001 193.875 223.587 194.334 223.053 194.662C222.519 194.99 221.895 195.154 221.179 195.154ZM221.184 193.906C221.648 193.906 222.032 193.784 222.337 193.538C222.642 193.293 222.867 192.967 223.013 192.559C223.162 192.151 223.237 191.702 223.237 191.212C223.237 190.724 223.162 190.277 223.013 189.869C222.867 189.458 222.642 189.129 222.337 188.88C222.032 188.631 221.648 188.507 221.184 188.507C220.716 188.507 220.329 188.631 220.02 188.88C219.715 189.129 219.488 189.458 219.339 189.869C219.193 190.277 219.121 190.724 219.121 191.212C219.121 191.702 219.193 192.151 219.339 192.559C219.488 192.967 219.715 193.293 220.02 193.538C220.329 193.784 220.716 193.906 221.184 193.906ZM231.042 197.864C230.82 197.864 230.618 197.845 230.436 197.809C230.254 197.776 230.118 197.739 230.028 197.7L230.386 196.482C230.658 196.554 230.9 196.586 231.112 196.576C231.324 196.566 231.511 196.487 231.674 196.337C231.84 196.188 231.985 195.945 232.111 195.607L232.295 195.099L229.501 187.364H231.092L233.026 193.29H233.106L235.04 187.364H236.635L233.488 196.019C233.343 196.417 233.157 196.753 232.932 197.028C232.706 197.307 232.438 197.516 232.126 197.655C231.815 197.794 231.453 197.864 231.042 197.864ZM240.989 195.154C240.273 195.154 239.649 194.99 239.115 194.662C238.581 194.334 238.167 193.875 237.872 193.285C237.577 192.695 237.43 192.005 237.43 191.217C237.43 190.424 237.577 189.732 237.872 189.138C238.167 188.545 238.581 188.085 239.115 187.756C239.649 187.428 240.273 187.264 240.989 187.264C241.705 187.264 242.33 187.428 242.864 187.756C243.397 188.085 243.812 188.545 244.107 189.138C244.402 189.732 244.549 190.424 244.549 191.217C244.549 192.005 244.402 192.695 244.107 193.285C243.812 193.875 243.397 194.334 242.864 194.662C242.33 194.99 241.705 195.154 240.989 195.154ZM240.994 193.906C241.458 193.906 241.843 193.784 242.148 193.538C242.453 193.293 242.678 192.967 242.824 192.559C242.973 192.151 243.048 191.702 243.048 191.212C243.048 190.724 242.973 190.277 242.824 189.869C242.678 189.458 242.453 189.129 242.148 188.88C241.843 188.631 241.458 188.507 240.994 188.507C240.527 188.507 240.139 188.631 239.831 188.88C239.526 189.129 239.299 189.458 239.15 189.869C239.004 190.277 238.931 190.724 238.931 191.212C238.931 191.702 239.004 192.151 239.15 192.559C239.299 192.967 239.526 193.293 239.831 193.538C240.139 193.784 240.527 193.906 240.994 193.906ZM251.046 191.833V187.364H252.537V195H251.075V193.678H250.996C250.82 194.085 250.539 194.425 250.151 194.697C249.766 194.965 249.287 195.099 248.714 195.099C248.223 195.099 247.789 194.992 247.411 194.776C247.037 194.558 246.742 194.234 246.526 193.807C246.314 193.379 246.208 192.851 246.208 192.221V187.364H247.695V192.042C247.695 192.562 247.839 192.977 248.127 193.285C248.416 193.593 248.79 193.747 249.251 193.747C249.529 193.747 249.806 193.678 250.081 193.538C250.36 193.399 250.59 193.189 250.772 192.907C250.958 192.625 251.049 192.267 251.046 191.833ZM254.534 195V187.364H255.971V188.577H256.051C256.19 188.166 256.435 187.843 256.787 187.607C257.141 187.369 257.542 187.249 257.99 187.249C258.083 187.249 258.192 187.253 258.318 187.259C258.447 187.266 258.548 187.274 258.621 187.284V188.706C258.561 188.689 258.455 188.671 258.303 188.651C258.15 188.628 257.998 188.616 257.846 188.616C257.494 188.616 257.181 188.691 256.906 188.84C256.634 188.986 256.419 189.19 256.26 189.452C256.1 189.71 256.021 190.005 256.021 190.337V195H254.534ZM265.268 195L263.021 187.364H264.557L266.054 192.972H266.128L267.63 187.364H269.166L270.657 192.947H270.732L272.218 187.364H273.755L271.512 195H269.996L268.445 189.487H268.331L266.779 195H265.268ZM277.388 195.169C276.904 195.169 276.466 195.08 276.075 194.901C275.684 194.718 275.374 194.455 275.145 194.11C274.92 193.765 274.807 193.343 274.807 192.842C274.807 192.411 274.89 192.057 275.056 191.778C275.222 191.5 275.445 191.28 275.727 191.117C276.009 190.955 276.324 190.832 276.672 190.749C277.02 190.666 277.374 190.603 277.736 190.56C278.193 190.507 278.564 190.464 278.849 190.431C279.134 190.395 279.341 190.337 279.471 190.257C279.6 190.178 279.665 190.048 279.665 189.869V189.835C279.665 189.4 279.542 189.064 279.297 188.825C279.055 188.587 278.693 188.467 278.213 188.467C277.712 188.467 277.318 188.578 277.03 188.8C276.745 189.019 276.547 189.263 276.438 189.531L275.041 189.213C275.207 188.749 275.449 188.375 275.767 188.089C276.088 187.801 276.458 187.592 276.876 187.463C277.293 187.33 277.732 187.264 278.193 187.264C278.498 187.264 278.821 187.301 279.162 187.374C279.507 187.443 279.829 187.572 280.127 187.761C280.429 187.95 280.675 188.22 280.868 188.572C281.06 188.92 281.156 189.372 281.156 189.929V195H279.704V193.956H279.645C279.549 194.148 279.404 194.337 279.212 194.523C279.02 194.708 278.773 194.862 278.471 194.985C278.17 195.108 277.809 195.169 277.388 195.169ZM277.711 193.976C278.122 193.976 278.473 193.895 278.765 193.732C279.06 193.57 279.283 193.358 279.436 193.096C279.592 192.831 279.67 192.547 279.67 192.246V191.261C279.617 191.314 279.514 191.364 279.361 191.411C279.212 191.454 279.041 191.492 278.849 191.525C278.657 191.555 278.47 191.583 278.287 191.609C278.105 191.633 277.953 191.652 277.83 191.669C277.542 191.705 277.278 191.767 277.04 191.853C276.804 191.939 276.615 192.063 276.473 192.226C276.334 192.385 276.264 192.597 276.264 192.862C276.264 193.23 276.4 193.509 276.672 193.697C276.943 193.883 277.29 193.976 277.711 193.976ZM284.623 184.818V195H283.136V184.818H284.623ZM288.109 184.818V195H286.622V184.818H288.109ZM293.4 195.154C292.647 195.154 292 194.993 291.456 194.672C290.916 194.347 290.498 193.891 290.203 193.305C289.911 192.715 289.766 192.024 289.766 191.232C289.766 190.449 289.911 189.76 290.203 189.163C290.498 188.567 290.909 188.101 291.436 187.766C291.966 187.432 292.586 187.264 293.295 187.264C293.726 187.264 294.144 187.335 294.548 187.478C294.953 187.621 295.316 187.844 295.637 188.149C295.959 188.454 296.212 188.85 296.398 189.337C296.583 189.821 296.676 190.41 296.676 191.102V191.629H290.606V190.516H295.219C295.219 190.125 295.14 189.778 294.981 189.477C294.822 189.172 294.598 188.931 294.31 188.756C294.025 188.58 293.69 188.492 293.305 188.492C292.888 188.492 292.523 188.595 292.212 188.8C291.903 189.003 291.665 189.268 291.496 189.596C291.33 189.921 291.247 190.274 291.247 190.655V191.525C291.247 192.035 291.337 192.469 291.516 192.827C291.698 193.185 291.951 193.459 292.276 193.648C292.601 193.833 292.981 193.926 293.415 193.926C293.696 193.926 293.953 193.886 294.185 193.807C294.417 193.724 294.618 193.601 294.787 193.439C294.956 193.277 295.085 193.076 295.175 192.837L296.582 193.091C296.469 193.505 296.267 193.868 295.975 194.18C295.687 194.488 295.324 194.728 294.886 194.901C294.452 195.07 293.957 195.154 293.4 195.154ZM301.89 187.364V188.557H297.719V187.364H301.89ZM298.838 185.534H300.324V192.758C300.324 193.046 300.367 193.263 300.453 193.409C300.539 193.552 300.651 193.649 300.786 193.702C300.926 193.752 301.076 193.777 301.239 193.777C301.358 193.777 301.463 193.769 301.552 193.752C301.642 193.736 301.711 193.722 301.761 193.712L302.029 194.94C301.943 194.973 301.82 195.007 301.661 195.04C301.502 195.076 301.303 195.096 301.065 195.099C300.674 195.106 300.309 195.036 299.971 194.891C299.633 194.745 299.36 194.519 299.151 194.214C298.942 193.91 298.838 193.527 298.838 193.066V185.534Z" fill="#222222" fill-opacity="0.6"/>
</svg>
