<svg width="111" height="19" viewBox="0 0 111 19" fill="none" xmlns="http://www.w3.org/2000/svg">
<g clip-path="url(#clip0_1394_55)">
<path d="M15.7588 17.9056C15.6509 17.3947 15.539 16.8526 15.4216 16.3118C15.1321 14.9788 14.8465 13.6448 14.5426 12.3153C14.4949 12.1065 14.5814 12.0151 14.7037 11.9033C16.0054 10.713 17.3056 9.52075 18.6042 8.32669C19.1296 7.84068 19.1327 7.12087 18.6086 6.69697C18.4533 6.5714 18.24 6.4786 18.0452 6.4591C16.4333 6.29783 14.8194 6.15782 13.2062 6.00958C13.0884 5.99876 12.969 5.94647 12.8554 5.95998C12.6281 5.98703 12.5504 5.85563 12.4741 5.66755C11.8021 4.00983 11.1256 2.35414 10.4444 0.70049C10.204 0.117716 9.70444 -0.126219 9.16921 0.0630291C8.85979 0.172429 8.67025 0.409528 8.54388 0.720013C7.87369 2.36726 7.19474 4.01063 6.52828 5.6595C6.44538 5.8646 6.34745 5.94296 6.12348 5.96301C4.51039 6.1076 2.89913 6.27493 1.28742 6.43633C1.10195 6.45495 0.908264 6.4516 0.733677 6.50911C-0.0431213 6.76498 -0.252626 7.69979 0.345253 8.27884C0.932333 8.84738 1.54374 9.38856 2.14567 9.94034C2.86643 10.6011 3.58373 11.266 4.31367 11.9155C4.46755 12.0524 4.48662 12.1787 4.44503 12.3675C4.05893 14.1204 3.68196 15.8755 3.29734 17.6287C3.19513 18.0946 3.28384 18.4975 3.65695 18.7857C4.0288 19.073 4.43154 19.0594 4.82342 18.8154C6.29854 17.8968 7.77172 16.9749 9.24297 16.0497C9.42889 15.9323 9.56194 15.9279 9.75056 16.0471C11.2196 16.9758 12.6932 17.8967 14.1714 18.8098C14.8037 19.2008 15.505 18.9348 15.7017 18.2454C15.7295 18.1484 15.7362 18.0446 15.7588 17.9056Z" fill="#FD4A09"/>
</g>
<g clip-path="url(#clip1_1394_55)">
<path d="M38.7588 17.9056C38.6509 17.3947 38.539 16.8526 38.4216 16.3118C38.1321 14.9788 37.8465 13.6448 37.5426 12.3153C37.4949 12.1065 37.5814 12.0151 37.7037 11.9033C39.0054 10.713 40.3056 9.52075 41.6042 8.32669C42.1296 7.84068 42.1327 7.12087 41.6086 6.69697C41.4533 6.5714 41.24 6.4786 41.0452 6.4591C39.4333 6.29783 37.8194 6.15782 36.2062 6.00958C36.0884 5.99876 35.969 5.94647 35.8554 5.95998C35.6281 5.98703 35.5504 5.85563 35.4741 5.66755C34.8021 4.00983 34.1256 2.35414 33.4444 0.70049C33.204 0.117716 32.7044 -0.126219 32.1692 0.0630291C31.8598 0.172429 31.6703 0.409528 31.5439 0.720013C30.8737 2.36726 30.1947 4.01063 29.5283 5.6595C29.4454 5.8646 29.3475 5.94296 29.1235 5.96301C27.5104 6.1076 25.8991 6.27493 24.2874 6.43633C24.102 6.45495 23.9083 6.4516 23.7337 6.50911C22.9569 6.76498 22.7474 7.69979 23.3453 8.27884C23.9323 8.84738 24.5437 9.38856 25.1457 9.94034C25.8664 10.6011 26.5837 11.266 27.3137 11.9155C27.4675 12.0524 27.4866 12.1787 27.445 12.3675C27.0589 14.1204 26.682 15.8755 26.2973 17.6287C26.1951 18.0946 26.2838 18.4975 26.657 18.7857C27.0288 19.073 27.4315 19.0594 27.8234 18.8154C29.2985 17.8968 30.7717 16.9749 32.243 16.0497C32.4289 15.9323 32.5619 15.9279 32.7506 16.0471C34.2196 16.9758 35.6932 17.8967 37.1714 18.8098C37.8037 19.2008 38.505 18.9348 38.7017 18.2454C38.7295 18.1484 38.7362 18.0446 38.7588 17.9056Z" fill="#FD4A09"/>
</g>
<g clip-path="url(#clip2_1394_55)">
<path d="M61.7588 17.9056C61.6509 17.3947 61.539 16.8526 61.4216 16.3118C61.1321 14.9788 60.8465 13.6448 60.5426 12.3153C60.4949 12.1065 60.5814 12.0151 60.7037 11.9033C62.0054 10.713 63.3056 9.52075 64.6042 8.32669C65.1296 7.84068 65.1327 7.12087 64.6086 6.69697C64.4533 6.5714 64.24 6.4786 64.0452 6.4591C62.4333 6.29783 60.8194 6.15782 59.2062 6.00958C59.0884 5.99876 58.969 5.94647 58.8554 5.95998C58.6281 5.98703 58.5504 5.85563 58.4741 5.66755C57.8021 4.00983 57.1256 2.35414 56.4444 0.70049C56.204 0.117716 55.7044 -0.126219 55.1692 0.0630291C54.8598 0.172429 54.6703 0.409528 54.5439 0.720013C53.8737 2.36726 53.1947 4.01063 52.5283 5.6595C52.4454 5.8646 52.3475 5.94296 52.1235 5.96301C50.5104 6.1076 48.8991 6.27493 47.2874 6.43633C47.102 6.45495 46.9083 6.4516 46.7337 6.50911C45.9569 6.76498 45.7474 7.69979 46.3453 8.27884C46.9323 8.84738 47.5437 9.38856 48.1457 9.94034C48.8664 10.6011 49.5837 11.266 50.3137 11.9155C50.4675 12.0524 50.4866 12.1787 50.445 12.3675C50.0589 14.1204 49.682 15.8755 49.2973 17.6287C49.1951 18.0946 49.2838 18.4975 49.657 18.7857C50.0288 19.073 50.4315 19.0594 50.8234 18.8154C52.2985 17.8968 53.7717 16.9749 55.243 16.0497C55.4289 15.9323 55.5619 15.9279 55.7506 16.0471C57.2196 16.9758 58.6932 17.8967 60.1714 18.8098C60.8037 19.2008 61.505 18.9348 61.7017 18.2454C61.7295 18.1484 61.7362 18.0446 61.7588 17.9056Z" fill="#FD4A09"/>
</g>
<g clip-path="url(#clip3_1394_55)">
<path d="M84.7588 17.9056C84.6509 17.3947 84.539 16.8526 84.4216 16.3118C84.1321 14.9788 83.8465 13.6448 83.5426 12.3153C83.4949 12.1065 83.5814 12.0151 83.7037 11.9033C85.0054 10.713 86.3056 9.52075 87.6042 8.32669C88.1296 7.84068 88.1327 7.12087 87.6086 6.69697C87.4533 6.5714 87.24 6.4786 87.0452 6.4591C85.4333 6.29783 83.8194 6.15782 82.2062 6.00958C82.0884 5.99876 81.969 5.94647 81.8554 5.95998C81.6281 5.98703 81.5504 5.85563 81.4741 5.66755C80.8021 4.00983 80.1256 2.35414 79.4444 0.70049C79.204 0.117716 78.7044 -0.126219 78.1692 0.0630291C77.8598 0.172429 77.6703 0.409528 77.5439 0.720013C76.8737 2.36726 76.1947 4.01063 75.5283 5.6595C75.4454 5.8646 75.3475 5.94296 75.1235 5.96301C73.5104 6.1076 71.8991 6.27493 70.2874 6.43633C70.102 6.45495 69.9083 6.4516 69.7337 6.50911C68.9569 6.76498 68.7474 7.69979 69.3453 8.27884C69.9323 8.84738 70.5437 9.38856 71.1457 9.94034C71.8664 10.6011 72.5837 11.266 73.3137 11.9155C73.4675 12.0524 73.4866 12.1787 73.445 12.3675C73.0589 14.1204 72.682 15.8755 72.2973 17.6287C72.1951 18.0946 72.2838 18.4975 72.657 18.7857C73.0288 19.073 73.4315 19.0594 73.8234 18.8154C75.2985 17.8968 76.7717 16.9749 78.243 16.0497C78.4289 15.9323 78.5619 15.9279 78.7506 16.0471C80.2196 16.9758 81.6932 17.8967 83.1714 18.8098C83.8037 19.2008 84.505 18.9348 84.7017 18.2454C84.7295 18.1484 84.7362 18.0446 84.7588 17.9056Z" fill="#FD4A09"/>
</g>
<g clip-path="url(#clip4_1394_55)">
<path d="M107.759 17.9056C107.651 17.3947 107.539 16.8526 107.422 16.3118C107.132 14.9788 106.847 13.6448 106.543 12.3153C106.495 12.1065 106.581 12.0151 106.704 11.9033C108.005 10.713 109.306 9.52075 110.604 8.32669C111.13 7.84068 111.133 7.12087 110.609 6.69697C110.453 6.5714 110.24 6.4786 110.045 6.4591C108.433 6.29783 106.819 6.15782 105.206 6.00958C105.088 5.99876 104.969 5.94647 104.855 5.95998C104.628 5.98703 104.55 5.85563 104.474 5.66755C103.802 4.00983 103.126 2.35414 102.444 0.70049C102.204 0.117716 101.704 -0.126219 101.169 0.0630291C100.86 0.172429 100.67 0.409528 100.544 0.720013C99.8737 2.36726 99.1947 4.01063 98.5283 5.6595C98.4454 5.8646 98.3475 5.94296 98.1235 5.96301C96.5104 6.1076 94.8991 6.27493 93.2874 6.43633C93.102 6.45495 92.9083 6.4516 92.7337 6.50911C91.9569 6.76498 91.7474 7.69979 92.3453 8.27884C92.9323 8.84738 93.5437 9.38856 94.1457 9.94034C94.8664 10.6011 95.5837 11.266 96.3137 11.9155C96.4675 12.0524 96.4866 12.1787 96.445 12.3675C96.0589 14.1204 95.682 15.8755 95.2973 17.6287C95.1951 18.0946 95.2838 18.4975 95.657 18.7857C96.0288 19.073 96.4315 19.0594 96.8234 18.8154C98.2985 17.8968 99.7717 16.9749 101.243 16.0497C101.429 15.9323 101.562 15.9279 101.751 16.0471C103.22 16.9758 104.693 17.8967 106.171 18.8098C106.804 19.2008 107.505 18.9348 107.702 18.2454C107.729 18.1484 107.736 18.0446 107.759 17.9056Z" fill="#FD4A09"/>
</g>
<defs>
<clipPath id="clip0_1394_55">
<rect width="19" height="19" fill="white" transform="matrix(-1 0 0 1 19 0)"/>
</clipPath>
<clipPath id="clip1_1394_55">
<rect width="19" height="19" fill="white" transform="matrix(-1 0 0 1 42 0)"/>
</clipPath>
<clipPath id="clip2_1394_55">
<rect width="19" height="19" fill="white" transform="matrix(-1 0 0 1 65 0)"/>
</clipPath>
<clipPath id="clip3_1394_55">
<rect width="19" height="19" fill="white" transform="matrix(-1 0 0 1 88 0)"/>
</clipPath>
<clipPath id="clip4_1394_55">
<rect width="19" height="19" fill="white" transform="matrix(-1 0 0 1 111 0)"/>
</clipPath>
</defs>
</svg>
