<svg width="24" height="25" viewBox="0 0 24 25" fill="none" xmlns="http://www.w3.org/2000/svg">
<g clip-path="url(#clip0_1152_2187)">
<path d="M23.5979 13.93H11.5639C10.919 13.8803 10.2806 14.0866 9.78667 14.5041C9.29277 14.9216 8.98317 15.5169 8.92488 16.161L8.92387 16.17C8.9529 16.4932 9.04534 16.8076 9.19591 17.0951C9.34648 17.3826 9.55223 17.6376 9.8014 17.8455C10.0506 18.0534 10.3383 18.2102 10.6481 18.3069C10.9579 18.4036 11.2837 18.4383 11.6069 18.409L11.5979 18.41H23.5979C23.6734 18.417 23.7496 18.4088 23.8219 18.386C23.8942 18.3631 23.9613 18.3261 24.0191 18.277C24.077 18.2279 24.1244 18.1678 24.1587 18.1001C24.193 18.0325 24.2135 17.9587 24.2189 17.883V14.459C24.1993 14.3127 24.1273 14.1784 24.0162 14.0811C23.9051 13.9838 23.7625 13.9301 23.6149 13.93H23.5969H23.5979ZM11.5639 17.568C11.281 17.568 11.0046 17.4841 10.7694 17.327C10.5342 17.1699 10.351 16.9465 10.2427 16.6852C10.1345 16.4239 10.1062 16.1364 10.1614 15.859C10.2165 15.5816 10.3527 15.3268 10.5527 15.1268C10.7527 14.9268 11.0075 14.7907 11.2849 14.7355C11.5623 14.6803 11.8498 14.7086 12.1111 14.8169C12.3724 14.9251 12.5957 15.1084 12.7529 15.3435C12.91 15.5787 12.9939 15.8552 12.9939 16.138V16.142C12.9939 16.93 12.3549 17.568 11.5679 17.568H11.5639ZM3.29688 0.5V6.904H4.66488V4.168C4.80288 4.202 4.96287 4.224 5.12687 4.23H5.13088C5.62527 4.22894 6.09913 4.03215 6.44882 3.68265C6.7985 3.33315 6.99555 2.8594 6.99687 2.365C6.99449 2.20258 6.97233 2.04106 6.93087 1.884L6.93388 1.899H14.4259C14.3896 2.0505 14.3688 2.2053 14.3639 2.361V2.365C14.3649 2.8594 14.5617 3.33326 14.9112 3.68294C15.2607 4.03263 15.7345 4.22968 16.2289 4.231C16.3969 4.225 16.5579 4.203 16.7119 4.165L16.6959 4.168V6.904H18.0969V0.5H3.29688ZM18.6859 6.126H20.4269C20.2961 5.74734 20.0674 5.41003 19.7641 5.14834C19.4608 4.88664 19.0936 4.70988 18.6999 4.636L18.6859 4.634V6.126Z" fill="#333333"/>
<path d="M11.471 13.184H23.409V9.54698C23.3579 9.00747 23.0969 8.50963 22.6822 8.16077C22.2675 7.81191 21.7323 7.63996 21.192 7.68198H21.199H2.239C2.22269 7.66459 2.2007 7.65359 2.177 7.65098C2.04529 7.58956 1.93252 7.49384 1.85053 7.37384C1.76855 7.25385 1.72035 7.11401 1.711 6.96898V6.96698C1.72747 6.7873 1.79816 6.61686 1.91371 6.47827C2.02926 6.33969 2.18421 6.23949 2.358 6.19098L2.364 6.18998V4.60498C1.057 4.66698 0 6.53198 0 8.86398V22.636C0.0515912 23.1748 0.312511 23.672 0.72669 24.0205C1.14087 24.369 1.67525 24.5412 2.215 24.5H2.208H21.168C21.7054 24.5396 22.2371 24.3676 22.6494 24.0207C23.0618 23.6737 23.3222 23.1793 23.375 22.643L23.376 22.635V18.998H11.504C9.577 18.998 8.022 17.692 8.022 16.107C8.022 14.491 9.576 13.185 11.472 13.185L11.471 13.184Z" fill="#333333"/>
</g>
<defs>
<clipPath id="clip0_1152_2187">
<rect width="24" height="24" fill="white" transform="translate(0 0.5)"/>
</clipPath>
</defs>
</svg>
