<svg width="18" height="18" viewBox="0 0 18 18" fill="none" xmlns="http://www.w3.org/2000/svg">
<path fill-rule="evenodd" clip-rule="evenodd" d="M16.9135 0.0861097C17.1189 0.118193 17.381 0.200693 17.59 0.409693C17.7999 0.61961 17.8815 0.88086 17.9136 1.08619C17.9475 1.29703 17.9411 1.51978 17.9182 1.72786C17.8705 2.14769 17.7394 2.62253 17.5735 3.07903C17.249 3.97003 16.721 4.97653 16.193 5.50453L16.1793 5.51828L14.6319 6.98036L16.4836 11.8699C16.6065 12.1645 16.6412 12.4885 16.5836 12.8025C16.526 13.1166 16.3786 13.4071 16.1591 13.639L14.8785 14.9957C14.808 15.069 14.7222 15.1259 14.6273 15.1623C14.5323 15.1988 14.4305 15.2139 14.329 15.2066C14.2276 15.1994 14.129 15.1699 14.0402 15.1203C13.9514 15.0707 13.8746 15.0022 13.8152 14.9196L10.7874 10.6149L9.95144 11.406C9.47477 11.8818 9.00911 12.3181 8.55627 12.6472C8.35094 12.7966 8.13461 12.9341 7.90819 13.0441L8.68186 15.0039C8.92019 15.6089 8.74602 16.2809 8.31886 16.7328L7.38202 17.7228C7.31394 17.7932 7.23173 17.8483 7.1408 17.8847C7.04987 17.921 6.95228 17.9377 6.85444 17.9336C6.7566 17.9296 6.66073 17.9048 6.57314 17.8611C6.48554 17.8173 6.40819 17.7555 6.34619 17.6797L3.66769 14.332L0.32094 11.6535C0.245149 11.5915 0.183338 11.5142 0.139572 11.4266C0.0958057 11.339 0.0710751 11.2431 0.0670057 11.1453C0.0629364 11.0474 0.0796204 10.9498 0.115961 10.8589C0.152302 10.768 0.207476 10.6858 0.277857 10.6177L1.26786 9.68178C1.71886 9.25461 2.39169 9.07861 2.99577 9.31786L4.95652 10.0924C5.06652 9.86511 5.20402 9.64878 5.35252 9.44344C5.68161 8.99061 6.11794 8.52494 6.59461 8.04828L7.38477 7.21228L3.08011 4.18361C2.99769 4.12422 2.92931 4.04745 2.87981 3.95874C2.83031 3.87003 2.80089 3.77152 2.79363 3.67019C2.78638 3.56886 2.80146 3.46717 2.83781 3.37231C2.87417 3.27745 2.93091 3.19172 3.00402 3.12119L4.36069 1.84061C4.59267 1.62131 4.88329 1.47402 5.19731 1.41658C5.51133 1.35915 5.83527 1.39404 6.12986 1.51703L11.0194 3.36778L12.4814 1.82044L12.4952 1.80669C13.0241 1.27778 14.0297 0.749776 14.9216 0.426193C15.3781 0.260276 15.8529 0.129193 16.2728 0.0815263C16.4809 0.0586096 16.7036 0.0521931 16.9144 0.0861097M13.4733 2.77286L11.7041 4.64469C11.611 4.74348 11.4907 4.81248 11.3584 4.84298C11.2261 4.87349 11.0877 4.86414 10.9607 4.81611L5.63119 2.79853L5.60369 2.78753C5.55425 2.76597 5.49955 2.75943 5.44642 2.76872C5.39328 2.77801 5.34405 2.80272 5.30486 2.83978L4.55961 3.54378L8.82578 6.54494C9.16311 6.78328 9.21352 7.27919 8.92936 7.57986L7.58644 8.99978L7.57361 9.01261C7.10336 9.48286 6.72844 9.88711 6.46444 10.2501C6.19769 10.6195 6.09227 10.8808 6.07486 11.0669C6.06357 11.1724 6.02821 11.274 5.9715 11.3637C5.91479 11.4535 5.83824 11.529 5.74775 11.5846C5.65725 11.6401 5.55522 11.6741 5.44952 11.684C5.34381 11.6939 5.23725 11.6794 5.13802 11.6416L2.49069 10.5957C2.25052 10.5004 1.94069 10.9358 1.79677 11.0724L4.58619 13.3054C4.62516 13.338 4.66134 13.3739 4.69436 13.4126L6.92644 16.202C7.06302 16.0581 7.49844 15.7483 7.40311 15.5081L6.35811 12.8617C6.32018 12.7625 6.30552 12.6559 6.31528 12.5501C6.32503 12.4444 6.35893 12.3423 6.41437 12.2517C6.46981 12.1611 6.5453 12.0844 6.63503 12.0276C6.72476 11.9708 6.82634 11.9353 6.93194 11.9239C7.11802 11.9065 7.37927 11.8011 7.74777 11.5334C8.11169 11.2704 8.51594 10.8954 8.98527 10.4252L8.99994 10.4124L10.4208 9.06944C10.493 9.00288 10.5784 8.95238 10.6716 8.92126C10.7647 8.89013 10.8634 8.8791 10.9611 8.88889C11.0588 8.89868 11.1533 8.92906 11.2384 8.97804C11.3235 9.02701 11.3972 9.09347 11.4548 9.17303L14.4559 13.4392L15.1599 12.6939C15.197 12.6549 15.2217 12.6059 15.2312 12.553C15.2406 12.5 15.2344 12.4454 15.2131 12.396L15.2012 12.3685L13.1845 7.03811C13.1366 6.91132 13.1272 6.77319 13.1575 6.64108C13.1879 6.50897 13.2566 6.38878 13.355 6.29561L15.2269 4.52553C15.5449 4.20378 15.984 3.42553 16.281 2.60786C16.4167 2.23661 16.5487 1.83603 16.5615 1.43728C16.1628 1.45011 15.7622 1.58211 15.3909 1.71778C14.5742 2.01478 13.7959 2.45478 13.4733 2.77286Z" fill="#222222" fill-opacity="0.53"/>
</svg>
