<svg width="18" height="20" viewBox="0 0 18 20" fill="none" xmlns="http://www.w3.org/2000/svg">
<path d="M14.4714 18.97C13.4098 19.9992 12.2506 19.8367 11.1348 19.3492C9.95392 18.8508 8.87058 18.8292 7.62475 19.3492C6.06475 20.0208 5.24142 19.8258 4.30975 18.97C-0.976915 13.5208 -0.196915 5.2225 5.80475 4.91917C7.26725 4.995 8.28558 5.72083 9.14142 5.78583C10.4198 5.52583 11.6439 4.77833 13.0089 4.87583C14.6448 5.00583 15.8798 5.65583 16.6923 6.82583C13.3123 8.85167 14.1139 13.3042 17.2123 14.55C16.5948 16.175 15.7931 17.7892 14.4606 18.9808L14.4714 18.97ZM9.03308 4.85417C8.87058 2.43833 10.8314 0.445 13.0848 0.25C13.3989 3.045 10.5498 5.125 9.03308 4.85417Z" fill="black"/>
</svg>
