<svg width="57" height="57" viewBox="0 0 57 57" fill="none" xmlns="http://www.w3.org/2000/svg">
<path d="M37.7516 33.9963L37.7123 18.8563L22.5723 18.817C22.4146 18.7957 22.2541 18.8085 22.1018 18.8545C21.9494 18.9006 21.8087 18.9788 21.6892 19.084C21.5697 19.1892 21.4742 19.3188 21.4092 19.464C21.3441 19.6093 21.311 19.7669 21.3122 19.926C21.3133 20.0852 21.3486 20.2423 21.4158 20.3866C21.4829 20.5309 21.5802 20.6592 21.7012 20.7626C21.8222 20.8661 21.964 20.9423 22.117 20.9862C22.27 21.03 22.4306 21.0405 22.5881 21.0169L33.9332 21.0641L18.9032 36.094C18.6949 36.3024 18.5778 36.585 18.5778 36.8797C18.5778 37.1744 18.6949 37.457 18.9032 37.6654C19.1116 37.8737 19.3942 37.9908 19.6889 37.9908C19.9836 37.9908 20.2662 37.8737 20.4746 37.6654L35.5045 22.6354L35.5517 33.9806C35.5527 34.2754 35.6708 34.5578 35.8801 34.7655C36.0893 34.9733 36.3725 35.0894 36.6673 35.0884C36.9622 35.0873 37.2445 34.9692 37.4523 34.76C37.6601 34.5507 37.7762 34.2675 37.7751 33.9727L37.7516 33.9963Z" fill="white"/>
</svg>
