<svg width="30" height="30" viewBox="0 0 30 30" fill="none" xmlns="http://www.w3.org/2000/svg">
<path d="M5.21094 14.5473V21.2767L14.9947 23.1148V8.44922" stroke="black" stroke-width="0.5" stroke-linecap="round" stroke-linejoin="round"/>
<path d="M24.7267 14.7266V21.1603L14.9961 23.1159" stroke="black" stroke-width="0.5" stroke-linecap="round" stroke-linejoin="round"/>
<path d="M6.8151 19.1648L8.65322 19.3604M17.9845 13.7966L26.3507 14.9491C26.4806 14.9672 26.6128 14.9501 26.7339 14.8998C26.8549 14.8495 26.9603 14.7677 27.0391 14.663C27.1179 14.5582 27.1672 14.4343 27.182 14.3041C27.1968 14.1738 27.1765 14.042 27.1232 13.9223L24.7263 8.52727L14.9951 6.88477L5.2126 8.60602L2.88135 13.616C2.82726 13.732 2.80441 13.8601 2.81504 13.9877C2.82568 14.1152 2.86943 14.2378 2.94198 14.3432C3.01452 14.4487 3.11335 14.5333 3.22867 14.5889C3.34399 14.6444 3.4718 14.6688 3.59947 14.6598L11.9357 14.0804C12.1018 14.0689 12.2616 14.0126 12.3981 13.9174C12.5346 13.8221 12.6426 13.6916 12.7107 13.5398L14.9951 8.44977L17.2782 13.2791C17.3435 13.4173 17.4423 13.5369 17.5655 13.6273C17.6887 13.7177 17.8331 13.7759 17.9845 13.7966Z" stroke="#222222" stroke-opacity="0.6" stroke-linecap="round" stroke-linejoin="round"/>
</svg>
