<svg width="30" height="30" viewBox="0 0 30 30" fill="none" xmlns="http://www.w3.org/2000/svg">
<path d="M24.375 2.8125C24.375 2.56386 24.2762 2.3254 24.1004 2.14959C23.9246 1.97377 23.6861 1.875 23.4375 1.875H6.5625C6.31386 1.875 6.0754 1.97377 5.89959 2.14959C5.72377 2.3254 5.625 2.56386 5.625 2.8125V27.1875C5.625 27.4361 5.72377 27.6746 5.89959 27.8504C6.0754 28.0262 6.31386 28.125 6.5625 28.125H23.4375C23.6861 28.125 23.9246 28.0262 24.1004 27.8504C24.2762 27.6746 24.375 27.4361 24.375 27.1875V2.8125ZM11.25 25.3125H8.4375V22.5H11.25V25.3125ZM11.25 20.625H8.4375V17.8125H11.25V20.625ZM11.25 15.9375H8.4375V13.125H11.25V15.9375ZM16.4062 25.3125H13.5938V22.5H16.4062V25.3125ZM16.4062 20.625H13.5938V17.8125H16.4062V20.625ZM16.4062 15.9375H13.5938V13.125H16.4062V15.9375ZM21.5625 25.3125H18.75V17.8125H21.5625V25.3125ZM21.5625 15.9375H18.75V13.125H21.5625V15.9375ZM21.5625 10.3125H8.4375V4.6875H21.5625V10.3125Z" fill="#222222" fill-opacity="0.5"/>
</svg>
