<svg width="30" height="30" viewBox="0 0 30 30" fill="none" xmlns="http://www.w3.org/2000/svg">
<path d="M24.1475 16.875H19.3038C18.6617 16.8743 18.0456 17.1283 17.5905 17.5813C17.1354 18.0342 16.8786 18.6492 16.8763 19.2913V24.135C16.8759 24.4539 16.9385 24.7697 17.0604 25.0644C17.1822 25.359 17.361 25.6268 17.5865 25.8522C17.812 26.0777 18.0797 26.2565 18.3744 26.3784C18.6691 26.5003 18.9849 26.5628 19.3038 26.5625H24.1475C24.7894 26.5599 25.404 26.3029 25.8567 25.8478C26.3093 25.3928 26.5632 24.7769 26.5625 24.135V19.2913C26.5628 18.974 26.5006 18.6598 26.3793 18.3667C26.2581 18.0735 26.0802 17.8072 25.8559 17.5829C25.6316 17.3585 25.3652 17.1807 25.0721 17.0594C24.7789 16.9382 24.4647 16.8759 24.1475 16.8763M10.6963 16.875H5.8525C5.21074 16.8786 4.59651 17.1361 4.144 17.5912C3.69149 18.0463 3.43749 18.662 3.4375 19.3038V24.1475C3.43717 24.4647 3.49941 24.7789 3.62066 25.0721C3.74191 25.3652 3.91979 25.6316 4.1441 25.8559C4.36842 26.0802 4.63478 26.2581 4.92793 26.3793C5.22108 26.5006 5.53527 26.5628 5.8525 26.5625H10.6963C11.3381 26.5632 11.954 26.3093 12.4091 25.8567C12.8641 25.404 13.1211 24.7894 13.1238 24.1475V19.3038C13.1241 18.9849 13.0615 18.6691 12.9396 18.3744C12.8178 18.0797 12.639 17.812 12.4135 17.5865C12.188 17.361 11.9203 17.1822 11.6256 17.0604C11.3309 16.9385 11.0151 16.8759 10.6963 16.8763M10.6963 3.4375H5.8525C5.53527 3.43717 5.22108 3.49941 4.92793 3.62066C4.63478 3.74191 4.36842 3.91979 4.1441 4.1441C3.91979 4.36842 3.74191 4.63478 3.62066 4.92793C3.49941 5.22108 3.43717 5.53527 3.4375 5.8525V10.6963C3.43683 11.3381 3.69066 11.954 4.14335 12.4091C4.59603 12.8641 5.21065 13.1211 5.8525 13.1238H10.6963C11.0151 13.1241 11.3309 13.0615 11.6256 12.9396C11.9203 12.8178 12.188 12.639 12.4135 12.4135C12.639 12.188 12.8178 11.9203 12.9396 11.6256C13.0615 11.3309 13.1241 11.0151 13.1238 10.6963V5.8525C13.1211 5.21065 12.8641 4.59603 12.4091 4.14335C11.954 3.69066 11.3381 3.43683 10.6963 3.4375ZM24.1475 3.4375H19.3038C18.6619 3.43683 18.046 3.69066 17.5909 4.14335C17.1359 4.59603 16.8789 5.21065 16.8763 5.8525V10.6963C16.8766 11.34 17.1324 11.9572 17.5876 12.4124C18.0428 12.8676 18.66 13.1234 19.3038 13.1238H24.1475C24.7894 13.1211 25.404 12.8641 25.8567 12.4091C26.3093 11.954 26.5632 11.3381 26.5625 10.6963V5.8525C26.5628 5.53527 26.5006 5.22108 26.3793 4.92793C26.2581 4.63478 26.0802 4.36842 25.8559 4.1441C25.6316 3.91979 25.3652 3.74191 25.0721 3.62066C24.7789 3.49941 24.4647 3.43717 24.1475 3.4375Z" stroke="#7c7c7c" stroke-width="1.5" stroke-linecap="round" stroke-linejoin="round"/>
</svg>
