<svg width="20" height="22" viewBox="0 0 20 22" fill="none" xmlns="http://www.w3.org/2000/svg">
<path d="M14.5 4.5C15.0304 4.5 15.5391 4.28929 15.9142 3.91421C16.2893 3.53914 16.5 3.03043 16.5 2.5C16.5 1.96957 16.2893 1.46086 15.9142 1.08579C15.5391 0.710714 15.0304 0.5 14.5 0.5C13.9696 0.5 13.4609 0.710714 13.0858 1.08579C12.7107 1.46086 12.5 1.96957 12.5 2.5C12.5 3.03043 12.7107 3.53914 13.0858 3.91421C13.4609 4.28929 13.9696 4.5 14.5 4.5ZM10.9 18.4L11.9 14L14 16V22H16V14.5L13.9 12.5L14.5 9.5C15.1852 10.2851 16.0306 10.9145 16.9792 11.3457C17.9279 11.7769 18.9579 12 20 12V10C18.24 10.03 16.6 9.11 15.7 7.6L14.7 6C14.34 5.4 13.7 5 13 5C12.7 5 12.5 5.1 12.2 5.1L7 7.3V12H9V8.6L10.8 7.9L9.2 16L4.3 15L3.9 17L10.9 18.4ZM2 8C1.73478 8 1.48043 7.89464 1.29289 7.70711C1.10536 7.51957 1 7.26522 1 7C1 6.73478 1.10536 6.48043 1.29289 6.29289C1.48043 6.10536 1.73478 6 2 6H5V8H2ZM3 4C2.73478 4 2.48043 3.89464 2.29289 3.70711C2.10536 3.51957 2 3.26522 2 3C2 2.73478 2.10536 2.48043 2.29289 2.29289C2.48043 2.10536 2.73478 2 3 2H8V4H3ZM1 12C0.734784 12 0.48043 11.8946 0.292893 11.7071C0.105357 11.5196 0 11.2652 0 11C0 10.7348 0.105357 10.4804 0.292893 10.2929C0.48043 10.1054 0.734784 10 1 10H5V12H1Z" fill="black"/>
</svg>
