<svg width="16" height="16" viewBox="0 0 16 16" fill="none" xmlns="http://www.w3.org/2000/svg">
<path d="M0.5 13.207V15C0.5 15.1326 0.552679 15.2598 0.646447 15.3535C0.740215 15.4473 0.867392 15.5 1 15.5H2.793C2.92535 15.4999 3.05229 15.4474 3.146 15.354L11.646 6.85397L9.146 4.35397L0.646 12.854C0.552531 12.9477 0.500028 13.0746 0.5 13.207ZM11.09 2.40997L13.59 4.90997L14.793 3.70697C14.9805 3.51944 15.0858 3.26514 15.0858 2.99997C15.0858 2.73481 14.9805 2.4805 14.793 2.29297L13.707 1.20697C13.5195 1.0195 13.2652 0.914185 13 0.914185C12.7348 0.914185 12.4805 1.0195 12.293 1.20697L11.09 2.40997Z" stroke="black"/>
</svg>
