<svg width="24" height="24" viewBox="0 0 24 24" fill="none" xmlns="http://www.w3.org/2000/svg">
<path d="M11.9985 4.99997L11.6445 4.64597L11.9985 4.29297L12.3525 4.64597L11.9985 4.99997ZM12.4985 14C12.4985 14.1326 12.4459 14.2598 12.3521 14.3535C12.2583 14.4473 12.1311 14.5 11.9985 14.5C11.8659 14.5 11.7387 14.4473 11.645 14.3535C11.5512 14.2598 11.4985 14.1326 11.4985 14H12.4985ZM6.64453 9.64597L11.6445 4.64597L12.3525 5.35397L7.35253 10.354L6.64453 9.64597ZM12.3525 4.64597L17.3525 9.64597L16.6445 10.354L11.6445 5.35397L12.3525 4.64597ZM12.4985 4.99997V14H11.4985V4.99997H12.4985Z" fill="#7C7C7C"/>
<path d="M5 16V17C5 17.5304 5.21071 18.0391 5.58579 18.4142C5.96086 18.7893 6.46957 19 7 19H17C17.5304 19 18.0391 18.7893 18.4142 18.4142C18.7893 18.0391 19 17.5304 19 17V16" stroke="#7C7C7C"/>
</svg>
