<svg width="24" height="25" viewBox="0 0 24 25" fill="none" xmlns="http://www.w3.org/2000/svg">
<path d="M9 2C8.06902 1.99951 7.16081 2.28778 6.40053 2.82508C5.64025 3.36239 5.06533 4.12227 4.755 5H0V8H4.755C5.0649 8.8783 5.63961 9.63885 6.3999 10.1768C7.16019 10.7148 8.06863 11.0037 9 11.0037C9.93137 11.0037 10.8398 10.7148 11.6001 10.1768C12.3604 9.63885 12.9351 8.8783 13.245 8H24V5H13.245C12.9347 4.12227 12.3598 3.36239 11.5995 2.82508C10.8392 2.28778 9.93098 1.99951 9 2ZM15 14C14.069 13.9995 13.1608 14.2878 12.4005 14.8251C11.6402 15.3624 11.0653 16.1223 10.755 17H0V20H10.755C11.0649 20.8783 11.6396 21.6389 12.3999 22.1768C13.1602 22.7148 14.0686 23.0037 15 23.0037C15.9314 23.0037 16.8398 22.7148 17.6001 22.1768C18.3604 21.6389 18.9351 20.8783 19.245 20H24V17H19.245C18.9347 16.1223 18.3598 15.3624 17.5995 14.8251C16.8392 14.2878 15.931 13.9995 15 14Z" fill="#BDBDBD"/>
</svg>
