<svg width="21" height="20" viewBox="0 0 21 20" fill="none" xmlns="http://www.w3.org/2000/svg">
<path d="M11.5262 0C12.6567 0.003 13.2305 0.009 13.7259 0.023L13.9208 0.03C14.1459 0.038 14.368 0.0479999 14.6363 0.0599999C15.7055 0.11 16.435 0.278 17.0751 0.525C17.7384 0.779 18.2971 1.123 18.8558 1.678C19.367 2.17773 19.7624 2.78247 20.0144 3.45C20.2626 4.087 20.4314 4.813 20.4817 5.878C20.4937 6.144 20.5038 6.365 20.5118 6.59L20.5179 6.784C20.5329 7.276 20.539 7.847 20.541 8.972L20.542 9.718V11.028C20.5444 11.7574 20.5367 12.4868 20.5189 13.216L20.5128 13.41C20.5048 13.635 20.4948 13.856 20.4827 14.122C20.4324 15.187 20.2616 15.912 20.0144 16.55C19.7624 17.2175 19.367 17.8223 18.8558 18.322C18.3536 18.8307 17.7459 19.2242 17.0751 19.475C16.435 19.722 15.7055 19.89 14.6363 19.94L13.9208 19.97L13.7259 19.976C13.2305 19.99 12.6567 19.997 11.5262 19.999L10.7766 20H9.46119C8.72789 20.0026 7.99459 19.9949 7.26151 19.977L7.06657 19.971C6.82802 19.962 6.58952 19.9517 6.35109 19.94C5.2819 19.89 4.55236 19.722 3.91125 19.475C3.24082 19.2241 2.63349 18.8306 2.13161 18.322C1.62007 17.8224 1.22431 17.2176 0.97198 16.55C0.723775 15.913 0.554956 15.187 0.504712 14.122L0.474566 13.41L0.469541 13.216C0.451017 12.4868 0.442643 11.7574 0.444419 11.028V8.972C0.441638 8.2426 0.449008 7.5132 0.466527 6.784L0.473561 6.59C0.4816 6.365 0.491649 6.144 0.503707 5.878C0.553951 4.813 0.72277 4.088 0.970975 3.45C1.2239 2.7822 1.62035 2.17744 2.13261 1.678C2.6342 1.16955 3.24118 0.776074 3.91125 0.525C4.55236 0.278 5.2809 0.11 6.35109 0.0599999C6.61839 0.0479999 6.84147 0.038 7.06657 0.03L7.26151 0.0239999C7.99426 0.00623271 8.72722 -0.0014347 9.46019 0.000999928L11.5262 0ZM10.4932 5C9.16065 5 7.88268 5.52678 6.94042 6.46447C5.99816 7.40215 5.46881 8.67392 5.46881 10C5.46881 11.3261 5.99816 12.5979 6.94042 13.5355C7.88268 14.4732 9.16065 15 10.4932 15C11.8258 15 13.1037 14.4732 14.046 13.5355C14.9882 12.5979 15.5176 11.3261 15.5176 10C15.5176 8.67392 14.9882 7.40215 14.046 6.46447C13.1037 5.52678 11.8258 5 10.4932 5ZM10.4932 7C10.8891 6.99993 11.2811 7.07747 11.6469 7.22817C12.0127 7.37887 12.345 7.5998 12.625 7.87833C12.905 8.15686 13.1271 8.48754 13.2787 8.85149C13.4302 9.21544 13.5083 9.60553 13.5083 9.9995C13.5084 10.3935 13.4305 10.7836 13.2791 11.1476C13.1276 11.5116 12.9056 11.8423 12.6257 12.121C12.3458 12.3996 12.0135 12.6206 11.6478 12.7714C11.2821 12.9223 10.8901 12.9999 10.4942 13C9.69467 13 8.92789 12.6839 8.36254 12.1213C7.79718 11.5587 7.47957 10.7956 7.47957 10C7.47957 9.20435 7.79718 8.44129 8.36254 7.87868C8.92789 7.31607 9.69467 7 10.4942 7M15.7698 3.5C15.4367 3.5 15.1172 3.6317 14.8816 3.86612C14.6461 4.10054 14.5137 4.41848 14.5137 4.75C14.5137 5.08152 14.6461 5.39946 14.8816 5.63388C15.1172 5.8683 15.4367 6 15.7698 6C16.103 6 16.4224 5.8683 16.658 5.63388C16.8936 5.39946 17.0259 5.08152 17.0259 4.75C17.0259 4.41848 16.8936 4.10054 16.658 3.86612C16.4224 3.6317 16.103 3.5 15.7698 3.5Z" fill="white"/>
</svg>
