<svg width="10" height="12" viewBox="0 0 10 12" fill="none" xmlns="http://www.w3.org/2000/svg">
<g clip-path="url(#clip0_621_2161)">
<path d="M9.8318 6.715H4.81763C4.54895 6.69015 4.28292 6.79328 4.07713 7.00205C3.87134 7.21082 3.74234 7.50844 3.71805 7.8305L3.71763 7.835C3.72972 7.99662 3.76824 8.15379 3.83098 8.29753C3.89372 8.44128 3.97945 8.56878 4.08327 8.67274C4.18709 8.77671 4.30696 8.85511 4.43604 8.90345C4.56512 8.9518 4.70088 8.96914 4.83555 8.9545L4.8318 8.955H9.8318C9.86327 8.95849 9.89501 8.95441 9.92515 8.94299C9.95529 8.93157 9.98322 8.91305 10.0073 8.88851C10.0314 8.86397 10.0512 8.8339 10.0655 8.80007C10.0798 8.76624 10.0883 8.72933 10.0905 8.6915V6.9795C10.0824 6.90633 10.0524 6.8392 10.0061 6.79056C9.95981 6.74192 9.9004 6.71507 9.83888 6.715H9.83138H9.8318ZM4.81763 8.534C4.69979 8.534 4.58459 8.49207 4.4866 8.4135C4.38862 8.33494 4.31225 8.22327 4.26715 8.09262C4.22205 7.96197 4.21026 7.81821 4.23325 7.67951C4.25624 7.54081 4.31298 7.41341 4.39631 7.31342C4.47964 7.21342 4.58581 7.14533 4.70139 7.11774C4.81697 7.09015 4.93677 7.10431 5.04565 7.15843C5.15452 7.21254 5.24758 7.30419 5.31305 7.42177C5.37852 7.53935 5.41346 7.67759 5.41346 7.819V7.821C5.41346 8.215 5.14721 8.534 4.8193 8.534H4.81763ZM1.37305 0V3.202H1.94305V1.834C2.00055 1.851 2.06721 1.862 2.13555 1.865H2.13721C2.34321 1.86447 2.54065 1.76607 2.68636 1.59132C2.83206 1.41658 2.91416 1.1797 2.91471 0.9325C2.91372 0.851291 2.90448 0.770529 2.88721 0.692L2.88846 0.6995H6.01013C5.99502 0.775252 5.98637 0.852649 5.9843 0.9305V0.9325C5.98474 1.1797 6.06674 1.41663 6.21236 1.59147C6.35798 1.76631 6.55538 1.86484 6.76138 1.8655C6.83138 1.8625 6.89846 1.8515 6.96263 1.8325L6.95596 1.834V3.202H7.53971V0H1.37305ZM7.78513 2.813H8.51055C8.45605 2.62367 8.36078 2.45502 8.23439 2.32417C8.10801 2.19332 7.95502 2.10494 7.79096 2.068L7.78513 2.067V2.813Z" fill="white"/>
<path d="M4.77958 6.34223H9.75375V4.52373C9.73246 4.25398 9.6237 4.00506 9.45091 3.83063C9.27811 3.6562 9.05512 3.57022 8.83 3.59123H8.83292H0.932917C0.926121 3.58254 0.916959 3.57704 0.907083 3.57573C0.852203 3.54502 0.805218 3.49716 0.771056 3.43717C0.736894 3.37717 0.716812 3.30725 0.712917 3.23473V3.23373C0.719778 3.14389 0.749235 3.05867 0.79738 2.98938C0.845526 2.92009 0.910086 2.86999 0.9825 2.84573L0.985 2.84523V2.05273C0.440417 2.08373 0 3.01623 0 4.18223V11.0682C0.0214963 11.3377 0.130213 11.5862 0.302788 11.7605C0.475362 11.9348 0.698021 12.0208 0.922917 12.0002H0.92H8.82C9.04393 12.0201 9.26545 11.9341 9.43727 11.7606C9.60908 11.5871 9.71757 11.3399 9.73958 11.0717L9.74 11.0677V9.24923H4.79333C3.99042 9.24923 3.3425 8.59623 3.3425 7.80373C3.3425 6.99573 3.99 6.34273 4.78 6.34273L4.77958 6.34223Z" fill="white"/>
</g>
<defs>
<clipPath id="clip0_621_2161">
<rect width="10" height="12" fill="white"/>
</clipPath>
</defs>
</svg>
