<svg width="22" height="24" viewBox="0 0 22 24" fill="none" xmlns="http://www.w3.org/2000/svg">
<path d="M3.79922 9.59986C3.79856 8.10389 4.2639 6.64487 5.13056 5.42551C5.99723 4.20616 7.22218 3.28704 8.63522 2.79586C8.5805 2.45304 8.60081 2.10242 8.69474 1.7682C8.78868 1.43398 8.954 1.12412 9.17931 0.859998C9.40462 0.595874 9.68455 0.383776 9.99978 0.238336C10.315 0.0928963 10.6581 0.0175781 11.0052 0.0175781C11.3524 0.0175781 11.6954 0.0928963 12.0107 0.238336C12.3259 0.383776 12.6058 0.595874 12.8311 0.859998C13.0564 1.12412 13.2218 1.43398 13.3157 1.7682C13.4096 2.10242 13.4299 2.45304 13.3752 2.79586C14.786 3.28905 16.0084 4.20904 16.8728 5.42822C17.7372 6.6474 18.2007 8.10535 18.1992 9.59986V16.7999L21.7992 19.1999V20.3999H0.199219V19.1999L3.79922 16.7999V9.59986ZM13.3992 21.5999C13.3992 22.2364 13.1464 22.8468 12.6963 23.2969C12.2462 23.747 11.6357 23.9999 10.9992 23.9999C10.3627 23.9999 9.75225 23.747 9.30217 23.2969C8.85208 22.8468 8.59922 22.2364 8.59922 21.5999H13.3992Z" fill="#7C7C7C"/>
</svg>
