<svg width="40" height="40" viewBox="0 0 40 40" fill="none" xmlns="http://www.w3.org/2000/svg">
<path fill-rule="evenodd" clip-rule="evenodd" d="M19.9987 3.33398C22.1874 3.33397 24.3546 3.76506 26.3767 4.60263C28.3988 5.44021 30.2362 6.66786 31.7838 8.2155C33.3315 9.76314 34.5591 11.6005 35.3967 13.6226C36.2343 15.6447 36.6654 17.8119 36.6654 20.0006C36.6654 29.2054 29.2034 36.6673 19.9987 36.6673C10.794 36.6673 3.33203 29.2054 3.33203 20.0006C3.33203 10.7959 10.794 3.33398 19.9987 3.33398ZM21.6654 21.6673H18.332C14.2059 21.6673 10.6634 24.1663 9.13555 27.7336C11.553 31.1235 15.5177 33.334 19.9987 33.334C24.4796 33.334 28.4443 31.1235 30.8619 27.7334C29.334 24.1663 25.7916 21.6673 21.6654 21.6673ZM19.9987 8.33398C17.2373 8.33398 14.9987 10.5726 14.9987 13.334C14.9987 16.0954 17.2373 18.334 19.9987 18.334C22.7601 18.334 24.9987 16.0954 24.9987 13.334C24.9987 10.5726 22.7602 8.33398 19.9987 8.33398Z" fill="#7C7C7C"/>
</svg>
