<svg width="24" height="24" viewBox="0 0 24 24" fill="none" xmlns="http://www.w3.org/2000/svg">
<path d="M5.68741 19.116C4.95941 19.116 4.34241 18.8617 3.83641 18.353C3.32974 17.8443 3.07641 17.2267 3.07641 16.5H2.49941C2.27074 16.5 2.07907 16.4227 1.92441 16.268C1.76974 16.1133 1.69207 15.9213 1.69141 15.692V6.616C1.69141 6.15533 1.84574 5.771 2.15441 5.463C2.46307 5.155 2.84741 5.00067 3.30741 5H14.9224C15.3671 5 15.7474 5.15833 16.0634 5.475C16.3794 5.79167 16.5377 6.17167 16.5384 6.615V8.615H18.0384C18.2937 8.615 18.5357 8.67233 18.7644 8.787C18.9937 8.90167 19.1824 9.06 19.3304 9.262L22.1454 13.052C22.1994 13.1193 22.2397 13.1933 22.2664 13.274C22.2931 13.3547 22.3064 13.4423 22.3064 13.537V15.692C22.3064 15.9213 22.2294 16.1133 22.0754 16.268C21.9214 16.4227 21.7294 16.5 21.4994 16.5H20.6914C20.6914 17.2267 20.4367 17.8443 19.9274 18.353C19.4181 18.8617 18.7997 19.1157 18.0724 19.115C17.3451 19.1143 16.7277 18.8603 16.2204 18.353C15.7131 17.8457 15.4597 17.228 15.4604 16.5H8.30841C8.30841 17.2307 8.05374 17.8493 7.54441 18.356C7.03507 18.8627 6.41541 19.116 5.68741 19.116ZM5.69241 18.116C6.14241 18.116 6.52407 17.9593 6.83741 17.646C7.15074 17.3327 7.30741 16.9507 7.30741 16.5C7.30741 16.0493 7.15074 15.6677 6.83741 15.355C6.52407 15.0423 6.14241 14.8857 5.69241 14.885C5.24241 14.8843 4.86074 15.041 4.54741 15.355C4.23407 15.669 4.07741 16.0507 4.07741 16.5C4.07741 16.9493 4.23407 17.331 4.54741 17.645C4.86074 17.959 5.24241 18.1167 5.69241 18.116ZM18.0774 18.115C18.5274 18.115 18.9091 17.9583 19.2224 17.645C19.5357 17.3317 19.6924 16.95 19.6924 16.5C19.6924 16.05 19.5357 15.6683 19.2224 15.355C18.9091 15.0417 18.5274 14.885 18.0774 14.885C17.6274 14.885 17.2457 15.0417 16.9324 15.355C16.6191 15.6683 16.4624 16.05 16.4624 16.5C16.4624 16.95 16.6191 17.3317 16.9324 17.645C17.2457 17.9583 17.6274 18.115 18.0774 18.115ZM16.5374 13.5H21.2494L18.4994 9.866C18.4354 9.78867 18.3617 9.72767 18.2784 9.683C18.1951 9.63833 18.1021 9.616 17.9994 9.616H16.5384L16.5374 13.5Z" fill="#FFC107"/>
</svg>
