<svg width="22" height="15" viewBox="0 0 22 15" fill="none" xmlns="http://www.w3.org/2000/svg">
<path d="M6 14C6.53043 14 7.03914 13.7893 7.41421 13.4142C7.78929 13.0391 8 12.5304 8 12C8 11.4696 7.78929 10.9609 7.41421 10.5858C7.03914 10.2107 6.53043 10 6 10C5.46957 10 4.96086 10.2107 4.58579 10.5858C4.21071 10.9609 4 11.4696 4 12C4 12.5304 4.21071 13.0391 4.58579 13.4142C4.96086 13.7893 5.46957 14 6 14ZM16 14C16.5304 14 17.0391 13.7893 17.4142 13.4142C17.7893 13.0391 18 12.5304 18 12C18 11.4696 17.7893 10.9609 17.4142 10.5858C17.0391 10.2107 16.5304 10 16 10C15.4696 10 14.9609 10.2107 14.5858 10.5858C14.2107 10.9609 14 11.4696 14 12C14 12.5304 14.2107 13.0391 14.5858 13.4142C14.9609 13.7893 15.4696 14 16 14Z" stroke="black" stroke-width="1.5" stroke-miterlimit="1.5" stroke-linecap="round" stroke-linejoin="round"/>
<path d="M13 12V1.6C13 1.44087 12.9368 1.28826 12.8243 1.17574C12.7117 1.06321 12.5591 1 12.4 1H1.6C1.44087 1 1.28826 1.06321 1.17574 1.17574C1.06321 1.28826 1 1.44087 1 1.6V11.4C1 11.4788 1.01552 11.5568 1.04567 11.6296C1.07583 11.7024 1.12002 11.7685 1.17574 11.8243C1.23145 11.88 1.29759 11.9242 1.37039 11.9543C1.44319 11.9845 1.52121 12 1.6 12H3.65M13 12H8.05M13 12H14M13 4H18.61C18.726 4.00003 18.8395 4.03367 18.9367 4.09685C19.034 4.16003 19.1108 4.25005 19.158 4.356L20.948 8.384C20.9821 8.46048 20.9998 8.54326 21 8.627V11.4C21 11.4788 20.9845 11.5568 20.9543 11.6296C20.9242 11.7024 20.88 11.7685 20.8243 11.8243C20.7685 11.88 20.7024 11.9242 20.6296 11.9543C20.5568 11.9845 20.4788 12 20.4 12H18.5" stroke="black" stroke-width="1.5" stroke-linecap="round"/>
</svg>
