<svg width="20" height="20" viewBox="0 0 20 20" fill="none" xmlns="http://www.w3.org/2000/svg">
<path d="M0.833008 18.4256C1.46092 19.389 2.27309 19.389 2.91659 18.4256C4.98551 15.2613 6.95634 20.7017 8.41659 18.4623C10.6441 15.1036 12.2464 20.9272 13.9166 18.4256C16.0946 15.0935 17.4522 20.6119 19.1663 18.784M2.27401 14.582L0.901758 10.5909C0.653341 9.86761 1.11076 9.08203 1.77992 9.08203H18.1195C20.9557 9.08203 17.3275 14.582 15.4969 14.582M15.4997 9.08203L12.9339 5.87461C12.5904 5.44532 12.1548 5.09876 11.6593 4.86059C11.1637 4.62242 10.621 4.49874 10.0712 4.4987H6.33301C5.84678 4.4987 5.38046 4.69185 5.03665 5.03567C4.69283 5.37949 4.49967 5.8458 4.49967 6.33203V9.08203M8.16634 4.4987V1.7487C8.16634 1.50558 8.06976 1.27242 7.89786 1.10052C7.72595 0.928608 7.49279 0.832031 7.24967 0.832031H6.33301" stroke="#222222" stroke-opacity="0.53" stroke-width="1.5" stroke-linecap="round" stroke-linejoin="round"/>
</svg>
