<svg width="30" height="30" viewBox="0 0 30 30" fill="none" xmlns="http://www.w3.org/2000/svg">
<path d="M13.7009 26.25C13.4101 26.25 13.158 26.1546 12.9447 25.9638C12.7305 25.7729 12.5976 25.535 12.5459 25.25L12.2172 22.635C11.818 22.5142 11.3864 22.325 10.9222 22.0675C10.4589 21.8092 10.0643 21.5325 9.73844 21.2375L7.34469 22.2675C7.08053 22.3842 6.81219 22.3967 6.53969 22.305C6.26719 22.2133 6.05719 22.0404 5.90969 21.7863L4.56094 19.4625C4.41344 19.2083 4.37011 18.9425 4.43094 18.665C4.49178 18.3875 4.63678 18.16 4.86594 17.9825L6.95594 16.42C6.91844 16.1933 6.88803 15.9604 6.86469 15.7213C6.83969 15.4813 6.82719 15.2483 6.82719 15.0225C6.82719 14.8125 6.83969 14.5917 6.86469 14.36C6.88803 14.1283 6.91844 13.8675 6.95594 13.5775L4.86594 12.015C4.63678 11.8375 4.49594 11.6063 4.44344 11.3213C4.39094 11.0363 4.43803 10.7663 4.58469 10.5113L5.90969 8.26126C6.05719 8.02209 6.26719 7.85292 6.53969 7.75376C6.81219 7.65459 7.08053 7.66334 7.34469 7.78001L9.71469 8.78501C10.088 8.47417 10.4922 8.19376 10.9272 7.94376C11.3605 7.69376 11.7826 7.50042 12.1934 7.36376L12.5472 4.74876C12.598 4.46376 12.7305 4.22584 12.9447 4.03501C13.1589 3.84417 13.4109 3.74917 13.7009 3.75001H16.3009C16.5918 3.75001 16.8439 3.84542 17.0572 4.03626C17.2714 4.22709 17.4043 4.46501 17.4559 4.75001L17.7847 7.39001C18.2639 7.55834 18.6872 7.75126 19.0547 7.96876C19.4222 8.18626 19.8009 8.45876 20.1909 8.78625L22.6809 7.78126C22.9459 7.66459 23.2147 7.65584 23.4872 7.75501C23.7597 7.85417 23.9693 8.02334 24.1159 8.26251L25.4409 10.5363C25.5884 10.7913 25.6318 11.0571 25.5709 11.3338C25.5101 11.6104 25.3651 11.8383 25.1359 12.0175L22.9509 13.65C23.0193 13.9083 23.0576 14.1454 23.0659 14.3613C23.0743 14.5771 23.0784 14.7896 23.0784 14.9988C23.0784 15.1929 23.0701 15.3975 23.0534 15.6125C23.0376 15.8283 23.0009 16.0892 22.9434 16.395L25.0559 17.9825C25.2851 18.16 25.4343 18.3875 25.5034 18.665C25.5726 18.9425 25.5334 19.2083 25.3859 19.4625L24.0534 21.7613C23.9068 22.0163 23.693 22.1892 23.4122 22.28C23.1314 22.3717 22.8589 22.3592 22.5947 22.2425L20.1909 21.2125C19.8018 21.54 19.4101 21.8204 19.0159 22.0538C18.6218 22.2871 18.2114 22.4725 17.7847 22.61L17.4547 25.2488C17.4039 25.5338 17.2714 25.7717 17.0572 25.9625C16.843 26.1533 16.5909 26.2492 16.3009 26.25H13.7009ZM14.9672 18.125C15.8389 18.125 16.5776 17.8221 17.1834 17.2163C17.7893 16.6104 18.0922 15.8717 18.0922 15C18.0922 14.1283 17.7893 13.3896 17.1834 12.7838C16.5776 12.1779 15.8389 11.875 14.9672 11.875C14.0905 11.875 13.3505 12.1779 12.7472 12.7838C12.1439 13.3896 11.8422 14.1283 11.8422 15C11.8422 15.8717 12.1439 16.6104 12.7472 17.2163C13.3505 17.8221 14.0905 18.125 14.9672 18.125Z" fill=" #fd4a09" fill-opacity="0.8"/>
</svg>
