<svg width="30" height="30" viewBox="0 0 30 30" fill="none" xmlns="http://www.w3.org/2000/svg">
<path d="M8.75 20C8.39584 20 8.09917 19.88 7.86 19.64C7.62084 19.4 7.50084 19.1033 7.5 18.75C7.49917 18.3967 7.61917 18.1 7.86 17.86C8.10084 17.62 8.3975 17.5 8.75 17.5H11.25C11.6042 17.5 11.9013 17.62 12.1413 17.86C12.3813 18.1 12.5008 18.3967 12.5 18.75C12.4992 19.1033 12.3792 19.4004 12.14 19.6412C11.9008 19.8821 11.6042 20.0017 11.25 20H8.75ZM8.75 15C8.39584 15 8.09917 14.88 7.86 14.64C7.62084 14.4 7.50084 14.1033 7.5 13.75C7.49917 13.3967 7.61917 13.1 7.86 12.86C8.10084 12.62 8.3975 12.5 8.75 12.5H22.5C22.8542 12.5 23.1513 12.62 23.3913 12.86C23.6313 13.1 23.7508 13.3967 23.75 13.75C23.7492 14.1033 23.6292 14.4004 23.39 14.6412C23.1508 14.8821 22.8542 15.0017 22.5 15H8.75ZM8.75 10C8.39584 10 8.09917 9.88 7.86 9.64C7.62084 9.4 7.50084 9.10333 7.5 8.75C7.49917 8.39667 7.61917 8.1 7.86 7.86C8.10084 7.62 8.3975 7.5 8.75 7.5H22.5C22.8542 7.5 23.1513 7.62 23.3913 7.86C23.6313 8.1 23.7508 8.39667 23.75 8.75C23.7492 9.10333 23.6292 9.40042 23.39 9.64125C23.1508 9.88208 22.8542 10.0017 22.5 10H8.75ZM19.9375 24.4688C19.7708 24.4688 19.6146 24.4429 19.4688 24.3912C19.3229 24.3396 19.1875 24.2508 19.0625 24.125L15.5 20.5625C15.25 20.3125 15.13 20.0158 15.14 19.6725C15.15 19.3292 15.2804 19.0321 15.5313 18.7812C15.7821 18.5304 16.0792 18.4054 16.4225 18.4062C16.7658 18.4071 17.0625 18.5321 17.3125 18.7812L19.9375 21.4375L26.0938 15.2812C26.3438 15.0312 26.6408 14.9112 26.985 14.9212C27.3292 14.9312 27.6258 15.0617 27.875 15.3125C28.1042 15.5625 28.2242 15.8542 28.235 16.1875C28.2458 16.5208 28.1258 16.8125 27.875 17.0625L20.8125 24.125C20.6875 24.25 20.5521 24.3387 20.4063 24.3912C20.2604 24.4437 20.1042 24.4696 19.9375 24.4688ZM3.75 10C3.39584 10 3.09917 9.88 2.86 9.64C2.62084 9.4 2.50084 9.10333 2.5 8.75C2.49917 8.39667 2.61917 8.1 2.86 7.86C3.10084 7.62 3.3975 7.5 3.75 7.5C4.1025 7.5 4.39959 7.62 4.64125 7.86C4.88292 8.1 5.0025 8.39667 5 8.75C4.9975 9.10333 4.8775 9.40042 4.64 9.64125C4.4025 9.88208 4.10584 10.0017 3.75 10ZM3.75 15C3.39584 15 3.09917 14.88 2.86 14.64C2.62084 14.4 2.50084 14.1033 2.5 13.75C2.49917 13.3967 2.61917 13.1 2.86 12.86C3.10084 12.62 3.3975 12.5 3.75 12.5C4.1025 12.5 4.39959 12.62 4.64125 12.86C4.88292 13.1 5.0025 13.3967 5 13.75C4.9975 14.1033 4.8775 14.4004 4.64 14.6412C4.4025 14.8821 4.10584 15.0017 3.75 15ZM3.75 20C3.39584 20 3.09917 19.88 2.86 19.64C2.62084 19.4 2.50084 19.1033 2.5 18.75C2.49917 18.3967 2.61917 18.1 2.86 17.86C3.10084 17.62 3.3975 17.5 3.75 17.5C4.1025 17.5 4.39959 17.62 4.64125 17.86C4.88292 18.1 5.0025 18.3967 5 18.75C4.9975 19.1033 4.8775 19.4004 4.64 19.6412C4.4025 19.8821 4.10584 20.0017 3.75 20Z" fill="#222222" fill-opacity="0.6"/>
</svg>
