<svg width="24" height="24" viewBox="0 0 24 24" fill="none" xmlns="http://www.w3.org/2000/svg">
<path d="M15.495 8.90186C14.6475 8.90186 13.884 9.60236 13.884 10.4896C13.884 11.3769 14.6475 12.0781 15.495 12.0781C16.35 12.0781 17.0858 11.3694 17.0858 10.4896C17.0858 9.61061 16.3507 8.90186 15.495 8.90186ZM14.634 10.4896C14.634 10.0411 15.0375 9.65186 15.495 9.65186C15.945 9.65186 16.3358 10.0329 16.3358 10.4896C16.3358 10.9471 15.9443 11.3281 15.495 11.3281C15.0375 11.3281 14.634 10.9389 14.634 10.4896ZM15.495 12.6796C14.6558 12.6796 13.875 13.3614 13.875 14.2561C13.875 15.1419 14.646 15.8566 15.495 15.8566C16.3628 15.8566 17.067 15.1231 17.067 14.2561C17.0674 13.8386 16.902 13.4381 16.6073 13.1425C16.3125 12.8469 15.9125 12.6804 15.495 12.6796ZM14.625 14.2561C14.625 13.8151 15.0293 13.4296 15.495 13.4296C15.942 13.4296 16.317 13.7971 16.317 14.2561C16.317 14.7256 15.9323 15.1066 15.495 15.1066C15.039 15.1066 14.625 14.7061 14.625 14.2561ZM11.5695 15.7501H4.188C3.945 15.7501 3.75 15.5829 3.75 15.3751C3.75 15.1674 3.945 15.0001 4.188 15.0001H11.562C11.8043 15.0001 12 15.1674 12 15.3751C12.0075 15.5761 11.805 15.7501 11.5695 15.7501ZM11.5695 14.2501H4.188C3.945 14.2501 3.75 14.0829 3.75 13.8751C3.75 13.6674 3.945 13.5001 4.188 13.5001H11.562C11.8043 13.5001 12 13.6674 12 13.8751C12.0075 14.0829 11.805 14.2501 11.5695 14.2501ZM20.4457 12.7501H18.555C18.2475 12.7501 18.0007 12.9976 18.0007 13.3044V15.1959C18.0007 15.5034 18.2483 15.7501 18.555 15.7501H20.4465C20.754 15.7501 21.0007 15.5026 21.0007 15.1959V13.3051C21.0009 13.2323 20.9867 13.1601 20.959 13.0928C20.9312 13.0254 20.8904 12.9643 20.8389 12.9128C20.7873 12.8612 20.7262 12.8204 20.6588 12.7926C20.5915 12.7649 20.5193 12.7507 20.4465 12.7509M7.587 10.5001H4.413C4.04625 10.5001 3.75 10.1769 3.75 9.77636C3.75 9.37586 4.04625 9.0526 4.413 9.0526H7.587C7.95375 9.0526 8.25 9.37586 8.25 9.77636C8.25 10.1851 7.95375 10.5001 7.587 10.5001Z" fill="#007BFF"/>
<path d="M3.1425 6C1.8045 6 0.75 7.1055 0.75 8.4315V16.3185C0.75 17.6445 1.8045 18.75 3.1425 18.75H13.965C14.5238 18.75 14.9497 18.3607 15.084 17.8912C15.1091 17.8006 15.1626 17.7202 15.2365 17.662C15.3104 17.6037 15.4009 17.5705 15.495 17.5673C15.6795 17.5673 15.8505 17.6932 15.9053 17.8883L15.906 17.8905C16.0402 18.3608 16.4663 18.75 17.025 18.75H20.8575C22.1955 18.75 23.25 17.6445 23.25 16.3185V8.4315C23.25 7.1055 22.1955 6 20.8575 6H17.025C16.4663 6 16.0402 6.38925 15.906 6.85875C15.8809 6.94944 15.8274 7.02976 15.7535 7.08802C15.6796 7.14629 15.5891 7.17947 15.495 7.18275C15.401 7.18129 15.31 7.14914 15.2359 7.09119C15.1619 7.03324 15.1088 6.95267 15.0848 6.86175L15.084 6.8595C14.9497 6.38925 14.5238 6 13.965 6H3.1425ZM2.25 8.4315C2.25 7.89975 2.6655 7.5 3.1425 7.5H13.722C13.8685 7.84965 14.1148 8.14835 14.4302 8.35872C14.7455 8.56909 15.1159 8.6818 15.495 8.68275C15.8737 8.68068 16.2435 8.56752 16.5586 8.35727C16.8736 8.14703 17.12 7.84895 17.2673 7.5H20.8575C21.3345 7.5 21.75 7.89975 21.75 8.4315V16.3185C21.75 16.8502 21.3345 17.25 20.8575 17.25H17.268C17.1215 16.9003 16.8752 16.6017 16.5598 16.3913C16.2445 16.1809 15.8741 16.0682 15.495 16.0673C15.1163 16.0693 14.7465 16.1825 14.4314 16.3927C14.1164 16.603 13.87 16.901 13.7228 17.25H3.1425C2.6655 17.25 2.25 16.8502 2.25 16.3185V8.4315Z" fill="#007BFF"/>
</svg>
