<svg width="28" height="28" viewBox="0 0 28 28" fill="none" xmlns="http://www.w3.org/2000/svg">
<path d="M23.375 23.375C23.375 24.2038 23.0458 24.9987 22.4597 25.5847C21.8737 26.1708 21.0788 26.5 20.25 26.5C19.4212 26.5 18.6263 26.1708 18.0403 25.5847C17.4542 24.9987 17.125 24.2038 17.125 23.375C17.125 22.5462 17.4542 21.7513 18.0403 21.1653C18.6263 20.5792 19.4212 20.25 20.25 20.25C21.0788 20.25 21.8737 20.5792 22.4597 21.1653C23.0458 21.7513 23.375 22.5462 23.375 23.375ZM10.875 23.375C10.875 24.2038 10.5458 24.9987 9.95971 25.5847C9.37366 26.1708 8.5788 26.5 7.75 26.5C6.9212 26.5 6.12634 26.1708 5.54029 25.5847C4.95424 24.9987 4.625 24.2038 4.625 23.375C4.625 22.5462 4.95424 21.7513 5.54029 21.1653C6.12634 20.5792 6.9212 20.25 7.75 20.25C8.5788 20.25 9.37366 20.5792 9.95971 21.1653C10.5458 21.7513 10.875 22.5462 10.875 23.375Z" stroke="#fd4a09" stroke-opacity="0.6" stroke-width="1.5" stroke-linecap="round" stroke-linejoin="round"/>
<path d="M1.5 14V20.25C1.5 21.4188 1.5 22.0025 1.75125 22.4375C1.91581 22.7225 2.15249 22.9592 2.4375 23.1237C2.8725 23.375 3.45625 23.375 4.625 23.375M17.125 23.375H10.875M17.75 20.875V10.25C17.75 8.4825 17.75 7.59875 17.2 7.05C16.6525 6.5 15.7687 6.5 14 6.5H12.75M18.375 9.625H20.6263C21.6638 9.625 22.1825 9.625 22.6125 9.86875C23.0425 10.1112 23.3088 10.5562 23.8425 11.4462L25.9662 14.9837C26.2312 15.4262 26.3637 15.6488 26.4325 15.8938C26.5 16.14 26.5 16.3975 26.5 16.9138V20.25C26.5 21.4188 26.5 22.0025 26.2487 22.4375C26.0842 22.7225 25.8475 22.9592 25.5625 23.1237C25.1275 23.375 24.5438 23.375 23.375 23.375M8.8125 8.8125L7.125 7.6875V4.875M1.5 7.125C1.5 7.86369 1.6455 8.59514 1.92818 9.27759C2.21086 9.96005 2.62519 10.5801 3.14752 11.1025C3.66985 11.6248 4.28995 12.0391 4.97241 12.3218C5.65486 12.6045 6.38631 12.75 7.125 12.75C7.86369 12.75 8.59514 12.6045 9.27759 12.3218C9.96005 12.0391 10.5801 11.6248 11.1025 11.1025C11.6248 10.5801 12.0391 9.96005 12.3218 9.27759C12.6045 8.59514 12.75 7.86369 12.75 7.125C12.75 5.63316 12.1574 4.20242 11.1025 3.14752C10.0476 2.09263 8.61684 1.5 7.125 1.5C5.63316 1.5 4.20242 2.09263 3.14752 3.14752C2.09263 4.20242 1.5 5.63316 1.5 7.125Z" stroke="#fd4a09" stroke-opacity="0.6" stroke-width="1.5" stroke-linecap="round" stroke-linejoin="round"/>
</svg>
