<svg width="22" height="17" viewBox="0 0 22 17" fill="none" xmlns="http://www.w3.org/2000/svg">
<path d="M21.3199 2C20.5461 2.35 19.7121 2.58 18.8479 2.69C19.7322 2.16 20.4155 1.32 20.7371 0.31C19.903 0.81 18.9785 1.16 18.0038 1.36C17.2099 0.5 16.0945 0 14.8284 0C12.4669 0 10.5376 1.92 10.5376 4.29C10.5376 4.63 10.5778 4.96 10.6481 5.27C7.07073 5.09 3.88527 3.38 1.76497 0.79C1.39317 1.42 1.18214 2.16 1.18214 2.94C1.18214 4.43 1.9358 5.75 3.10146 6.5C2.388 6.5 1.72478 6.3 1.14195 6V6.03C1.14195 8.11 2.62917 9.85 4.59873 10.24C3.9665 10.4129 3.30247 10.4369 2.65932 10.31C2.93225 11.1625 3.46677 11.9084 4.18775 12.4429C4.90873 12.9775 5.77991 13.2737 6.67883 13.29C5.1551 14.4905 3.26627 15.1394 1.32283 15.13C0.981169 15.13 0.63951 15.11 0.297852 15.07C2.20712 16.29 4.47814 17 6.90995 17C14.8284 17 19.1795 10.46 19.1795 4.79C19.1795 4.6 19.1795 4.42 19.1695 4.23C20.0136 3.63 20.7371 2.87 21.3199 2Z" fill="white"/>
</svg>
