<svg width="19" height="22" viewBox="0 0 19 22" fill="none" xmlns="http://www.w3.org/2000/svg">
<path d="M13.5 12C14.7885 12.0001 16.0272 12.4975 16.9578 13.3887C17.8884 14.2798 18.4391 15.4958 18.495 16.783L18.5 17V18C18.5002 18.5046 18.3096 18.9906 17.9665 19.3605C17.6234 19.7305 17.1532 19.9572 16.65 19.995L16.5 20H2.5C1.99542 20.0002 1.50943 19.8096 1.13945 19.4665C0.769471 19.1234 0.542843 18.6532 0.505 18.15L0.5 18V17C0.500074 15.7115 0.997542 14.4728 1.88866 13.5422C2.77978 12.6116 3.99575 12.0609 5.283 12.005L5.5 12H13.5ZM9.5 0C10.8261 0 12.0979 0.526784 13.0355 1.46447C13.9732 2.40215 14.5 3.67392 14.5 5C14.5 6.32608 13.9732 7.59785 13.0355 8.53553C12.0979 9.47322 10.8261 10 9.5 10C8.17392 10 6.90215 9.47322 5.96447 8.53553C5.02678 7.59785 4.5 6.32608 4.5 5C4.5 3.67392 5.02678 2.40215 5.96447 1.46447C6.90215 0.526784 8.17392 0 9.5 0Z" fill="#333333"/>
</svg>
