<svg width="24" height="25" viewBox="0 0 24 25" fill="none" xmlns="http://www.w3.org/2000/svg">
<path d="M22.078 2.90003H1.91922C1.52082 2.90003 1.19922 3.22043 1.19922 3.62003V6.50003H22.7992V3.62003C22.7992 3.52537 22.7806 3.43165 22.7443 3.34422C22.708 3.25678 22.6549 3.17736 22.5879 3.11048C22.5209 3.04361 22.4414 2.9906 22.3539 2.95449C22.2664 2.91837 22.1727 2.89987 22.078 2.90003ZM2.39922 20.42C2.39922 21.344 3.15402 22.1 4.07802 22.1H19.918C20.842 22.1 21.598 21.3428 21.598 20.42V7.70003H2.39922V20.42ZM8.39922 10.1H15.5992V12.5H8.39922V10.1Z" fill="black"/>
</svg>
