<svg width="24" height="25" viewBox="0 0 24 25" fill="none" xmlns="http://www.w3.org/2000/svg">
<path d="M15.495 9.40173C14.6475 9.40173 13.884 10.1022 13.884 10.9895C13.884 11.8767 14.6475 12.578 15.495 12.578C16.35 12.578 17.0858 11.8692 17.0858 10.9895C17.0858 10.1105 16.3507 9.40173 15.495 9.40173ZM14.634 10.9895C14.634 10.541 15.0375 10.1517 15.495 10.1517C15.945 10.1517 16.3358 10.5327 16.3358 10.9895C16.3358 11.447 15.9443 11.828 15.495 11.828C15.0375 11.828 14.634 11.4387 14.634 10.9895ZM15.495 13.1795C14.6558 13.1795 13.875 13.8612 13.875 14.756C13.875 15.6417 14.646 16.3565 15.495 16.3565C16.3628 16.3565 17.067 15.623 17.067 14.756C17.0674 14.3385 16.902 13.938 16.6073 13.6424C16.3125 13.3468 15.9125 13.1803 15.495 13.1795ZM14.625 14.756C14.625 14.315 15.0293 13.9295 15.495 13.9295C15.942 13.9295 16.317 14.297 16.317 14.756C16.317 15.2255 15.9323 15.6065 15.495 15.6065C15.039 15.6065 14.625 15.206 14.625 14.756ZM11.5695 16.25H4.188C3.945 16.25 3.75 16.0827 3.75 15.875C3.75 15.6672 3.945 15.5 4.188 15.5H11.562C11.8043 15.5 12 15.6672 12 15.875C12.0075 16.076 11.805 16.25 11.5695 16.25ZM11.5695 14.75H4.188C3.945 14.75 3.75 14.5827 3.75 14.375C3.75 14.1672 3.945 14 4.188 14H11.562C11.8043 14 12 14.1672 12 14.375C12.0075 14.5827 11.805 14.75 11.5695 14.75ZM20.4457 13.25H18.555C18.2475 13.25 18.0007 13.4975 18.0007 13.8042V15.6957C18.0007 16.0032 18.2483 16.25 18.555 16.25H20.4465C20.754 16.25 21.0007 16.0025 21.0007 15.6957V13.805C21.0009 13.7321 20.9867 13.66 20.959 13.5926C20.9312 13.5253 20.8904 13.4641 20.8389 13.4126C20.7873 13.3611 20.7262 13.3203 20.6588 13.2925C20.5915 13.2647 20.5193 13.2505 20.4465 13.2507M7.587 11H4.413C4.04625 11 3.75 10.6767 3.75 10.2762C3.75 9.87573 4.04625 9.55248 4.413 9.55248H7.587C7.95375 9.55248 8.25 9.87573 8.25 10.2762C8.25 10.685 7.95375 11 7.587 11Z" fill="#333333"/>
<path d="M3.1425 6.5C1.8045 6.5 0.75 7.6055 0.75 8.9315V16.8185C0.75 18.1445 1.8045 19.25 3.1425 19.25H13.965C14.5238 19.25 14.9497 18.8607 15.084 18.3912C15.1091 18.3006 15.1626 18.2202 15.2365 18.162C15.3104 18.1037 15.4009 18.0705 15.495 18.0673C15.6795 18.0673 15.8505 18.1932 15.9053 18.3883L15.906 18.3905C16.0402 18.8608 16.4663 19.25 17.025 19.25H20.8575C22.1955 19.25 23.25 18.1445 23.25 16.8185V8.9315C23.25 7.6055 22.1955 6.5 20.8575 6.5H17.025C16.4663 6.5 16.0402 6.88925 15.906 7.35875C15.8809 7.44944 15.8274 7.52976 15.7535 7.58802C15.6796 7.64629 15.5891 7.67947 15.495 7.68275C15.401 7.68129 15.31 7.64914 15.2359 7.59119C15.1619 7.53324 15.1088 7.45267 15.0848 7.36175L15.084 7.3595C14.9497 6.88925 14.5238 6.5 13.965 6.5H3.1425ZM2.25 8.9315C2.25 8.39975 2.6655 8 3.1425 8H13.722C13.8685 8.34965 14.1148 8.64835 14.4302 8.85872C14.7455 9.06909 15.1159 9.1818 15.495 9.18275C15.8737 9.18068 16.2435 9.06752 16.5586 8.85727C16.8736 8.64703 17.12 8.34895 17.2673 8H20.8575C21.3345 8 21.75 8.39975 21.75 8.9315V16.8185C21.75 17.3502 21.3345 17.75 20.8575 17.75H17.268C17.1215 17.4003 16.8752 17.1017 16.5598 16.8913C16.2445 16.6809 15.8741 16.5682 15.495 16.5673C15.1163 16.5693 14.7465 16.6825 14.4314 16.8927C14.1164 17.103 13.87 17.401 13.7228 17.75H3.1425C2.6655 17.75 2.25 17.3502 2.25 16.8185V8.9315Z" fill="#333333"/>
</svg>
