<svg width="34" height="34" viewBox="0 0 34 34" fill="none" xmlns="http://www.w3.org/2000/svg">
<path d="M17.0017 0.333984C26.2067 0.333984 33.6683 7.79565 33.6683 17.0007C33.6683 26.2057 26.2067 33.6673 17.0017 33.6673C14.0562 33.6724 11.1626 32.8929 8.61832 31.409L0.341653 33.6673L2.59499 25.3873C1.10992 22.8422 0.329825 19.9473 0.334986 17.0007C0.334986 7.79565 7.79665 0.333984 17.0017 0.333984ZM11.3217 9.16732L10.9883 9.18065C10.7728 9.1955 10.5622 9.25211 10.3683 9.34732C10.1876 9.44984 10.0226 9.57781 9.87832 9.72732C9.67832 9.91565 9.56499 10.079 9.44332 10.2373C8.82686 11.0388 8.49494 12.0228 8.49999 13.034C8.50332 13.8507 8.71665 14.6457 9.04999 15.389C9.73165 16.8923 10.8533 18.484 12.3333 19.959C12.69 20.314 13.04 20.6707 13.4167 21.0023C15.2557 22.6213 17.4471 23.7889 19.8167 24.4123L20.7633 24.5573C21.0717 24.574 21.38 24.5506 21.69 24.5357C22.1753 24.5101 22.6491 24.3787 23.0783 24.1507C23.2964 24.0379 23.5094 23.9155 23.7167 23.784C23.7167 23.784 23.7872 23.7362 23.925 23.634C24.15 23.4673 24.2883 23.349 24.475 23.154C24.615 23.0095 24.7317 22.8418 24.825 22.6507C24.955 22.379 25.085 21.8606 25.1383 21.429C25.1783 21.099 25.1667 20.919 25.1617 20.8073C25.155 20.629 25.0067 20.444 24.845 20.3657L23.875 19.9307C23.875 19.9307 22.425 19.299 21.5383 18.8957C21.4455 18.8552 21.3461 18.8321 21.245 18.8273C21.1309 18.8154 21.0157 18.8281 20.907 18.8646C20.7983 18.9012 20.6987 18.9606 20.615 19.039C20.6067 19.0357 20.495 19.1307 19.29 20.5907C19.2208 20.6836 19.1256 20.7538 19.0163 20.7924C18.9071 20.831 18.7888 20.8362 18.6767 20.8073C18.568 20.7784 18.4616 20.7416 18.3583 20.6973C18.1517 20.6107 18.08 20.5773 17.9383 20.5173C16.9814 20.1005 16.0957 19.5364 15.3133 18.8457C15.1033 18.6623 14.9083 18.4623 14.7083 18.269C14.0527 17.641 13.4812 16.9306 13.0083 16.1557L12.91 15.9973C12.8404 15.8903 12.7834 15.7757 12.74 15.6557C12.6767 15.4107 12.8417 15.214 12.8417 15.214C12.8417 15.214 13.2467 14.7706 13.435 14.5307C13.6183 14.2973 13.7733 14.0707 13.8733 13.909C14.07 13.5923 14.1317 13.2673 14.0283 13.0157C13.5617 11.8757 13.0794 10.7418 12.5817 9.61398C12.4833 9.39065 12.1917 9.23065 11.9267 9.19898C11.8367 9.18787 11.7467 9.17898 11.6567 9.17232C11.4329 9.15948 11.2085 9.16171 10.985 9.17898L11.3217 9.16732Z" fill="#FD4A09" fill-opacity="0.8"/>
</svg>
